EkkamaiVibe-Regular.ufo
<glyph name="exclam" format="2">
  <advance width="215"/>
  <unicode hex="0021"/>
  <outline>
    <contour>
      <point x="134" y="783" type="line"/>
      <point x="134" y="139" type="line"/>
      <point x="80" y="139" type="line"/>
      <point x="80" y="783" type="line"/>
    </contour>
    <contour>
      <point x="145" y="74" type="line"/>
      <point x="145" y="0" type="line"/>
      <point x="71" y="0" type="line"/>
      <point x="71" y="74" type="line"/>
    </contour>
  </outline>
</glyph>
<glyph name="quotedbl" format="2">
  <advance width="263"/>
  <unicode hex="0022"/>
  <outline>
    <contour>
      <point x="155" y="674" type="line"/>
      <point x="203" y="674" type="line"/>
      <point x="203" y="542" type="line"/>
      <point x="155" y="542" type="line"/>
    </contour>
    <contour>
      <point x="30" y="542" type="line"/>
      <point x="30" y="674" type="line"/>
      <point x="78" y="674" type="line"/>
      <point x="78" y="542" type="line"/>
    </contour>
  </outline>
</glyph>
<glyph name="numbersign" format="2">
  <advance width="722"/>
  <unicode hex="0023"/>
  <outline>
    <contour>
      <point x="23" y="209" type="line"/>
      <point x="42" y="263" type="line"/>
      <point x="156" y="263" type="line"/>
      <point x="230" y="481" type="line"/>
      <point x="117" y="481" type="line"/>
      <point x="135" y="535" type="line"/>
      <point x="249" y="535" type="line"/>
      <point x="306" y="700" type="line"/>
      <point x="363" y="700" type="line"/>
      <point x="306" y="535" type="line"/>
      <point x="539" y="535" type="line"/>
      <point x="595" y="699" type="line"/>
      <point x="652" y="699" type="line"/>
      <point x="596" y="535" type="line"/>
      <point x="716" y="535" type="line"/>
      <point x="697" y="481" type="line"/>
      <point x="578" y="481" type="line"/>
      <point x="503" y="263" type="line"/>
      <point x="623" y="263" type="line"/>
      <point x="604" y="209" type="line"/>
      <point x="484" y="209" type="line"/>
      <point x="412" y="0" type="line"/>
      <point x="355" y="0" type="line"/>
      <point x="427" y="209" type="line"/>
      <point x="194" y="209" type="line"/>
      <point x="122" y="0" type="line"/>
      <point x="65" y="0" type="line"/>
      <point x="137" y="209" type="line"/>
    </contour>
    <contour>
      <point x="213" y="263" type="line"/>
      <point x="446" y="263" type="line"/>
      <point x="520" y="481" type="line"/>
      <point x="288" y="481" type="line"/>
    </contour>
  </outline>
</glyph>
<glyph name="dollar" format="2">
  <advance width="623"/>
  <unicode hex="0024"/>
  <outline>
    <contour>
      <point x="81" y="129" type="line"/>
      <point x="98" y="113"/>
      <point x="148" y="91"/>
      <point x="204" y="77"/>
      <point x="261" y="72"/>
      <point x="283" y="72" type="qcurve" smooth="yes"/>
      <point x="325" y="72"/>
      <point x="411" y="87"/>
      <point x="480" y="125"/>
      <point x="524" y="192"/>
      <point x="524" y="243" type="qcurve" smooth="yes"/>
      <point x="524" y="261"/>
      <point x="514" y="298"/>
      <point x="494" y="330"/>
      <point x="465" y="353"/>
      <point x="446" y="357" type="qcurve" smooth="yes"/>
      <point x="243" y="406" type="line" smooth="yes"/>
      <point x="210" y="414"/>
      <point x="145" y="439"/>
      <point x="95" y="480"/>
      <point x="64" y="537"/>
      <point x="64" y="577" type="qcurve" smooth="yes"/>
      <point x="64" y="622"/>
      <point x="103" y="688"/>
      <point x="165" y="732"/>
      <point x="244" y="757"/>
      <point x="283" y="760" type="qcurve"/>
      <point x="283" y="838" type="line"/>
      <point x="337" y="838" type="line"/>
      <point x="337" y="761" type="line"/>
      <point x="362" y="760"/>
      <point x="421" y="755"/>
      <point x="479" y="742"/>
      <point x="532" y="719"/>
      <point x="550" y="701" type="qcurve"/>
      <point x="512" y="663" type="line"/>
      <point x="498" y="677"/>
      <point x="446" y="695"/>
      <point x="387" y="705"/>
      <point x="330" y="709"/>
      <point x="310" y="709" type="qcurve" smooth="yes"/>
      <point x="278" y="709"/>
      <point x="210" y="696"/>
      <point x="153" y="665"/>
      <point x="117" y="614"/>
      <point x="117" y="575" type="qcurve" smooth="yes"/>
      <point x="117" y="547"/>
      <point x="143" y="508"/>
      <point x="184" y="481"/>
      <point x="233" y="465"/>
      <point x="255" y="459" type="qcurve" smooth="yes"/>
      <point x="460" y="409" type="line" smooth="yes"/>
      <point x="487" y="402"/>
      <point x="531" y="368"/>
      <point x="561" y="322"/>
      <point x="577" y="269"/>
      <point x="577" y="242" type="qcurve" smooth="yes"/>
      <point x="577" y="190"/>
      <point x="538" y="110"/>
      <point x="472" y="55"/>
      <point x="385" y="24"/>
      <point x="337" y="20" type="qcurve"/>
      <point x="337" y="-63" type="line"/>
      <point x="283" y="-63" type="line"/>
      <point x="283" y="19" type="line"/>
      <point x="252" y="20"/>
      <point x="186" y="25"/>
      <point x="123" y="40"/>
      <point x="65" y="68"/>
      <point x="42" y="91" type="qcurve"/>
    </contour>
  </outline>
</glyph>
<glyph name="percent" format="2">
  <advance width="349"/>
  <unicode hex="0025"/>
  <outline>
    <contour>
      <point x="11" y="461" type="qcurve" smooth="yes"/>
      <point x="11" y="490"/>
      <point x="53" y="533"/>
      <point x="82" y="533" type="qcurve" smooth="yes"/>
      <point x="112" y="533"/>
      <point x="155" y="491"/>
      <point x="155" y="461" type="qcurve" smooth="yes"/>
      <point x="155" y="431"/>
      <point x="112" y="389"/>
      <point x="82" y="389" type="qcurve" smooth="yes"/>
      <point x="52" y="389"/>
      <point x="11" y="431"/>
    </contour>
    <contour>
      <point x="33" y="87" type="line"/>
      <point x="273" y="614" type="line"/>
      <point x="316" y="595" type="line"/>
      <point x="77" y="67" type="line"/>
    </contour>
    <contour>
      <point x="195" y="221" type="qcurve" smooth="yes"/>
      <point x="195" y="250"/>
      <point x="237" y="293"/>
      <point x="266" y="293" type="qcurve" smooth="yes"/>
      <point x="296" y="293"/>
      <point x="339" y="251"/>
      <point x="339" y="221" type="qcurve" smooth="yes"/>
      <point x="339" y="191"/>
      <point x="296" y="149"/>
      <point x="266" y="149" type="qcurve" smooth="yes"/>
      <point x="236" y="149"/>
      <point x="195" y="191"/>
    </contour>
    <contour>
      <point x="267" y="197" type="qcurve" smooth="yes"/>
      <point x="277" y="197"/>
      <point x="290" y="212"/>
      <point x="290" y="222" type="qcurve" smooth="yes"/>
      <point x="290" y="232"/>
      <point x="275" y="245"/>
      <point x="265" y="245" type="qcurve" smooth="yes"/>
      <point x="255" y="245"/>
      <point x="242" y="230"/>
      <point x="242" y="220" type="qcurve" smooth="yes"/>
      <point x="242" y="210"/>
      <point x="257" y="197"/>
    </contour>
    <contour>
      <point x="83" y="437" type="qcurve" smooth="yes"/>
      <point x="93" y="437"/>
      <point x="106" y="452"/>
      <point x="106" y="462" type="qcurve" smooth="yes"/>
      <point x="106" y="472"/>
      <point x="91" y="485"/>
      <point x="81" y="485" type="qcurve" smooth="yes"/>
      <point x="71" y="485"/>
      <point x="58" y="470"/>
      <point x="58" y="460" type="qcurve" smooth="yes"/>
      <point x="58" y="450"/>
      <point x="73" y="437"/>
    </contour>
  </outline>
</glyph>
<glyph name="ampersand" format="2">
  <advance width="696"/>
  <unicode hex="0026"/>
  <outline>
    <contour>
      <point x="592" y="19" type="line"/>
      <point x="543" y="77" type="line"/>
      <point x="501" y="32"/>
      <point x="387" y="-7"/>
      <point x="327" y="-7" type="qcurve" smooth="yes"/>
      <point x="281" y="-7"/>
      <point x="194" y="16"/>
      <point x="127" y="64"/>
      <point x="87" y="138"/>
      <point x="87" y="189" type="qcurve" smooth="yes"/>
      <point x="87" y="227"/>
      <point x="113" y="297"/>
      <point x="157" y="359"/>
      <point x="213" y="411"/>
      <point x="243" y="431" type="qcurve"/>
      <point x="224" y="454"/>
      <point x="186" y="495"/>
      <point x="155" y="538"/>
      <point x="136" y="587"/>
      <point x="136" y="618" type="qcurve" smooth="yes"/>
      <point x="136" y="654"/>
      <point x="162" y="717"/>
      <point x="209" y="763"/>
      <point x="271" y="790"/>
      <point x="307" y="790" type="qcurve" smooth="yes"/>
      <point x="344" y="790"/>
      <point x="408" y="764"/>
      <point x="455" y="718"/>
      <point x="482" y="655"/>
      <point x="482" y="618" type="qcurve" smooth="yes"/>
      <point x="482" y="581"/>
      <point x="451" y="524"/>
      <point x="404" y="479"/>
      <point x="348" y="440"/>
      <point x="322" y="421" type="qcurve"/>
      <point x="537" y="167" type="line"/>
      <point x="549" y="195"/>
      <point x="558" y="255"/>
      <point x="558" y="285" type="qcurve"/>
      <point x="612" y="285" type="line"/>
      <point x="612" y="243"/>
      <point x="596" y="160"/>
      <point x="575" y="122" type="qcurve"/>
      <point x="663" y="20" type="line"/>
    </contour>
    <contour>
      <point x="287" y="462" type="line"/>
      <point x="307" y="476"/>
      <point x="355" y="508"/>
      <point x="398" y="546"/>
      <point x="427" y="591"/>
      <point x="427" y="619" type="qcurve" smooth="yes"/>
      <point x="427" y="643"/>
      <point x="409" y="685"/>
      <point x="377" y="718"/>
      <point x="335" y="737"/>
      <point x="311" y="737" type="qcurve" smooth="yes"/>
      <point x="286" y="737"/>
      <point x="242" y="717"/>
      <point x="209" y="684"/>
      <point x="191" y="640"/>
      <point x="191" y="615" type="qcurve" smooth="yes"/>
      <point x="191" y="598"/>
      <point x="202" y="563"/>
      <point x="213" y="550" type="qcurve" smooth="yes"/>
    </contour>
    <contour>
      <point x="322" y="47" type="qcurve" smooth="yes"/>
      <point x="375" y="47"/>
      <point x="470" y="81"/>
      <point x="508" y="118" type="qcurve"/>
      <point x="278" y="389" type="line"/>
      <point x="253" y="374"/>
      <point x="204" y="330"/>
      <point x="165" y="277"/>
      <point x="141" y="218"/>
      <point x="141" y="187" type="qcurve" smooth="yes"/>
      <point x="141" y="149"/>
      <point x="173" y="95"/>
      <point x="224" y="62"/>
      <point x="289" y="47"/>
    </contour>
  </outline>
</glyph>
<glyph name="quotesingle" format="2">
  <advance width="168"/>
  <unicode hex="0027"/>
  <outline>
    <contour>
      <point x="108" y="542" type="line"/>
      <point x="60" y="542" type="line"/>
      <point x="60" y="674" type="line"/>
      <point x="108" y="674" type="line"/>
    </contour>
  </outline>
</glyph>
<glyph name="parenleft" format="2">
  <advance width="447"/>
  <unicode hex="0028"/>
  <outline>
    <contour>
      <point x="328" y="-147" type="line"/>
      <point x="273" y="-111"/>
      <point x="193" y="6"/>
      <point x="141" y="142"/>
      <point x="117" y="285"/>
      <point x="117" y="348" type="qcurve" smooth="yes"/>
      <point x="117" y="411"/>
      <point x="141" y="555"/>
      <point x="192" y="691"/>
      <point x="272" y="809"/>
      <point x="328" y="846" type="qcurve"/>
      <point x="358" y="801" type="line"/>
      <point x="316" y="772"/>
      <point x="285" y="727" type="qcurve" smooth="yes"/>
      <point x="223" y="640"/>
      <point x="171" y="459"/>
      <point x="171" y="354" type="qcurve" smooth="yes"/>
      <point x="171" y="245"/>
      <point x="228" y="44"/>
      <point x="296" y="-44" type="qcurve" smooth="yes"/>
      <point x="322" y="-79"/>
      <point x="358" y="-103" type="qcurve"/>
    </contour>
  </outline>
</glyph>
<glyph name="parenright" format="2">
  <advance width="498"/>
  <unicode hex="0029"/>
  <outline>
    <contour>
      <point x="147" y="846" type="line"/>
      <point x="202" y="811"/>
      <point x="281" y="695"/>
      <point x="333" y="560"/>
      <point x="358" y="418"/>
      <point x="358" y="356" type="qcurve" smooth="yes"/>
      <point x="358" y="292"/>
      <point x="334" y="147"/>
      <point x="283" y="9"/>
      <point x="203" y="-110"/>
      <point x="147" y="-147" type="qcurve"/>
      <point x="117" y="-102" type="line"/>
      <point x="139" y="-87"/>
      <point x="175" y="-50"/>
      <point x="191" y="-28" type="qcurve" smooth="yes"/>
      <point x="252" y="59"/>
      <point x="304" y="240"/>
      <point x="304" y="345" type="qcurve" smooth="yes"/>
      <point x="304" y="454"/>
      <point x="247" y="655"/>
      <point x="180" y="743" type="qcurve" smooth="yes"/>
      <point x="152" y="779"/>
      <point x="117" y="802" type="qcurve"/>
    </contour>
  </outline>
</glyph>
<glyph name="asterisk" format="2">
  <advance width="452"/>
  <unicode hex="002A"/>
  <outline>
    <contour>
      <point x="403" y="574" type="line"/>
      <point x="268" y="530" type="line"/>
      <point x="351" y="415" type="line"/>
      <point x="308" y="383" type="line"/>
      <point x="224" y="499" type="line"/>
      <point x="140" y="383" type="line"/>
      <point x="96" y="415" type="line"/>
      <point x="180" y="530" type="line"/>
      <point x="45" y="574" type="line"/>
      <point x="61" y="626" type="line"/>
      <point x="197" y="582" type="line"/>
      <point x="197" y="724" type="line"/>
      <point x="251" y="724" type="line"/>
      <point x="251" y="582" type="line"/>
      <point x="387" y="626" type="line"/>
    </contour>
  </outline>
</glyph>
<glyph name="plus" format="2">
  <advance width="433"/>
  <unicode hex="002B"/>
  <outline>
    <contour>
      <point x="60" y="299" type="line"/>
      <point x="60" y="347" type="line"/>
      <point x="192" y="347" type="line"/>
      <point x="192" y="479" type="line"/>
      <point x="240" y="479" type="line"/>
      <point x="240" y="347" type="line"/>
      <point x="373" y="347" type="line"/>
      <point x="373" y="299" type="line"/>
      <point x="240" y="299" type="line"/>
      <point x="240" y="166" type="line"/>
      <point x="192" y="166" type="line"/>
      <point x="192" y="299" type="line"/>
    </contour>
  </outline>
</glyph>
<glyph name="comma" format="2">
  <advance width="193"/>
  <unicode hex="002C"/>
  <outline>
    <contour>
      <point x="94" y="83" type="line"/>
      <point x="121" y="55"/>
      <point x="141" y="-11"/>
      <point x="141" y="-49" type="qcurve" smooth="yes"/>
      <point x="141" y="-72"/>
      <point x="134" y="-119"/>
      <point x="131" y="-142" type="qcurve"/>
      <point x="78" y="-136" type="line"/>
      <point x="80" y="-114"/>
      <point x="87" y="-70"/>
      <point x="87" y="-48" type="qcurve" smooth="yes"/>
      <point x="87" y="-22"/>
      <point x="75" y="25"/>
      <point x="55" y="45" type="qcurve"/>
    </contour>
  </outline>
</glyph>
<glyph name="hyphen" format="2">
  <advance width="467"/>
  <unicode hex="002D"/>
  <outline>
    <contour>
      <point x="60" y="257" type="line"/>
      <point x="60" y="305" type="line"/>
      <point x="407" y="305" type="line"/>
      <point x="407" y="257" type="line"/>
    </contour>
  </outline>
</glyph>
<glyph name="period" format="2">
  <advance width="192"/>
  <unicode hex="002E"/>
  <outline>
    <contour>
      <point x="132" y="36" type="qcurve" smooth="yes"/>
      <point x="132" y="21"/>
      <point x="111" y="0"/>
      <point x="96" y="0" type="qcurve" smooth="yes"/>
      <point x="81" y="0"/>
      <point x="60" y="21"/>
      <point x="60" y="36" type="qcurve" smooth="yes"/>
      <point x="60" y="51"/>
      <point x="81" y="72"/>
      <point x="96" y="72" type="qcurve" smooth="yes"/>
      <point x="111" y="72"/>
      <point x="132" y="51"/>
    </contour>
  </outline>
</glyph>
<glyph name="slash" format="2">
  <advance width="376"/>
  <unicode hex="002F"/>
  <outline>
    <contour>
      <point x="297" y="783" type="line"/>
      <point x="354" y="783" type="line"/>
      <point x="85" y="0" type="line"/>
      <point x="28" y="0" type="line"/>
    </contour>
  </outline>
</glyph>
<glyph name="zero" format="2">
  <advance width="664"/>
  <unicode hex="0030"/>
  <outline>
    <contour>
      <point x="584" y="181" type="line" smooth="yes"/>
      <point x="584" y="130"/>
      <point x="536" y="58"/>
      <point x="462" y="12"/>
      <point x="371" y="-9"/>
      <point x="328" y="-9" type="qcurve" smooth="yes"/>
      <point x="285" y="-9"/>
      <point x="197" y="14"/>
      <point x="125" y="61"/>
      <point x="80" y="133"/>
      <point x="80" y="182" type="qcurve" smooth="yes"/>
      <point x="80" y="602" type="line" smooth="yes"/>
      <point x="80" y="651"/>
      <point x="125" y="723"/>
      <point x="195" y="771"/>
      <point x="283" y="794"/>
      <point x="325" y="794" type="qcurve" smooth="yes"/>
      <point x="368" y="794"/>
      <point x="460" y="772"/>
      <point x="535" y="726"/>
      <point x="584" y="653"/>
      <point x="584" y="602" type="qcurve" smooth="yes"/>
    </contour>
    <contour>
      <point x="331" y="44" type="qcurve" smooth="yes"/>
      <point x="364" y="44"/>
      <point x="434" y="57"/>
      <point x="493" y="88"/>
      <point x="530" y="142"/>
      <point x="530" y="182" type="qcurve" smooth="yes"/>
      <point x="530" y="602" type="line" smooth="yes"/>
      <point x="530" y="618"/>
      <point x="519" y="648"/>
      <point x="511" y="662" type="qcurve" smooth="yes"/>
      <point x="496" y="685"/>
      <point x="456" y="715"/>
      <point x="409" y="732"/>
      <point x="358" y="739"/>
      <point x="332" y="739" type="qcurve" smooth="yes"/>
      <point x="279" y="739"/>
      <point x="184" y="709"/>
      <point x="153" y="663" type="qcurve" smooth="yes"/>
      <point x="134" y="633"/>
      <point x="134" y="602" type="qcurve" smooth="yes"/>
      <point x="134" y="182" type="line" smooth="yes"/>
      <point x="134" y="144"/>
      <point x="172" y="92"/>
      <point x="231" y="59"/>
      <point x="300" y="44"/>
    </contour>
  </outline>
</glyph>
<glyph name="one" format="2">
  <advance width="333"/>
  <unicode hex="0031"/>
  <outline>
    <contour>
      <point x="199" y="700" type="line"/>
      <point x="165" y="667"/>
      <point x="83" y="644"/>
      <point x="37" y="644" type="qcurve"/>
      <point x="37" y="698" type="line"/>
      <point x="62" y="698"/>
      <point x="112" y="705"/>
      <point x="156" y="724"/>
      <point x="190" y="757"/>
      <point x="199" y="783" type="qcurve"/>
      <point x="253" y="783" type="line"/>
      <point x="253" y="0" type="line"/>
      <point x="199" y="0" type="line"/>
    </contour>
  </outline>
</glyph>
<glyph name="two" format="2">
  <advance width="570"/>
  <unicode hex="0032"/>
  <outline>
    <contour>
      <point x="510" y="54" type="line"/>
      <point x="510" y="0" type="line"/>
      <point x="61" y="0" type="line"/>
      <point x="60" y="107" type="line"/>
      <point x="60" y="131"/>
      <point x="72" y="171"/>
      <point x="86" y="190" type="qcurve" smooth="yes"/>
      <point x="107" y="218"/>
      <point x="154" y="263"/>
      <point x="180" y="286" type="qcurve" smooth="yes"/>
      <point x="240" y="338"/>
      <point x="361" y="442"/>
      <point x="421" y="496" type="qcurve" smooth="yes"/>
      <point x="429" y="503"/>
      <point x="440" y="521"/>
      <point x="445" y="530" type="qcurve" smooth="yes"/>
      <point x="455" y="551"/>
      <point x="455" y="592"/>
      <point x="455" y="615" type="qcurve" smooth="yes"/>
      <point x="455" y="648"/>
      <point x="421" y="694"/>
      <point x="370" y="723"/>
      <point x="308" y="737"/>
      <point x="281" y="737" type="qcurve" smooth="yes"/>
      <point x="236" y="737"/>
      <point x="147" y="707"/>
      <point x="118" y="670" type="qcurve"/>
      <point x="76" y="704" type="line"/>
      <point x="114" y="751"/>
      <point x="224" y="791"/>
      <point x="283" y="791" type="qcurve" smooth="yes"/>
      <point x="314" y="791"/>
      <point x="377" y="778"/>
      <point x="433" y="751"/>
      <point x="479" y="710"/>
      <point x="494" y="681" type="qcurve" smooth="yes"/>
      <point x="508" y="653"/>
      <point x="509" y="600"/>
      <point x="509" y="570" type="qcurve" smooth="yes"/>
      <point x="509" y="555"/>
      <point x="502" y="523"/>
      <point x="488" y="493"/>
      <point x="469" y="466"/>
      <point x="458" y="456" type="qcurve" smooth="yes"/>
      <point x="216" y="246" type="line" smooth="yes"/>
      <point x="204" y="236"/>
      <point x="175" y="210"/>
      <point x="147" y="182"/>
      <point x="125" y="152"/>
      <point x="120" y="137" type="qcurve" smooth="yes"/>
      <point x="113" y="118"/>
      <point x="115" y="74"/>
      <point x="115" y="54" type="qcurve"/>
    </contour>
  </outline>
</glyph>
<glyph name="three" format="2">
  <advance width="562"/>
  <unicode hex="0033"/>
  <outline>
    <contour>
      <point x="502" y="181" type="line" smooth="yes"/>
      <point x="502" y="133"/>
      <point x="455" y="61"/>
      <point x="383" y="13"/>
      <point x="294" y="-10"/>
      <point x="252" y="-10" type="qcurve" smooth="yes"/>
      <point x="195" y="-10"/>
      <point x="87" y="22"/>
      <point x="40" y="54" type="qcurve"/>
      <point x="72" y="98" type="line"/>
      <point x="108" y="69"/>
      <point x="205" y="44"/>
      <point x="251" y="44" type="qcurve" smooth="yes"/>
      <point x="276" y="44"/>
      <point x="330" y="53"/>
      <point x="380" y="74"/>
      <point x="422" y="106"/>
      <point x="435" y="130" type="qcurve" smooth="yes"/>
      <point x="448" y="153"/>
      <point x="448" y="202"/>
      <point x="448" y="228" type="qcurve" smooth="yes"/>
      <point x="448" y="244"/>
      <point x="438" y="274"/>
      <point x="430" y="287" type="qcurve" smooth="yes"/>
      <point x="411" y="318"/>
      <point x="357" y="350"/>
      <point x="296" y="364"/>
      <point x="229" y="365"/>
      <point x="197" y="365" type="qcurve"/>
      <point x="197" y="419" type="line"/>
      <point x="225" y="419"/>
      <point x="284" y="420"/>
      <point x="341" y="432"/>
      <point x="391" y="459"/>
      <point x="410" y="484" type="qcurve" smooth="yes"/>
      <point x="419" y="496"/>
      <point x="428" y="526"/>
      <point x="428" y="541" type="qcurve" smooth="yes"/>
      <point x="428" y="616" type="line" smooth="yes"/>
      <point x="428" y="649"/>
      <point x="394" y="695"/>
      <point x="342" y="724"/>
      <point x="281" y="738"/>
      <point x="254" y="738" type="qcurve" smooth="yes"/>
      <point x="209" y="738"/>
      <point x="120" y="708"/>
      <point x="91" y="671" type="qcurve"/>
      <point x="49" y="705" type="line"/>
      <point x="87" y="752"/>
      <point x="197" y="792"/>
      <point x="256" y="792" type="qcurve" smooth="yes"/>
      <point x="288" y="792"/>
      <point x="350" y="780"/>
      <point x="405" y="753"/>
      <point x="451" y="711"/>
      <point x="466" y="682" type="qcurve" smooth="yes"/>
      <point x="474" y="666"/>
      <point x="481" y="631"/>
      <point x="483" y="595"/>
      <point x="482" y="559"/>
      <point x="482" y="541" type="qcurve" smooth="yes"/>
      <point x="482" y="518"/>
      <point x="467" y="474"/>
      <point x="440" y="435"/>
      <point x="405" y="404"/>
      <point x="385" y="394" type="qcurve"/>
      <point x="409" y="383"/>
      <point x="451" y="349"/>
      <point x="483" y="305"/>
      <point x="502" y="255"/>
      <point x="502" y="228" type="qcurve" smooth="yes"/>
    </contour>
  </outline>
</glyph>
<glyph name="four" format="2">
  <advance width="609"/>
  <unicode hex="0034"/>
  <outline>
    <contour>
      <point x="434" y="782" type="line"/>
      <point x="476" y="782" type="line"/>
      <point x="476" y="199" type="line"/>
      <point x="549" y="199" type="line"/>
      <point x="549" y="145" type="line"/>
      <point x="476" y="145" type="line"/>
      <point x="476" y="0" type="line"/>
      <point x="424" y="0" type="line"/>
      <point x="424" y="145" type="line"/>
      <point x="40" y="145" type="line"/>
      <point x="40" y="187" type="line"/>
    </contour>
    <contour>
      <point x="101" y="199" type="line"/>
      <point x="424" y="199" type="line"/>
      <point x="424" y="679" type="line"/>
    </contour>
  </outline>
</glyph>
<glyph name="five" format="2">
  <advance width="596"/>
  <unicode hex="0035"/>
  <outline>
    <contour>
      <point x="516" y="181" type="line" smooth="yes"/>
      <point x="516" y="133"/>
      <point x="471" y="62"/>
      <point x="400" y="14"/>
      <point x="313" y="-9"/>
      <point x="271" y="-9" type="qcurve" smooth="yes"/>
      <point x="247" y="-9"/>
      <point x="191" y="0"/>
      <point x="134" y="15"/>
      <point x="80" y="37"/>
      <point x="60" y="50" type="qcurve"/>
      <point x="89" y="96" type="line"/>
      <point x="130" y="71"/>
      <point x="225" y="46"/>
      <point x="273" y="46" type="qcurve" smooth="yes"/>
      <point x="303" y="46"/>
      <point x="370" y="62"/>
      <point x="426" y="95"/>
      <point x="462" y="146"/>
      <point x="462" y="182" type="qcurve" smooth="yes"/>
      <point x="462" y="301" type="line" smooth="yes"/>
      <point x="462" y="332"/>
      <point x="444" y="361" type="qcurve" smooth="yes"/>
      <point x="429" y="384"/>
      <point x="389" y="414"/>
      <point x="342" y="431"/>
      <point x="290" y="438"/>
      <point x="264" y="438" type="qcurve" smooth="yes"/>
      <point x="249" y="438"/>
      <point x="210" y="435"/>
      <point x="173" y="425"/>
      <point x="143" y="406"/>
      <point x="136" y="390" type="qcurve"/>
      <point x="82" y="390" type="line"/>
      <point x="82" y="783" type="line"/>
      <point x="497" y="783" type="line"/>
      <point x="497" y="729" type="line"/>
      <point x="136" y="729" type="line"/>
      <point x="136" y="456" type="line"/>
      <point x="168" y="475"/>
      <point x="242" y="492"/>
      <point x="279" y="492" type="qcurve" smooth="yes"/>
      <point x="320" y="492"/>
      <point x="405" y="467"/>
      <point x="473" y="419"/>
      <point x="516" y="348"/>
      <point x="516" y="301" type="qcurve" smooth="yes"/>
    </contour>
  </outline>
</glyph>
<glyph name="six" format="2">
  <advance width="644"/>
  <unicode hex="0036"/>
  <outline>
    <contour>
      <point x="80" y="183" type="qcurve" smooth="yes"/>
      <point x="80" y="591" type="line" smooth="yes"/>
      <point x="80" y="622"/>
      <point x="92" y="652" type="qcurve" smooth="yes"/>
      <point x="109" y="693"/>
      <point x="164" y="747"/>
      <point x="233" y="779"/>
      <point x="313" y="792"/>
      <point x="353" y="792" type="qcurve" smooth="yes"/>
      <point x="384" y="792"/>
      <point x="446" y="782"/>
      <point x="503" y="759"/>
      <point x="554" y="724"/>
      <point x="573" y="698" type="qcurve"/>
      <point x="530" y="666" type="line"/>
      <point x="498" y="709"/>
      <point x="402" y="739"/>
      <point x="351" y="739" type="qcurve" smooth="yes"/>
      <point x="317" y="739"/>
      <point x="241" y="724"/>
      <point x="176" y="689"/>
      <point x="134" y="633"/>
      <point x="134" y="591" type="qcurve" smooth="yes"/>
      <point x="134" y="425" type="line"/>
      <point x="172" y="463"/>
      <point x="275" y="493"/>
      <point x="328" y="493" type="qcurve" smooth="yes"/>
      <point x="371" y="493"/>
      <point x="461" y="471"/>
      <point x="536" y="425"/>
      <point x="584" y="353"/>
      <point x="584" y="302" type="qcurve" smooth="yes"/>
      <point x="584" y="182" type="line" smooth="yes"/>
      <point x="584" y="133"/>
      <point x="538" y="61"/>
      <point x="465" y="14"/>
      <point x="377" y="-9"/>
      <point x="335" y="-9" type="qcurve" smooth="yes"/>
      <point x="292" y="-9"/>
      <point x="201" y="13"/>
      <point x="127" y="60"/>
      <point x="80" y="132"/>
    </contour>
    <contour>
      <point x="134" y="302" type="qcurve" smooth="yes"/>
      <point x="134" y="183" type="line" smooth="yes"/>
      <point x="134" y="146"/>
      <point x="172" y="94"/>
      <point x="230" y="61"/>
      <point x="298" y="46"/>
      <point x="329" y="46" type="qcurve" smooth="yes"/>
      <point x="359" y="46"/>
      <point x="429" y="61"/>
      <point x="490" y="94"/>
      <point x="530" y="146"/>
      <point x="530" y="183" type="qcurve" smooth="yes"/>
      <point x="530" y="302" type="line" smooth="yes"/>
      <point x="530" y="318"/>
      <point x="519" y="348"/>
      <point x="511" y="362" type="qcurve"/>
      <point x="495" y="385"/>
      <point x="455" y="415"/>
      <point x="409" y="432"/>
      <point x="358" y="439"/>
      <point x="332" y="439" type="qcurve" smooth="yes"/>
      <point x="278" y="439"/>
      <point x="186" y="409"/>
      <point x="154" y="363" type="qcurve" smooth="yes"/>
      <point x="134" y="335"/>
    </contour>
  </outline>
</glyph>
<glyph name="seven" format="2">
  <advance width="528"/>
  <unicode hex="0037"/>
  <outline>
    <contour>
      <point x="176" y="0" type="line"/>
      <point x="429" y="728" type="line"/>
      <point x="20" y="728" type="line"/>
      <point x="20" y="783" type="line"/>
      <point x="488" y="783" type="line"/>
      <point x="488" y="730" type="line"/>
      <point x="233" y="0" type="line"/>
    </contour>
  </outline>
</glyph>
<glyph name="eight" format="2">
  <advance width="624"/>
  <unicode hex="0038"/>
  <outline>
    <contour>
      <point x="564" y="181" type="line" smooth="yes"/>
      <point x="564" y="163"/>
      <point x="554" y="126"/>
      <point x="546" y="110" type="qcurve" smooth="yes"/>
      <point x="530" y="78"/>
      <point x="479" y="32"/>
      <point x="419" y="3"/>
      <point x="351" y="-10"/>
      <point x="317" y="-10" type="qcurve" smooth="yes"/>
      <point x="280" y="-10"/>
      <point x="209" y="3"/>
      <point x="146" y="33"/>
      <point x="95" y="82"/>
      <point x="78" y="117" type="qcurve" smooth="yes"/>
      <point x="71" y="131"/>
      <point x="60" y="167"/>
      <point x="60" y="183" type="qcurve" smooth="yes"/>
      <point x="60" y="229" type="line" smooth="yes"/>
      <point x="60" y="256"/>
      <point x="79" y="305"/>
      <point x="110" y="348"/>
      <point x="152" y="383"/>
      <point x="175" y="394" type="qcurve"/>
      <point x="138" y="414"/>
      <point x="99" y="460"/>
      <point x="82" y="516"/>
      <point x="80" y="580"/>
      <point x="80" y="617" type="qcurve" smooth="yes"/>
      <point x="80" y="662"/>
      <point x="122" y="729"/>
      <point x="187" y="772"/>
      <point x="268" y="794"/>
      <point x="307" y="794" type="qcurve" smooth="yes"/>
      <point x="346" y="794"/>
      <point x="430" y="774"/>
      <point x="499" y="731"/>
      <point x="544" y="665"/>
      <point x="544" y="618" type="qcurve" smooth="yes"/>
      <point x="544" y="538" type="line" smooth="yes"/>
      <point x="544" y="516"/>
      <point x="529" y="472"/>
      <point x="503" y="435"/>
      <point x="468" y="404"/>
      <point x="449" y="394" type="qcurve"/>
      <point x="472" y="383"/>
      <point x="514" y="349"/>
      <point x="546" y="306"/>
      <point x="564" y="257"/>
      <point x="564" y="230" type="qcurve" smooth="yes"/>
    </contour>
    <contour>
      <point x="291" y="417" type="qcurve" smooth="yes"/>
      <point x="333" y="417" type="line" smooth="yes"/>
      <point x="359" y="417"/>
      <point x="414" y="434"/>
      <point x="460" y="465"/>
      <point x="490" y="511"/>
      <point x="490" y="541" type="qcurve" smooth="yes"/>
      <point x="490" y="616" type="line" smooth="yes"/>
      <point x="490" y="650"/>
      <point x="456" y="697"/>
      <point x="404" y="726"/>
      <point x="342" y="739"/>
      <point x="314" y="739" type="qcurve" smooth="yes"/>
      <point x="286" y="739"/>
      <point x="222" y="727"/>
      <point x="169" y="698"/>
      <point x="134" y="651"/>
      <point x="134" y="616" type="qcurve" smooth="yes"/>
      <point x="134" y="541" type="line" smooth="yes"/>
      <point x="134" y="511"/>
      <point x="164" y="465"/>
      <point x="210" y="434"/>
      <point x="265" y="417"/>
    </contour>
    <contour>
      <point x="510" y="183" type="qcurve"/>
      <point x="510" y="229" type="line" smooth="yes"/>
      <point x="510" y="263"/>
      <point x="477" y="315"/>
      <point x="426" y="349"/>
      <point x="363" y="367"/>
      <point x="333" y="367" type="qcurve" smooth="yes"/>
      <point x="282" y="367" type="line" smooth="yes"/>
      <point x="254" y="367"/>
      <point x="194" y="347"/>
      <point x="145" y="311"/>
      <point x="114" y="260"/>
      <point x="114" y="229" type="qcurve" smooth="yes"/>
      <point x="114" y="183" type="line" smooth="yes"/>
      <point x="114" y="146"/>
      <point x="153" y="93"/>
      <point x="211" y="60"/>
      <point x="281" y="45"/>
      <point x="312" y="45" type="qcurve" smooth="yes"/>
      <point x="344" y="45"/>
      <point x="404" y="56"/>
      <point x="456" y="83"/>
      <point x="496" y="127"/>
      <point x="506" y="160" type="qcurve" smooth="yes"/>
      <point x="508" y="165"/>
      <point x="508" y="178"/>
    </contour>
  </outline>
</glyph>
<glyph name="nine" format="2">
  <advance width="644"/>
  <unicode hex="0039"/>
  <outline>
    <contour>
      <point x="60" y="601" type="line" smooth="yes"/>
      <point x="60" y="650"/>
      <point x="106" y="722"/>
      <point x="179" y="769"/>
      <point x="267" y="792"/>
      <point x="309" y="792" type="qcurve" smooth="yes"/>
      <point x="352" y="792"/>
      <point x="443" y="770"/>
      <point x="517" y="723"/>
      <point x="564" y="651"/>
      <point x="564" y="600" type="qcurve" smooth="yes"/>
      <point x="564" y="192" type="line" smooth="yes"/>
      <point x="564" y="161"/>
      <point x="552" y="132" type="qcurve" smooth="yes"/>
      <point x="536" y="91"/>
      <point x="480" y="36"/>
      <point x="411" y="4"/>
      <point x="332" y="-9"/>
      <point x="291" y="-9" type="qcurve" smooth="yes"/>
      <point x="260" y="-9"/>
      <point x="198" y="1"/>
      <point x="141" y="24"/>
      <point x="90" y="60"/>
      <point x="71" y="85" type="qcurve"/>
      <point x="114" y="117" type="line"/>
      <point x="129" y="96"/>
      <point x="171" y="67"/>
      <point x="218" y="51"/>
      <point x="269" y="44"/>
      <point x="294" y="44" type="qcurve" smooth="yes"/>
      <point x="327" y="44"/>
      <point x="403" y="60"/>
      <point x="468" y="95"/>
      <point x="510" y="152"/>
      <point x="510" y="192" type="qcurve" smooth="yes"/>
      <point x="510" y="358" type="line"/>
      <point x="472" y="320"/>
      <point x="369" y="290"/>
      <point x="316" y="290" type="qcurve" smooth="yes"/>
      <point x="273" y="290"/>
      <point x="183" y="312"/>
      <point x="108" y="358"/>
      <point x="60" y="430"/>
      <point x="60" y="481" type="qcurve" smooth="yes"/>
    </contour>
    <contour>
      <point x="312" y="344" type="qcurve" smooth="yes"/>
      <point x="365" y="344"/>
      <point x="459" y="375"/>
      <point x="491" y="421" type="qcurve" smooth="yes"/>
      <point x="510" y="448"/>
      <point x="510" y="481" type="qcurve" smooth="yes"/>
      <point x="510" y="600" type="line" smooth="yes"/>
      <point x="510" y="633"/>
      <point x="476" y="684"/>
      <point x="423" y="719"/>
      <point x="361" y="737"/>
      <point x="332" y="737" type="qcurve" smooth="yes"/>
      <point x="308" y="737"/>
      <point x="258" y="732"/>
      <point x="211" y="719"/>
      <point x="167" y="697"/>
      <point x="149" y="680" type="qcurve" smooth="yes"/>
      <point x="135" y="667"/>
      <point x="124" y="640"/>
      <point x="118" y="623" type="qcurve" smooth="yes"/>
      <point x="116" y="618"/>
      <point x="114" y="609"/>
      <point x="114" y="604" type="qcurve" smooth="yes"/>
      <point x="114" y="481" type="line" smooth="yes"/>
      <point x="114" y="465"/>
      <point x="125" y="435"/>
      <point x="134" y="421" type="qcurve" smooth="yes"/>
      <point x="149" y="398"/>
      <point x="189" y="368"/>
      <point x="235" y="351"/>
      <point x="286" y="344"/>
    </contour>
  </outline>
</glyph>
<glyph name="colon" format="2">
  <advance width="192"/>
  <unicode hex="003A"/>
  <outline>
    <contour>
      <point x="132" y="456" type="qcurve" smooth="yes"/>
      <point x="132" y="441"/>
      <point x="111" y="420"/>
      <point x="96" y="420" type="qcurve" smooth="yes"/>
      <point x="81" y="420"/>
      <point x="60" y="441"/>
      <point x="60" y="456" type="qcurve" smooth="yes"/>
      <point x="60" y="471"/>
      <point x="81" y="492"/>
      <point x="96" y="492" type="qcurve" smooth="yes"/>
      <point x="111" y="492"/>
      <point x="132" y="471"/>
    </contour>
    <contour>
      <point x="132" y="159" type="qcurve" smooth="yes"/>
      <point x="132" y="144"/>
      <point x="111" y="123"/>
      <point x="96" y="123" type="qcurve" smooth="yes"/>
      <point x="81" y="123"/>
      <point x="60" y="144"/>
      <point x="60" y="159" type="qcurve" smooth="yes"/>
      <point x="60" y="174"/>
      <point x="81" y="195"/>
      <point x="96" y="195" type="qcurve" smooth="yes"/>
      <point x="111" y="195"/>
      <point x="132" y="174"/>
    </contour>
  </outline>
</glyph>
<glyph name="semicolon" format="2">
  <advance width="193"/>
  <unicode hex="003B"/>
  <outline>
    <contour>
      <point x="93" y="237" type="line"/>
      <point x="120" y="209"/>
      <point x="140" y="143"/>
      <point x="140" y="105" type="qcurve" smooth="yes"/>
      <point x="140" y="82"/>
      <point x="133" y="35"/>
      <point x="130" y="12" type="qcurve"/>
      <point x="77" y="18" type="line"/>
      <point x="79" y="40"/>
      <point x="86" y="84"/>
      <point x="86" y="106" type="qcurve" smooth="yes"/>
      <point x="86" y="132"/>
      <point x="74" y="179"/>
      <point x="54" y="199" type="qcurve"/>
    </contour>
    <contour>
      <point x="132" y="456" type="qcurve" smooth="yes"/>
      <point x="132" y="441"/>
      <point x="111" y="420"/>
      <point x="96" y="420" type="qcurve" smooth="yes"/>
      <point x="81" y="420"/>
      <point x="60" y="441"/>
      <point x="60" y="456" type="qcurve" smooth="yes"/>
      <point x="60" y="471"/>
      <point x="81" y="492"/>
      <point x="96" y="492" type="qcurve" smooth="yes"/>
      <point x="111" y="492"/>
      <point x="132" y="471"/>
    </contour>
  </outline>
</glyph>
<glyph name="less" format="2">
  <advance width="375"/>
  <unicode hex="003C"/>
  <outline>
    <contour>
      <point x="60" y="319" type="line"/>
      <point x="281" y="540" type="line"/>
      <point x="315" y="506" type="line"/>
      <point x="128" y="319" type="line"/>
      <point x="315" y="131" type="line"/>
      <point x="281" y="97" type="line"/>
    </contour>
  </outline>
</glyph>
<glyph name="equal" format="2">
  <advance width="433"/>
  <unicode hex="003D"/>
  <outline>
    <contour>
      <point x="60" y="229" type="line"/>
      <point x="60" y="277" type="line"/>
      <point x="373" y="277" type="line"/>
      <point x="373" y="229" type="line"/>
    </contour>
    <contour>
      <point x="60" y="348" type="line"/>
      <point x="60" y="396" type="line"/>
      <point x="373" y="396" type="line"/>
      <point x="373" y="348" type="line"/>
    </contour>
  </outline>
</glyph>
<glyph name="greater" format="2">
  <advance width="375"/>
  <unicode hex="003E"/>
  <outline>
    <contour>
      <point x="315" y="319" type="line"/>
      <point x="94" y="97" type="line"/>
      <point x="60" y="131" type="line"/>
      <point x="247" y="319" type="line"/>
      <point x="60" y="506" type="line"/>
      <point x="94" y="540" type="line"/>
    </contour>
  </outline>
</glyph>
<glyph name="question" format="2">
  <advance width="472"/>
  <unicode hex="003F"/>
  <outline>
    <contour>
      <point x="20" y="582" type="line"/>
      <point x="20" y="624"/>
      <point x="52" y="699"/>
      <point x="107" y="755"/>
      <point x="182" y="787"/>
      <point x="224" y="787" type="qcurve" smooth="yes"/>
      <point x="267" y="787"/>
      <point x="342" y="755"/>
      <point x="397" y="700"/>
      <point x="429" y="625"/>
      <point x="429" y="582" type="qcurve" smooth="yes"/>
      <point x="429" y="543"/>
      <point x="396" y="467"/>
      <point x="370" y="439" type="qcurve" smooth="yes"/>
      <point x="352" y="420"/>
      <point x="321" y="395"/>
      <point x="295" y="369"/>
      <point x="272" y="337"/>
      <point x="263" y="311" type="qcurve" smooth="yes"/>
      <point x="249" y="271"/>
      <point x="252" y="184"/>
      <point x="252" y="142" type="qcurve"/>
      <point x="198" y="142" type="line"/>
      <point x="198" y="251" type="line" smooth="yes"/>
      <point x="198" y="288"/>
      <point x="217" y="348"/>
      <point x="250" y="400"/>
      <point x="295" y="445"/>
      <point x="322" y="467" type="qcurve" smooth="yes"/>
      <point x="333" y="476"/>
      <point x="353" y="504"/>
      <point x="367" y="535"/>
      <point x="375" y="568"/>
      <point x="375" y="582" type="qcurve" smooth="yes"/>
      <point x="375" y="614"/>
      <point x="351" y="669"/>
      <point x="311" y="709"/>
      <point x="256" y="733"/>
      <point x="224" y="733" type="qcurve" smooth="yes"/>
      <point x="193" y="733"/>
      <point x="138" y="709"/>
      <point x="98" y="668"/>
      <point x="74" y="613"/>
      <point x="74" y="582" type="qcurve"/>
    </contour>
    <contour>
      <point x="187" y="74" type="line"/>
      <point x="261" y="74" type="line"/>
      <point x="261" y="0" type="line"/>
      <point x="187" y="0" type="line"/>
    </contour>
  </outline>
</glyph>
<glyph name="at" format="2">
  <advance width="956"/>
  <unicode hex="0040"/>
  <outline>
    <contour>
      <point x="481" y="671" type="qcurve" smooth="yes"/>
      <point x="566" y="671"/>
      <point x="709" y="608"/>
      <point x="813" y="498"/>
      <point x="871" y="352"/>
      <point x="871" y="268" type="qcurve" smooth="yes"/>
      <point x="871" y="233"/>
      <point x="856" y="166"/>
      <point x="821" y="115"/>
      <point x="766" y="84"/>
      <point x="726" y="84" type="qcurve" smooth="yes"/>
      <point x="699" y="84"/>
      <point x="647" y="99"/>
      <point x="625" y="116" type="qcurve"/>
      <point x="583" y="99"/>
      <point x="499" y="68"/>
      <point x="453" y="68" type="qcurve" smooth="yes"/>
      <point x="396" y="68"/>
      <point x="326" y="139"/>
      <point x="326" y="196" type="qcurve" smooth="yes"/>
      <point x="326" y="250"/>
      <point x="375" y="304"/>
      <point x="450" y="326"/>
      <point x="537" y="326"/>
      <point x="575" y="326" type="qcurve"/>
      <point x="575" y="379" type="line"/>
      <point x="574" y="379" type="line"/>
      <point x="573" y="396"/>
      <point x="554" y="417"/>
      <point x="526" y="429"/>
      <point x="494" y="434"/>
      <point x="481" y="434" type="qcurve" smooth="yes"/>
      <point x="471" y="434"/>
      <point x="442" y="433"/>
      <point x="412" y="429"/>
      <point x="386" y="421"/>
      <point x="379" y="414" type="qcurve"/>
      <point x="340" y="451" type="line"/>
      <point x="363" y="474"/>
      <point x="437" y="489"/>
      <point x="469" y="489" type="qcurve" smooth="yes"/>
      <point x="538" y="489"/>
      <point x="605" y="451"/>
      <point x="630" y="385"/>
      <point x="628" y="295"/>
      <point x="628" y="243" type="qcurve" smooth="yes"/>
      <point x="628" y="189"/>
      <point x="677" y="139"/>
      <point x="731" y="139" type="qcurve" smooth="yes"/>
      <point x="757" y="139"/>
      <point x="791" y="163"/>
      <point x="810" y="200"/>
      <point x="817" y="246"/>
      <point x="817" y="267" type="qcurve" smooth="yes"/>
      <point x="817" y="340"/>
      <point x="767" y="467"/>
      <point x="677" y="562"/>
      <point x="553" y="617"/>
      <point x="479" y="617" type="qcurve" smooth="yes"/>
      <point x="410" y="617"/>
      <point x="289" y="564"/>
      <point x="198" y="472"/>
      <point x="145" y="351"/>
      <point x="145" y="282" type="qcurve" smooth="yes"/>
      <point x="145" y="213"/>
      <point x="197" y="91"/>
      <point x="287" y="0"/>
      <point x="409" y="-53"/>
      <point x="478" y="-53" type="qcurve" smooth="yes"/>
      <point x="556" y="-53"/>
      <point x="629" y="-19" type="qcurve"/>
      <point x="653" y="-66" type="line"/>
      <point x="571" y="-107"/>
      <point x="480" y="-107" type="qcurve" smooth="yes"/>
      <point x="400" y="-107"/>
      <point x="259" y="-46"/>
      <point x="153" y="60"/>
      <point x="91" y="201"/>
      <point x="91" y="281" type="qcurve" smooth="yes"/>
      <point x="91" y="362"/>
      <point x="152" y="505"/>
      <point x="257" y="610"/>
      <point x="400" y="671"/>
    </contour>
    <contour>
      <point x="453" y="122" type="qcurve" smooth="yes"/>
      <point x="485" y="122"/>
      <point x="562" y="147"/>
      <point x="591" y="161" type="qcurve"/>
      <point x="578" y="187"/>
      <point x="575" y="243"/>
      <point x="575" y="272" type="qcurve"/>
      <point x="482" y="272" type="line" smooth="yes"/>
      <point x="463" y="272"/>
      <point x="427" y="265"/>
      <point x="398" y="247"/>
      <point x="380" y="218"/>
      <point x="380" y="196" type="qcurve" smooth="yes"/>
      <point x="380" y="163"/>
      <point x="420" y="122"/>
    </contour>
  </outline>
</glyph>
<glyph name="A" format="2">
  <advance width="679"/>
  <unicode hex="0041"/>
  <outline>
    <contour>
      <point x="32" y="0" type="line"/>
      <point x="310" y="783" type="line"/>
      <point x="368" y="783" type="line"/>
      <point x="647" y="0" type="line"/>
      <point x="590" y="0" type="line"/>
      <point x="484" y="297" type="line"/>
      <point x="195" y="297" type="line"/>
      <point x="89" y="0" type="line"/>
    </contour>
    <contour>
      <point x="214" y="351" type="line"/>
      <point x="464" y="351" type="line"/>
      <point x="339" y="713" type="line"/>
    </contour>
  </outline>
</glyph>
<glyph name="B" format="2">
  <advance width="649"/>
  <unicode hex="0042"/>
  <outline>
    <contour>
      <point x="410" y="783" type="line" smooth="yes"/>
      <point x="452" y="783"/>
      <point x="513" y="743"/>
      <point x="551" y="681"/>
      <point x="569" y="605"/>
      <point x="569" y="569" type="qcurve" smooth="yes"/>
      <point x="569" y="522"/>
      <point x="539" y="431"/>
      <point x="501" y="400" type="qcurve"/>
      <point x="528" y="386"/>
      <point x="564" y="343"/>
      <point x="587" y="292"/>
      <point x="596" y="235"/>
      <point x="596" y="206" type="qcurve" smooth="yes"/>
      <point x="596" y="170"/>
      <point x="577" y="97"/>
      <point x="538" y="38"/>
      <point x="478" y="0"/>
      <point x="437" y="0" type="qcurve" smooth="yes"/>
      <point x="92" y="0" type="line"/>
      <point x="92" y="783" type="line"/>
    </contour>
    <contour>
      <point x="436" y="53" type="line" smooth="yes"/>
      <point x="466" y="53"/>
      <point x="507" y="84"/>
      <point x="532" y="130"/>
      <point x="543" y="185"/>
      <point x="543" y="209" type="qcurve" smooth="yes"/>
      <point x="543" y="233"/>
      <point x="532" y="287"/>
      <point x="506" y="333"/>
      <point x="465" y="363"/>
      <point x="436" y="363" type="qcurve" smooth="yes"/>
      <point x="146" y="363" type="line"/>
      <point x="146" y="53" type="line"/>
    </contour>
    <contour>
      <point x="146" y="419" type="line"/>
      <point x="410" y="419" type="line" smooth="yes"/>
      <point x="439" y="419"/>
      <point x="479" y="450"/>
      <point x="504" y="496"/>
      <point x="515" y="550"/>
      <point x="515" y="574" type="qcurve" smooth="yes"/>
      <point x="515" y="598"/>
      <point x="504" y="652"/>
      <point x="479" y="699"/>
      <point x="438" y="729"/>
      <point x="409" y="729" type="qcurve" smooth="yes"/>
      <point x="146" y="729" type="line"/>
    </contour>
  </outline>
</glyph>
<glyph name="C" format="2">
  <advance width="638"/>
  <unicode hex="0043"/>
  <outline>
    <contour>
      <point x="332" y="44" type="qcurve" smooth="yes"/>
      <point x="360" y="44"/>
      <point x="422" y="51"/>
      <point x="480" y="70"/>
      <point x="530" y="104"/>
      <point x="546" y="130" type="qcurve"/>
      <point x="592" y="102" type="line"/>
      <point x="574" y="69"/>
      <point x="514" y="26"/>
      <point x="443" y="1"/>
      <point x="366" y="-10"/>
      <point x="332" y="-10" type="qcurve" smooth="yes"/>
      <point x="235" y="-10"/>
      <point x="120" y="55"/>
      <point x="60" y="165"/>
      <point x="42" y="311"/>
      <point x="42" y="391" type="qcurve" smooth="yes"/>
      <point x="42" y="471"/>
      <point x="60" y="617"/>
      <point x="120" y="728"/>
      <point x="235" y="793"/>
      <point x="332" y="793" type="qcurve" smooth="yes"/>
      <point x="367" y="793"/>
      <point x="443" y="782"/>
      <point x="513" y="756"/>
      <point x="573" y="713"/>
      <point x="592" y="681" type="qcurve"/>
      <point x="546" y="653" type="line"/>
      <point x="529" y="679"/>
      <point x="479" y="712"/>
      <point x="422" y="732"/>
      <point x="361" y="739"/>
      <point x="332" y="739" type="qcurve" smooth="yes"/>
      <point x="248" y="739"/>
      <point x="153" y="680"/>
      <point x="107" y="583"/>
      <point x="96" y="458"/>
      <point x="96" y="391" type="qcurve" smooth="yes"/>
      <point x="96" y="324"/>
      <point x="107" y="199"/>
      <point x="153" y="102"/>
      <point x="248" y="44"/>
    </contour>
  </outline>
</glyph>
<glyph name="D" format="2">
  <advance width="654"/>
  <unicode hex="0044"/>
  <outline>
    <contour>
      <point x="302" y="783" type="line" smooth="yes"/>
      <point x="398" y="783"/>
      <point x="513" y="721"/>
      <point x="574" y="614"/>
      <point x="592" y="472"/>
      <point x="592" y="391" type="qcurve" smooth="yes"/>
      <point x="592" y="310"/>
      <point x="574" y="168"/>
      <point x="514" y="61"/>
      <point x="399" y="0"/>
      <point x="302" y="0" type="qcurve" smooth="yes"/>
      <point x="72" y="0" type="line"/>
      <point x="72" y="783" type="line"/>
    </contour>
    <contour>
      <point x="302" y="54" type="line" smooth="yes"/>
      <point x="386" y="54"/>
      <point x="481" y="108"/>
      <point x="527" y="201"/>
      <point x="538" y="323"/>
      <point x="538" y="391" type="qcurve" smooth="yes"/>
      <point x="538" y="459"/>
      <point x="527" y="581"/>
      <point x="480" y="674"/>
      <point x="386" y="729"/>
      <point x="302" y="729" type="qcurve" smooth="yes"/>
      <point x="126" y="729" type="line"/>
      <point x="126" y="54" type="line"/>
    </contour>
  </outline>
</glyph>
<glyph name="F" format="2">
  <advance width="622"/>
  <unicode hex="0046"/>
  <outline>
    <contour>
      <point x="92" y="783" type="line"/>
      <point x="570" y="783" type="line"/>
      <point x="570" y="729" type="line"/>
      <point x="146" y="729" type="line"/>
      <point x="146" y="419" type="line"/>
      <point x="536" y="419" type="line"/>
      <point x="536" y="365" type="line"/>
      <point x="146" y="365" type="line"/>
      <point x="146" y="0" type="line"/>
      <point x="92" y="0" type="line"/>
    </contour>
  </outline>
</glyph>
<glyph name="G" format="2">
  <advance width="675"/>
  <unicode hex="0047"/>
  <outline>
    <contour>
      <point x="631" y="401" type="line"/>
      <point x="631" y="320"/>
      <point x="615" y="171"/>
      <point x="556" y="57"/>
      <point x="440" y="-11"/>
      <point x="341" y="-11" type="qcurve" smooth="yes"/>
      <point x="244" y="-11"/>
      <point x="129" y="54"/>
      <point x="69" y="165"/>
      <point x="51" y="310"/>
      <point x="51" y="390" type="qcurve" smooth="yes"/>
      <point x="51" y="471"/>
      <point x="67" y="617"/>
      <point x="127" y="727"/>
      <point x="242" y="791"/>
      <point x="341" y="791" type="qcurve" smooth="yes"/>
      <point x="377" y="791"/>
      <point x="452" y="780"/>
      <point x="522" y="755"/>
      <point x="581" y="712"/>
      <point x="601" y="679" type="qcurve"/>
      <point x="555" y="651" type="line"/>
      <point x="540" y="677"/>
      <point x="490" y="710"/>
      <point x="431" y="730"/>
      <point x="368" y="737"/>
      <point x="341" y="737" type="qcurve" smooth="yes"/>
      <point x="257" y="737"/>
      <point x="162" y="683"/>
      <point x="116" y="591"/>
      <point x="105" y="469"/>
      <point x="105" y="401" type="qcurve" smooth="yes"/>
      <point x="105" y="333"/>
      <point x="114" y="204"/>
      <point x="159" y="104"/>
      <point x="255" y="43"/>
      <point x="341" y="43" type="qcurve" smooth="yes"/>
      <point x="416" y="43"/>
      <point x="508" y="90"/>
      <point x="558" y="172"/>
      <point x="575" y="283"/>
      <point x="576" y="347" type="qcurve"/>
      <point x="334" y="347" type="line"/>
      <point x="334" y="401" type="line"/>
    </contour>
  </outline>
</glyph>
<glyph name="H" format="2">
  <advance width="688"/>
  <unicode hex="0048"/>
  <outline>
    <contour>
      <point x="92" y="0" type="line"/>
      <point x="92" y="783" type="line"/>
      <point x="146" y="783" type="line"/>
      <point x="146" y="419" type="line"/>
      <point x="542" y="419" type="line"/>
      <point x="542" y="783" type="line"/>
      <point x="596" y="783" type="line"/>
      <point x="596" y="0" type="line"/>
      <point x="542" y="0" type="line"/>
      <point x="542" y="365" type="line"/>
      <point x="146" y="365" type="line"/>
      <point x="146" y="0" type="line"/>
    </contour>
  </outline>
</glyph>
<glyph name="J" format="2">
  <advance width="384"/>
  <unicode hex="004A"/>
  <outline>
    <contour>
      <point x="238" y="783" type="line"/>
      <point x="292" y="783" type="line"/>
      <point x="292" y="166" type="line" smooth="yes"/>
      <point x="292" y="122"/>
      <point x="256" y="57"/>
      <point x="198" y="15"/>
      <point x="122" y="-6"/>
      <point x="83" y="-6" type="qcurve" smooth="yes"/>
      <point x="59" y="-6"/>
      <point x="11" y="-1"/>
      <point x="-12" y="4" type="qcurve"/>
      <point x="2" y="57" type="line"/>
      <point x="22" y="55"/>
      <point x="63" y="48"/>
      <point x="84" y="48" type="qcurve" smooth="yes"/>
      <point x="115" y="48"/>
      <point x="171" y="62"/>
      <point x="213" y="93"/>
      <point x="238" y="141"/>
      <point x="238" y="175" type="qcurve" smooth="yes"/>
    </contour>
  </outline>
</glyph>
<glyph name="K" format="2">
  <advance width="654"/>
  <unicode hex="004B"/>
  <outline>
    <contour>
      <point x="146" y="783" type="line"/>
      <point x="146" y="385" type="line"/>
      <point x="545" y="783" type="line"/>
      <point x="622" y="783" type="line"/>
      <point x="284" y="446" type="line"/>
      <point x="617" y="0" type="line"/>
      <point x="549" y="0" type="line"/>
      <point x="246" y="408" type="line"/>
      <point x="146" y="309" type="line"/>
      <point x="146" y="0" type="line"/>
      <point x="92" y="0" type="line"/>
      <point x="92" y="783" type="line"/>
    </contour>
  </outline>
</glyph>
<glyph name="L" format="2">
  <advance width="602"/>
  <unicode hex="004C"/>
  <outline>
    <contour>
      <point x="146" y="783" type="line"/>
      <point x="146" y="54" type="line"/>
      <point x="570" y="54" type="line"/>
      <point x="570" y="0" type="line"/>
      <point x="92" y="0" type="line"/>
      <point x="92" y="783" type="line"/>
    </contour>
  </outline>
</glyph>
<glyph name="M" format="2">
  <advance width="796"/>
  <unicode hex="004D"/>
  <outline>
    <contour>
      <point x="92" y="783" type="line"/>
      <point x="148" y="783" type="line"/>
      <point x="398" y="79" type="line"/>
      <point x="648" y="783" type="line"/>
      <point x="704" y="783" type="line"/>
      <point x="704" y="0" type="line"/>
      <point x="650" y="0" type="line"/>
      <point x="650" y="629" type="line"/>
      <point x="423" y="0" type="line"/>
      <point x="373" y="0" type="line"/>
      <point x="146" y="629" type="line"/>
      <point x="146" y="0" type="line"/>
      <point x="92" y="0" type="line"/>
    </contour>
  </outline>
</glyph>
<glyph name="N" format="2">
  <advance width="688"/>
  <unicode hex="004E"/>
  <outline>
    <contour>
      <point x="150" y="782" type="line"/>
      <point x="542" y="100" type="line"/>
      <point x="542" y="782" type="line"/>
      <point x="596" y="782" type="line"/>
      <point x="596" y="0" type="line"/>
      <point x="537" y="0" type="line"/>
      <point x="146" y="681" type="line"/>
      <point x="146" y="0" type="line"/>
      <point x="92" y="0" type="line"/>
      <point x="92" y="782" type="line"/>
    </contour>
  </outline>
</glyph>
<glyph name="O" format="2">
  <advance width="715"/>
  <unicode hex="004F"/>
  <outline>
    <contour>
      <point x="357" y="-10" type="qcurve" smooth="yes"/>
      <point x="260" y="-10"/>
      <point x="145" y="55"/>
      <point x="85" y="165"/>
      <point x="67" y="311"/>
      <point x="67" y="391" type="qcurve" smooth="yes"/>
      <point x="67" y="471"/>
      <point x="85" y="616"/>
      <point x="145" y="727"/>
      <point x="260" y="793"/>
      <point x="357" y="793" type="qcurve" smooth="yes"/>
      <point x="454" y="793"/>
      <point x="569" y="727"/>
      <point x="629" y="616"/>
      <point x="647" y="471"/>
      <point x="647" y="391" type="qcurve" smooth="yes"/>
      <point x="647" y="311"/>
      <point x="629" y="165"/>
      <point x="569" y="55"/>
      <point x="454" y="-10"/>
    </contour>
    <contour>
      <point x="357" y="44" type="qcurve" smooth="yes"/>
      <point x="441" y="44"/>
      <point x="536" y="102"/>
      <point x="582" y="199"/>
      <point x="593" y="324"/>
      <point x="593" y="391" type="qcurve" smooth="yes"/>
      <point x="593" y="458"/>
      <point x="582" y="583"/>
      <point x="536" y="680"/>
      <point x="441" y="739"/>
      <point x="357" y="739" type="qcurve" smooth="yes"/>
      <point x="273" y="739"/>
      <point x="178" y="680"/>
      <point x="132" y="583"/>
      <point x="121" y="458"/>
      <point x="121" y="391" type="qcurve" smooth="yes"/>
      <point x="121" y="324"/>
      <point x="132" y="199"/>
      <point x="178" y="102"/>
      <point x="273" y="44"/>
    </contour>
  </outline>
</glyph>
<glyph name="P" format="2">
  <advance width="623"/>
  <unicode hex="0050"/>
  <outline>
    <contour>
      <point x="410" y="783" type="line" smooth="yes"/>
      <point x="451" y="783"/>
      <point x="512" y="744"/>
      <point x="551" y="684"/>
      <point x="570" y="610"/>
      <point x="570" y="574" type="qcurve" smooth="yes"/>
      <point x="570" y="539"/>
      <point x="551" y="465"/>
      <point x="512" y="404"/>
      <point x="451" y="365"/>
      <point x="410" y="365" type="qcurve" smooth="yes"/>
      <point x="146" y="365" type="line"/>
      <point x="146" y="0" type="line"/>
      <point x="92" y="0" type="line"/>
      <point x="92" y="783" type="line"/>
    </contour>
    <contour>
      <point x="410" y="419" type="line" smooth="yes"/>
      <point x="439" y="419"/>
      <point x="480" y="450"/>
      <point x="505" y="497"/>
      <point x="516" y="552"/>
      <point x="516" y="575" type="qcurve" smooth="yes"/>
      <point x="516" y="599"/>
      <point x="505" y="653"/>
      <point x="479" y="699"/>
      <point x="438" y="729"/>
      <point x="409" y="729" type="qcurve" smooth="yes"/>
      <point x="146" y="729" type="line"/>
      <point x="146" y="419" type="line"/>
    </contour>
  </outline>
</glyph>
<glyph name="Q" format="2">
  <advance width="715"/>
  <unicode hex="0051"/>
  <outline>
    <contour>
      <point x="67" y="391" type="qcurve" smooth="yes"/>
      <point x="67" y="471"/>
      <point x="85" y="616"/>
      <point x="145" y="727"/>
      <point x="260" y="793"/>
      <point x="357" y="793" type="qcurve" smooth="yes"/>
      <point x="454" y="793"/>
      <point x="569" y="727"/>
      <point x="629" y="616"/>
      <point x="647" y="471"/>
      <point x="647" y="391" type="qcurve" smooth="yes"/>
      <point x="647" y="349"/>
      <point x="643" y="257"/>
      <point x="625" y="167"/>
      <point x="589" y="85"/>
      <point x="556" y="55" type="qcurve"/>
      <point x="577" y="49"/>
      <point x="621" y="44"/>
      <point x="643" y="44" type="qcurve"/>
      <point x="642" y="39"/>
      <point x="643" y="30"/>
      <point x="643" y="25" type="qcurve" smooth="yes"/>
      <point x="643" y="-10" type="line"/>
      <point x="606" y="-10"/>
      <point x="534" y="2"/>
      <point x="500" y="17" type="qcurve"/>
      <point x="466" y="2"/>
      <point x="394" y="-10"/>
      <point x="357" y="-10" type="qcurve" smooth="yes"/>
      <point x="260" y="-10"/>
      <point x="145" y="55"/>
      <point x="85" y="166"/>
      <point x="67" y="311"/>
    </contour>
    <contour>
      <point x="121" y="391" type="qcurve" smooth="yes"/>
      <point x="121" y="324"/>
      <point x="132" y="199"/>
      <point x="178" y="102"/>
      <point x="273" y="44"/>
      <point x="357" y="44" type="qcurve" smooth="yes"/>
      <point x="379" y="44"/>
      <point x="423" y="49"/>
      <point x="444" y="55" type="qcurve"/>
      <point x="422" y="75"/>
      <point x="392" y="125"/>
      <point x="382" y="153" type="qcurve"/>
      <point x="431" y="176" type="line"/>
      <point x="441" y="147"/>
      <point x="474" y="97"/>
      <point x="500" y="80" type="qcurve"/>
      <point x="535" y="104"/>
      <point x="573" y="179"/>
      <point x="590" y="264"/>
      <point x="593" y="353"/>
      <point x="593" y="391" type="qcurve" smooth="yes"/>
      <point x="593" y="458"/>
      <point x="582" y="583"/>
      <point x="535" y="680"/>
      <point x="441" y="739"/>
      <point x="357" y="739" type="qcurve" smooth="yes"/>
      <point x="273" y="739"/>
      <point x="179" y="680"/>
      <point x="132" y="583"/>
      <point x="121" y="458"/>
    </contour>
  </outline>
</glyph>
<glyph name="R" format="2">
  <advance width="645"/>
  <unicode hex="0052"/>
  <outline>
    <contour>
      <point x="92" y="783" type="line"/>
      <point x="410" y="783" type="line" smooth="yes"/>
      <point x="451" y="783"/>
      <point x="512" y="744"/>
      <point x="551" y="682"/>
      <point x="570" y="607"/>
      <point x="570" y="572" type="qcurve" smooth="yes"/>
      <point x="570" y="545"/>
      <point x="560" y="490"/>
      <point x="538" y="439"/>
      <point x="503" y="398"/>
      <point x="477" y="384" type="qcurve"/>
      <point x="613" y="0" type="line"/>
      <point x="556" y="0" type="line"/>
      <point x="426" y="366" type="line"/>
      <point x="416" y="366" type="line" smooth="yes"/>
      <point x="348" y="366"/>
      <point x="214" y="365"/>
      <point x="146" y="365" type="qcurve"/>
      <point x="146" y="0" type="line"/>
      <point x="92" y="0" type="line"/>
    </contour>
    <contour>
      <point x="146" y="419" type="line"/>
      <point x="409" y="419" type="line" smooth="yes"/>
      <point x="438" y="419"/>
      <point x="479" y="449"/>
      <point x="504" y="496"/>
      <point x="515" y="550"/>
      <point x="515" y="574" type="qcurve" smooth="yes"/>
      <point x="515" y="598"/>
      <point x="504" y="652"/>
      <point x="479" y="699"/>
      <point x="438" y="729"/>
      <point x="409" y="729" type="qcurve" smooth="yes"/>
      <point x="146" y="729" type="line"/>
    </contour>
  </outline>
</glyph>
<glyph name="S" format="2">
  <advance width="654"/>
  <unicode hex="0053"/>
  <outline>
    <contour>
      <point x="582" y="230" type="qcurve" smooth="yes"/>
      <point x="582" y="174"/>
      <point x="541" y="85"/>
      <point x="470" y="24"/>
      <point x="375" y="-9"/>
      <point x="321" y="-9" type="qcurve" smooth="yes"/>
      <point x="289" y="-9"/>
      <point x="220" y="-4"/>
      <point x="154" y="13"/>
      <point x="94" y="44"/>
      <point x="72" y="70" type="qcurve"/>
      <point x="113" y="105" type="line"/>
      <point x="129" y="86"/>
      <point x="178" y="63"/>
      <point x="233" y="50"/>
      <point x="289" y="45"/>
      <point x="312" y="45" type="qcurve" smooth="yes"/>
      <point x="357" y="45"/>
      <point x="436" y="68"/>
      <point x="495" y="114"/>
      <point x="528" y="186"/>
      <point x="528" y="235" type="qcurve" smooth="yes"/>
      <point x="528" y="254"/>
      <point x="520" y="293"/>
      <point x="502" y="326"/>
      <point x="474" y="351"/>
      <point x="454" y="357" type="qcurve" smooth="yes"/>
      <point x="262" y="411" type="line" smooth="yes"/>
      <point x="228" y="420"/>
      <point x="167" y="450"/>
      <point x="120" y="493"/>
      <point x="93" y="553"/>
      <point x="93" y="592" type="qcurve" smooth="yes"/>
      <point x="93" y="644"/>
      <point x="133" y="719"/>
      <point x="201" y="768"/>
      <point x="288" y="791"/>
      <point x="335" y="791" type="qcurve" smooth="yes"/>
      <point x="361" y="791"/>
      <point x="423" y="786"/>
      <point x="485" y="772"/>
      <point x="539" y="746"/>
      <point x="556" y="725" type="qcurve"/>
      <point x="515" y="690" type="line"/>
      <point x="502" y="705"/>
      <point x="456" y="724"/>
      <point x="404" y="734"/>
      <point x="353" y="737"/>
      <point x="333" y="737" type="qcurve" smooth="yes"/>
      <point x="299" y="737"/>
      <point x="232" y="722"/>
      <point x="179" y="688"/>
      <point x="147" y="633"/>
      <point x="147" y="593" type="qcurve" smooth="yes"/>
      <point x="147" y="563"/>
      <point x="168" y="520"/>
      <point x="204" y="490"/>
      <point x="251" y="470"/>
      <point x="276" y="463" type="qcurve" smooth="yes"/>
      <point x="469" y="409" type="line" smooth="yes"/>
      <point x="497" y="401"/>
      <point x="539" y="363"/>
      <point x="568" y="313"/>
      <point x="582" y="257"/>
    </contour>
  </outline>
</glyph>
<glyph name="T" format="2">
  <advance width="554"/>
  <unicode hex="0054"/>
  <outline>
    <contour>
      <point x="52" y="729" type="line"/>
      <point x="52" y="783" type="line"/>
      <point x="502" y="783" type="line"/>
      <point x="502" y="729" type="line"/>
      <point x="304" y="729" type="line"/>
      <point x="304" y="0" type="line"/>
      <point x="250" y="0" type="line"/>
      <point x="250" y="729" type="line"/>
    </contour>
  </outline>
</glyph>
<glyph name="U" format="2">
  <advance width="715"/>
  <unicode hex="0055"/>
  <outline>
    <contour>
      <point x="146" y="783" type="line"/>
      <point x="146" y="192" type="line" smooth="yes"/>
      <point x="146" y="153"/>
      <point x="186" y="97"/>
      <point x="247" y="61"/>
      <point x="320" y="44"/>
      <point x="353" y="44" type="qcurve" smooth="yes"/>
      <point x="387" y="44"/>
      <point x="463" y="59"/>
      <point x="527" y="94"/>
      <point x="569" y="151"/>
      <point x="569" y="192" type="qcurve" smooth="yes"/>
      <point x="569" y="783" type="line"/>
      <point x="623" y="783" type="line"/>
      <point x="623" y="192" type="line" smooth="yes"/>
      <point x="623" y="172"/>
      <point x="613" y="135"/>
      <point x="605" y="118" type="qcurve" smooth="yes"/>
      <point x="588" y="82"/>
      <point x="535" y="33"/>
      <point x="471" y="3"/>
      <point x="398" y="-10"/>
      <point x="361" y="-10" type="qcurve" smooth="yes"/>
      <point x="316" y="-10"/>
      <point x="220" y="13"/>
      <point x="142" y="62"/>
      <point x="92" y="138"/>
      <point x="92" y="192" type="qcurve" smooth="yes"/>
      <point x="92" y="783" type="line"/>
    </contour>
  </outline>
</glyph>
<glyph name="V" format="2">
  <advance width="679"/>
  <unicode hex="0056"/>
  <outline>
    <contour>
      <point x="32" y="783" type="line"/>
      <point x="89" y="783" type="line"/>
      <point x="340" y="79" type="line"/>
      <point x="590" y="783" type="line"/>
      <point x="647" y="783" type="line"/>
      <point x="365" y="0" type="line"/>
      <point x="315" y="0" type="line"/>
    </contour>
  </outline>
</glyph>
<glyph name="W" format="2">
  <advance width="967"/>
  <unicode hex="0057"/>
  <outline>
    <contour>
      <point x="32" y="782" type="line"/>
      <point x="88" y="782" type="line"/>
      <point x="272" y="109" type="line"/>
      <point x="456" y="782" type="line"/>
      <point x="511" y="782" type="line"/>
      <point x="695" y="109" type="line"/>
      <point x="879" y="782" type="line"/>
      <point x="935" y="782" type="line"/>
      <point x="721" y="-1" type="line"/>
      <point x="669" y="-1" type="line"/>
      <point x="483" y="688" type="line"/>
      <point x="298" y="-1" type="line"/>
      <point x="246" y="-1" type="line"/>
    </contour>
  </outline>
</glyph>
<glyph name="X" format="2">
  <advance width="632"/>
  <unicode hex="0058"/>
  <outline>
    <contour>
      <point x="32" y="0" type="line"/>
      <point x="284" y="391" type="line"/>
      <point x="32" y="783" type="line"/>
      <point x="96" y="783" type="line"/>
      <point x="316" y="431" type="line"/>
      <point x="536" y="783" type="line"/>
      <point x="600" y="783" type="line"/>
      <point x="348" y="391" type="line"/>
      <point x="600" y="0" type="line"/>
      <point x="536" y="0" type="line"/>
      <point x="316" y="352" type="line"/>
      <point x="96" y="0" type="line"/>
    </contour>
  </outline>
</glyph>
<glyph name="Y" format="2">
  <advance width="633"/>
  <unicode hex="0059"/>
  <outline>
    <contour>
      <point x="32" y="783" type="line"/>
      <point x="96" y="783" type="line"/>
      <point x="315" y="432" type="line"/>
      <point x="536" y="783" type="line"/>
      <point x="601" y="783" type="line"/>
      <point x="342" y="384" type="line"/>
      <point x="342" y="0" type="line"/>
      <point x="288" y="0" type="line"/>
      <point x="288" y="384" type="line"/>
    </contour>
  </outline>
</glyph>
<glyph name="Z" format="2">
  <advance width="654"/>
  <unicode hex="005A"/>
  <outline>
    <contour>
      <point x="52" y="0" type="line"/>
      <point x="52" y="42" type="line"/>
      <point x="527" y="729" type="line"/>
      <point x="52" y="729" type="line"/>
      <point x="52" y="783" type="line"/>
      <point x="601" y="783" type="line"/>
      <point x="601" y="741" type="line"/>
      <point x="126" y="54" type="line"/>
      <point x="602" y="54" type="line"/>
      <point x="602" y="0" type="line"/>
    </contour>
  </outline>
</glyph>
<glyph name="bracketleft" format="2">
  <advance width="282"/>
  <unicode hex="005B"/>
  <outline>
    <contour>
      <point x="227" y="812" type="line"/>
      <point x="227" y="763" type="line"/>
      <point x="104" y="763" type="line"/>
      <point x="104" y="-42" type="line"/>
      <point x="228" y="-42" type="line"/>
      <point x="228" y="-91" type="line"/>
      <point x="50" y="-91" type="line"/>
      <point x="50" y="812" type="line"/>
    </contour>
  </outline>
</glyph>
<glyph name="backslash" format="2">
  <advance width="462"/>
  <unicode hex="005C"/>
  <outline>
    <contour>
      <point x="309" y="0" type="line"/>
      <point x="40" y="783" type="line"/>
      <point x="97" y="783" type="line"/>
      <point x="366" y="0" type="line"/>
    </contour>
  </outline>
</glyph>
<glyph name="bracketright" format="2">
  <advance width="282"/>
  <unicode hex="005D"/>
  <outline>
    <contour>
      <point x="51" y="812" type="line"/>
      <point x="228" y="812" type="line"/>
      <point x="228" y="-91" type="line"/>
      <point x="50" y="-91" type="line"/>
      <point x="50" y="-42" type="line"/>
      <point x="174" y="-42" type="line"/>
      <point x="174" y="763" type="line"/>
      <point x="51" y="763" type="line"/>
    </contour>
  </outline>
</glyph>
<glyph name="asciicircum" format="2">
  <advance width="487"/>
  <unicode hex="005E"/>
  <outline>
    <contour>
      <point x="243" y="446" type="line"/>
      <point x="465" y="225" type="line"/>
      <point x="431" y="191" type="line"/>
      <point x="243" y="378" type="line"/>
      <point x="56" y="191" type="line"/>
      <point x="22" y="225" type="line"/>
    </contour>
  </outline>
</glyph>
<glyph name="underscore" format="2">
  <advance width="465"/>
  <unicode hex="005F"/>
  <outline>
    <contour>
      <point x="12" y="-72" type="line"/>
      <point x="12" y="-24" type="line"/>
      <point x="453" y="-24" type="line"/>
      <point x="453" y="-72" type="line"/>
    </contour>
  </outline>
</glyph>
<glyph name="grave" format="2">
  <advance width="272"/>
  <unicode hex="0060"/>
  <outline>
    <contour>
      <point x="52" y="707" type="line"/>
      <point x="86" y="706"/>
      <point x="138" y="683"/>
      <point x="182" y="645"/>
      <point x="219" y="598"/>
      <point x="237" y="574" type="qcurve"/>
      <point x="196" y="541" type="line"/>
      <point x="183" y="558"/>
      <point x="152" y="597"/>
      <point x="117" y="631"/>
      <point x="76" y="653"/>
      <point x="51" y="653" type="qcurve"/>
    </contour>
  </outline>
</glyph>
<glyph name="a" format="2">
  <advance width="503"/>
  <unicode hex="0061"/>
  <outline>
    <contour>
      <point x="52" y="145" type="qcurve" smooth="yes"/>
      <point x="52" y="165"/>
      <point x="67" y="209"/>
      <point x="78" y="225" type="qcurve" smooth="yes"/>
      <point x="95" y="248"/>
      <point x="139" y="276"/>
      <point x="191" y="291"/>
      <point x="248" y="296"/>
      <point x="276" y="296" type="qcurve" smooth="yes"/>
      <point x="303" y="296"/>
      <point x="354" y="294"/>
      <point x="377" y="294" type="qcurve"/>
      <point x="377" y="391" type="line" smooth="yes"/>
      <point x="377" y="416"/>
      <point x="350" y="449"/>
      <point x="310" y="469"/>
      <point x="264" y="477"/>
      <point x="244" y="477" type="qcurve" smooth="yes"/>
      <point x="230" y="477"/>
      <point x="193" y="475"/>
      <point x="156" y="469"/>
      <point x="122" y="457"/>
      <point x="112" y="447" type="qcurve"/>
      <point x="74" y="485" type="line"/>
      <point x="88" y="499"/>
      <point x="130" y="517"/>
      <point x="176" y="527"/>
      <point x="223" y="531"/>
      <point x="242" y="531" type="qcurve" smooth="yes"/>
      <point x="274" y="531"/>
      <point x="341" y="516"/>
      <point x="396" y="482"/>
      <point x="431" y="430"/>
      <point x="431" y="392" type="qcurve" smooth="yes"/>
      <point x="431" y="0" type="line"/>
      <point x="387" y="0" type="line"/>
      <point x="378" y="29" type="line"/>
      <point x="341" y="12"/>
      <point x="249" y="-11"/>
      <point x="208" y="-11" type="qcurve" smooth="yes"/>
      <point x="134" y="-11"/>
      <point x="52" y="71"/>
    </contour>
    <contour>
      <point x="106" y="141" type="qcurve" smooth="yes"/>
      <point x="106" y="95"/>
      <point x="163" y="43"/>
      <point x="208" y="43" type="qcurve" smooth="yes"/>
      <point x="253" y="43"/>
      <point x="335" y="71"/>
      <point x="377" y="86" type="qcurve"/>
      <point x="377" y="240" type="line"/>
      <point x="245" y="240" type="line" smooth="yes"/>
      <point x="221" y="240"/>
      <point x="171" y="231"/>
      <point x="131" y="209"/>
      <point x="106" y="170"/>
    </contour>
  </outline>
</glyph>
<glyph name="b" format="2">
  <advance width="529"/>
  <unicode hex="0062"/>
  <outline>
    <contour>
      <point x="127" y="466" type="line"/>
      <point x="156" y="495"/>
      <point x="231" y="530"/>
      <point x="273" y="530" type="qcurve" smooth="yes"/>
      <point x="339" y="530"/>
      <point x="417" y="486"/>
      <point x="459" y="412"/>
      <point x="472" y="314"/>
      <point x="472" y="259" type="qcurve" smooth="yes"/>
      <point x="472" y="204"/>
      <point x="459" y="107"/>
      <point x="417" y="33"/>
      <point x="338" y="-10"/>
      <point x="272" y="-10" type="qcurve" smooth="yes"/>
      <point x="253" y="-10"/>
      <point x="212" y="-1"/>
      <point x="173" y="15"/>
      <point x="139" y="39"/>
      <point x="127" y="54" type="qcurve"/>
      <point x="117" y="0" type="line"/>
      <point x="73" y="0" type="line"/>
      <point x="73" y="710" type="line"/>
      <point x="127" y="710" type="line"/>
    </contour>
    <contour>
      <point x="273" y="44" type="qcurve" smooth="yes"/>
      <point x="326" y="44"/>
      <point x="384" y="80"/>
      <point x="412" y="140"/>
      <point x="418" y="217"/>
      <point x="418" y="259" type="qcurve" smooth="yes"/>
      <point x="418" y="301"/>
      <point x="412" y="379"/>
      <point x="384" y="439"/>
      <point x="326" y="476"/>
      <point x="273" y="476" type="qcurve" smooth="yes"/>
      <point x="221" y="476"/>
      <point x="162" y="440"/>
      <point x="133" y="379"/>
      <point x="127" y="301"/>
      <point x="127" y="259" type="qcurve" smooth="yes"/>
      <point x="127" y="217"/>
      <point x="133" y="139"/>
      <point x="162" y="80"/>
      <point x="221" y="44"/>
    </contour>
  </outline>
</glyph>
<glyph name="c" format="2">
  <advance width="493"/>
  <unicode hex="0063"/>
  <outline>
    <contour>
      <point x="257" y="44" type="qcurve" smooth="yes"/>
      <point x="274" y="44"/>
      <point x="316" y="50"/>
      <point x="356" y="64"/>
      <point x="390" y="87"/>
      <point x="398" y="103" type="qcurve"/>
      <point x="446" y="78" type="line"/>
      <point x="435" y="54"/>
      <point x="391" y="21"/>
      <point x="338" y="-1"/>
      <point x="281" y="-10"/>
      <point x="257" y="-10" type="qcurve" smooth="yes"/>
      <point x="191" y="-10"/>
      <point x="112" y="33"/>
      <point x="70" y="107"/>
      <point x="57" y="205"/>
      <point x="57" y="260" type="qcurve" smooth="yes"/>
      <point x="57" y="314"/>
      <point x="71" y="412"/>
      <point x="114" y="486"/>
      <point x="193" y="530"/>
      <point x="257" y="530" type="qcurve" smooth="yes"/>
      <point x="284" y="530"/>
      <point x="339" y="521"/>
      <point x="389" y="500"/>
      <point x="432" y="466"/>
      <point x="446" y="442" type="qcurve"/>
      <point x="398" y="417" type="line"/>
      <point x="390" y="433"/>
      <point x="356" y="455"/>
      <point x="315" y="469"/>
      <point x="273" y="476"/>
      <point x="257" y="476" type="qcurve" smooth="yes"/>
      <point x="205" y="476"/>
      <point x="147" y="439"/>
      <point x="118" y="379"/>
      <point x="111" y="301"/>
      <point x="111" y="260" type="qcurve" smooth="yes"/>
      <point x="111" y="218"/>
      <point x="117" y="140"/>
      <point x="146" y="80"/>
      <point x="205" y="44"/>
    </contour>
  </outline>
</glyph>
<glyph name="d" format="2">
  <advance width="529"/>
  <unicode hex="0064"/>
  <outline>
    <contour>
      <point x="455" y="710" type="line"/>
      <point x="455" y="0" type="line"/>
      <point x="411" y="0" type="line"/>
      <point x="401" y="54" type="line"/>
      <point x="389" y="39"/>
      <point x="355" y="15"/>
      <point x="316" y="-1"/>
      <point x="275" y="-10"/>
      <point x="256" y="-10" type="qcurve" smooth="yes"/>
      <point x="190" y="-10"/>
      <point x="111" y="33"/>
      <point x="69" y="107"/>
      <point x="56" y="204"/>
      <point x="56" y="259" type="qcurve" smooth="yes"/>
      <point x="56" y="314"/>
      <point x="69" y="412"/>
      <point x="111" y="486"/>
      <point x="189" y="530"/>
      <point x="255" y="530" type="qcurve" smooth="yes"/>
      <point x="297" y="530"/>
      <point x="372" y="495"/>
      <point x="401" y="466" type="qcurve"/>
      <point x="401" y="710" type="line"/>
    </contour>
    <contour>
      <point x="255" y="44" type="qcurve" smooth="yes"/>
      <point x="308" y="44"/>
      <point x="366" y="80"/>
      <point x="395" y="139"/>
      <point x="401" y="217"/>
      <point x="401" y="259" type="qcurve" smooth="yes"/>
      <point x="401" y="301"/>
      <point x="395" y="379"/>
      <point x="366" y="440"/>
      <point x="308" y="476"/>
      <point x="255" y="476" type="qcurve" smooth="yes"/>
      <point x="203" y="476"/>
      <point x="144" y="439"/>
      <point x="116" y="379"/>
      <point x="110" y="301"/>
      <point x="110" y="259" type="qcurve" smooth="yes"/>
      <point x="110" y="217"/>
      <point x="116" y="140"/>
      <point x="144" y="80"/>
      <point x="203" y="44"/>
    </contour>
  </outline>
</glyph>
<glyph name="e" format="2">
  <advance width="509"/>
  <unicode hex="0065"/>
  <outline>
    <contour>
      <point x="246" y="44" type="qcurve" smooth="yes"/>
      <point x="266" y="44"/>
      <point x="309" y="49"/>
      <point x="348" y="61"/>
      <point x="382" y="84"/>
      <point x="394" y="102" type="qcurve"/>
      <point x="442" y="77" type="line"/>
      <point x="430" y="53"/>
      <point x="387" y="20"/>
      <point x="334" y="-1"/>
      <point x="278" y="-10"/>
      <point x="253" y="-10" type="qcurve" smooth="yes"/>
      <point x="187" y="-10"/>
      <point x="108" y="32"/>
      <point x="66" y="105"/>
      <point x="53" y="203"/>
      <point x="53" y="258" type="qcurve" smooth="yes"/>
      <point x="53" y="312"/>
      <point x="67" y="411"/>
      <point x="109" y="486"/>
      <point x="188" y="530"/>
      <point x="253" y="530" type="qcurve" smooth="yes"/>
      <point x="325" y="530"/>
      <point x="405" y="479"/>
      <point x="444" y="395"/>
      <point x="452" y="288"/>
      <point x="452" y="231" type="qcurve"/>
      <point x="108" y="231" type="line"/>
      <point x="108" y="194"/>
      <point x="118" y="126"/>
      <point x="148" y="75"/>
      <point x="202" y="44"/>
    </contour>
    <contour>
      <point x="253" y="476" type="qcurve" smooth="yes"/>
      <point x="206" y="476"/>
      <point x="149" y="446"/>
      <point x="118" y="394"/>
      <point x="108" y="325"/>
      <point x="108" y="285" type="qcurve"/>
      <point x="398" y="285" type="line"/>
      <point x="398" y="325"/>
      <point x="388" y="394"/>
      <point x="357" y="446"/>
      <point x="300" y="476"/>
    </contour>
  </outline>
</glyph>
<glyph name="f" format="2">
  <advance width="298"/>
  <unicode hex="0066"/>
  <outline>
    <contour>
      <point x="59" y="457" type="line"/>
      <point x="103" y="457" type="line"/>
      <point x="103" y="596" type="line" smooth="yes"/>
      <point x="103" y="626"/>
      <point x="126" y="672"/>
      <point x="165" y="704"/>
      <point x="216" y="720"/>
      <point x="244" y="720" type="qcurve" smooth="yes"/>
      <point x="258" y="720"/>
      <point x="287" y="717"/>
      <point x="301" y="715" type="qcurve"/>
      <point x="291" y="662" type="line"/>
      <point x="279" y="664"/>
      <point x="256" y="666"/>
      <point x="244" y="666" type="qcurve" smooth="yes"/>
      <point x="205" y="666"/>
      <point x="157" y="631"/>
      <point x="157" y="589" type="qcurve" smooth="yes"/>
      <point x="157" y="457" type="line"/>
      <point x="271" y="457" type="line"/>
      <point x="271" y="403" type="line"/>
      <point x="157" y="403" type="line"/>
      <point x="157" y="0" type="line"/>
      <point x="103" y="0" type="line"/>
      <point x="103" y="403" type="line"/>
      <point x="59" y="403" type="line"/>
    </contour>
  </outline>
</glyph>
<glyph name="g" format="2">
  <advance width="509"/>
  <unicode hex="0067"/>
  <outline>
    <contour>
      <point x="252" y="-10" type="qcurve" smooth="yes"/>
      <point x="187" y="-10"/>
      <point x="108" y="34"/>
      <point x="66" y="108"/>
      <point x="53" y="207"/>
      <point x="53" y="261" type="qcurve" smooth="yes"/>
      <point x="53" y="316"/>
      <point x="66" y="414"/>
      <point x="108" y="487"/>
      <point x="187" y="530"/>
      <point x="253" y="530" type="qcurve" smooth="yes"/>
      <point x="272" y="530"/>
      <point x="313" y="521"/>
      <point x="352" y="505"/>
      <point x="386" y="481"/>
      <point x="398" y="466" type="qcurve"/>
      <point x="408" y="520" type="line"/>
      <point x="452" y="520" type="line"/>
      <point x="452" y="72" type="line" smooth="yes"/>
      <point x="452" y="17"/>
      <point x="439" y="-81"/>
      <point x="397" y="-156"/>
      <point x="319" y="-200"/>
      <point x="253" y="-200" type="qcurve" smooth="yes"/>
      <point x="226" y="-200"/>
      <point x="171" y="-191"/>
      <point x="121" y="-170"/>
      <point x="78" y="-136"/>
      <point x="64" y="-112" type="qcurve"/>
      <point x="112" y="-87" type="line"/>
      <point x="121" y="-104"/>
      <point x="154" y="-126"/>
      <point x="194" y="-140"/>
      <point x="236" y="-146"/>
      <point x="253" y="-146" type="qcurve" smooth="yes"/>
      <point x="301" y="-146"/>
      <point x="359" y="-114"/>
      <point x="389" y="-59"/>
      <point x="398" y="14"/>
      <point x="398" y="54" type="qcurve"/>
      <point x="369" y="25"/>
      <point x="294" y="-10"/>
    </contour>
    <contour>
      <point x="252" y="476" type="qcurve" smooth="yes"/>
      <point x="200" y="476"/>
      <point x="141" y="440"/>
      <point x="113" y="380"/>
      <point x="107" y="303"/>
      <point x="107" y="261" type="qcurve" smooth="yes"/>
      <point x="107" y="220"/>
      <point x="113" y="142"/>
      <point x="141" y="81"/>
      <point x="200" y="44"/>
      <point x="252" y="44" type="qcurve" smooth="yes"/>
      <point x="305" y="44"/>
      <point x="364" y="81"/>
      <point x="392" y="141"/>
      <point x="398" y="219"/>
      <point x="398" y="261" type="qcurve" smooth="yes"/>
      <point x="398" y="303"/>
      <point x="392" y="380"/>
      <point x="363" y="440"/>
      <point x="305" y="476"/>
    </contour>
  </outline>
</glyph>
<glyph name="h" format="2">
  <advance width="529"/>
  <unicode hex="0068"/>
  <outline>
    <contour>
      <point x="92" y="783" type="line"/>
      <point x="146" y="783" type="line"/>
      <point x="146" y="484" type="line"/>
      <point x="174" y="508"/>
      <point x="247" y="530"/>
      <point x="283" y="530" type="qcurve" smooth="yes"/>
      <point x="315" y="530"/>
      <point x="377" y="514"/>
      <point x="426" y="479"/>
      <point x="457" y="427"/>
      <point x="457" y="391" type="qcurve" smooth="yes"/>
      <point x="457" y="0" type="line"/>
      <point x="403" y="0" type="line"/>
      <point x="403" y="391" type="line" smooth="yes"/>
      <point x="403" y="415"/>
      <point x="378" y="449"/>
      <point x="340" y="470"/>
      <point x="295" y="480"/>
      <point x="275" y="480" type="qcurve" smooth="yes"/>
      <point x="255" y="480"/>
      <point x="210" y="470"/>
      <point x="171" y="449"/>
      <point x="146" y="415"/>
      <point x="146" y="391" type="qcurve" smooth="yes"/>
      <point x="146" y="0" type="line"/>
      <point x="92" y="0" type="line"/>
    </contour>
  </outline>
</glyph>
<glyph name="j" format="2">
  <advance width="277"/>
  <unicode hex="006A"/>
  <outline>
    <contour>
      <point x="17" y="-132" type="line"/>
      <point x="29" y="-134"/>
      <point x="52" y="-136"/>
      <point x="64" y="-136" type="qcurve" smooth="yes"/>
      <point x="103" y="-136"/>
      <point x="151" y="-101"/>
      <point x="151" y="-59" type="qcurve" smooth="yes"/>
      <point x="151" y="520" type="line"/>
      <point x="205" y="520" type="line"/>
      <point x="205" y="-66" type="line" smooth="yes"/>
      <point x="205" y="-96"/>
      <point x="182" y="-142"/>
      <point x="143" y="-174"/>
      <point x="92" y="-190"/>
      <point x="64" y="-190" type="qcurve" smooth="yes"/>
      <point x="50" y="-190"/>
      <point x="21" y="-187"/>
      <point x="7" y="-185" type="qcurve"/>
    </contour>
    <contour>
      <point x="151" y="630" type="line"/>
      <point x="151" y="709" type="line"/>
      <point x="205" y="709" type="line"/>
      <point x="205" y="630" type="line"/>
    </contour>
  </outline>
</glyph>
<glyph name="k" format="2">
  <advance width="498"/>
  <unicode hex="006B"/>
  <outline>
    <contour>
      <point x="92" y="0" type="line"/>
      <point x="92" y="783" type="line"/>
      <point x="146" y="783" type="line"/>
      <point x="146" y="278" type="line"/>
      <point x="390" y="520" type="line"/>
      <point x="466" y="520" type="line"/>
      <point x="241" y="297" type="line"/>
      <point x="462" y="0" type="line"/>
      <point x="395" y="0" type="line"/>
      <point x="202" y="258" type="line"/>
      <point x="146" y="202" type="line"/>
      <point x="146" y="0" type="line"/>
    </contour>
  </outline>
</glyph>
<glyph name="m" format="2">
  <advance width="680"/>
  <unicode hex="006D"/>
  <outline>
    <contour>
      <point x="72" y="0" type="line"/>
      <point x="72" y="520" type="line"/>
      <point x="116" y="520" type="line"/>
      <point x="126" y="486" type="line"/>
      <point x="149" y="506"/>
      <point x="203" y="531"/>
      <point x="234" y="531" type="qcurve" smooth="yes"/>
      <point x="298" y="531"/>
      <point x="340" y="483" type="qcurve"/>
      <point x="362" y="508"/>
      <point x="428" y="530"/>
      <point x="460" y="530" type="qcurve" smooth="yes"/>
      <point x="486" y="530"/>
      <point x="539" y="517"/>
      <point x="581" y="488"/>
      <point x="608" y="445"/>
      <point x="608" y="415" type="qcurve" smooth="yes"/>
      <point x="608" y="0" type="line"/>
      <point x="554" y="0" type="line"/>
      <point x="554" y="414" type="line" smooth="yes"/>
      <point x="554" y="431"/>
      <point x="535" y="456"/>
      <point x="507" y="471"/>
      <point x="473" y="478"/>
      <point x="459" y="478" type="qcurve" smooth="yes"/>
      <point x="445" y="478"/>
      <point x="412" y="471"/>
      <point x="384" y="456"/>
      <point x="365" y="431"/>
      <point x="365" y="414" type="qcurve" smooth="yes"/>
      <point x="365" y="0" type="line"/>
      <point x="315" y="0" type="line"/>
      <point x="315" y="414" type="line" smooth="yes"/>
      <point x="315" y="431"/>
      <point x="296" y="456"/>
      <point x="268" y="471"/>
      <point x="234" y="478"/>
      <point x="220" y="478" type="qcurve" smooth="yes"/>
      <point x="206" y="478"/>
      <point x="173" y="471"/>
      <point x="145" y="456"/>
      <point x="126" y="431"/>
      <point x="126" y="414" type="qcurve" smooth="yes"/>
      <point x="126" y="0" type="line"/>
    </contour>
  </outline>
</glyph>
<glyph name="n" format="2">
  <advance width="509"/>
  <unicode hex="006E"/>
  <outline>
    <contour>
      <point x="72" y="520" type="line"/>
      <point x="116" y="520" type="line"/>
      <point x="126" y="482" type="line"/>
      <point x="155" y="506"/>
      <point x="226" y="529"/>
      <point x="263" y="529" type="qcurve" smooth="yes"/>
      <point x="293" y="529"/>
      <point x="355" y="511"/>
      <point x="405" y="475"/>
      <point x="437" y="423"/>
      <point x="437" y="389" type="qcurve" smooth="yes"/>
      <point x="437" y="0" type="line"/>
      <point x="383" y="0" type="line"/>
      <point x="383" y="389" type="line" smooth="yes"/>
      <point x="383" y="413"/>
      <point x="358" y="447"/>
      <point x="320" y="468"/>
      <point x="275" y="478"/>
      <point x="255" y="478" type="qcurve" smooth="yes"/>
      <point x="235" y="478"/>
      <point x="190" y="468"/>
      <point x="151" y="447"/>
      <point x="126" y="413"/>
      <point x="126" y="389" type="qcurve" smooth="yes"/>
      <point x="126" y="1" type="line"/>
      <point x="72" y="1" type="line"/>
    </contour>
  </outline>
</glyph>
<glyph name="o" format="2">
  <advance width="509"/>
  <unicode hex="006F"/>
  <outline>
    <contour>
      <point x="253" y="530" type="qcurve" smooth="yes"/>
      <point x="319" y="530"/>
      <point x="398" y="486"/>
      <point x="440" y="411"/>
      <point x="453" y="313"/>
      <point x="453" y="258" type="qcurve" smooth="yes"/>
      <point x="453" y="204"/>
      <point x="440" y="105"/>
      <point x="398" y="31"/>
      <point x="319" y="-13"/>
      <point x="254" y="-13" type="qcurve" smooth="yes"/>
      <point x="188" y="-13"/>
      <point x="109" y="31"/>
      <point x="67" y="105"/>
      <point x="54" y="203"/>
      <point x="54" y="258" type="qcurve" smooth="yes"/>
      <point x="54" y="313"/>
      <point x="67" y="411"/>
      <point x="108" y="486"/>
      <point x="187" y="530"/>
    </contour>
    <contour>
      <point x="253" y="41" type="qcurve" smooth="yes"/>
      <point x="306" y="41"/>
      <point x="365" y="77"/>
      <point x="393" y="138"/>
      <point x="399" y="216"/>
      <point x="399" y="258" type="qcurve" smooth="yes"/>
      <point x="399" y="300"/>
      <point x="393" y="378"/>
      <point x="364" y="439"/>
      <point x="306" y="476"/>
      <point x="253" y="476" type="qcurve" smooth="yes"/>
      <point x="201" y="476"/>
      <point x="142" y="439"/>
      <point x="114" y="378"/>
      <point x="108" y="300"/>
      <point x="108" y="258" type="qcurve" smooth="yes"/>
      <point x="108" y="216"/>
      <point x="114" y="138"/>
      <point x="142" y="78"/>
      <point x="200" y="41"/>
    </contour>
  </outline>
</glyph>
<glyph name="p" format="2">
  <advance width="509"/>
  <unicode hex="0070"/>
  <outline>
    <contour>
      <point x="63" y="-190" type="line"/>
      <point x="63" y="520" type="line"/>
      <point x="107" y="520" type="line"/>
      <point x="117" y="466" type="line"/>
      <point x="129" y="481"/>
      <point x="163" y="505"/>
      <point x="202" y="521"/>
      <point x="243" y="530"/>
      <point x="262" y="530" type="qcurve" smooth="yes"/>
      <point x="328" y="530"/>
      <point x="407" y="487"/>
      <point x="449" y="414"/>
      <point x="462" y="316"/>
      <point x="462" y="261" type="qcurve" smooth="yes"/>
      <point x="462" y="206"/>
      <point x="449" y="108"/>
      <point x="407" y="34"/>
      <point x="329" y="-10"/>
      <point x="263" y="-10" type="qcurve" smooth="yes"/>
      <point x="221" y="-10"/>
      <point x="146" y="25"/>
      <point x="117" y="54" type="qcurve"/>
      <point x="117" y="-190" type="line"/>
    </contour>
    <contour>
      <point x="263" y="476" type="qcurve" smooth="yes"/>
      <point x="211" y="476"/>
      <point x="152" y="440"/>
      <point x="123" y="381"/>
      <point x="117" y="303"/>
      <point x="117" y="261" type="qcurve" smooth="yes"/>
      <point x="117" y="219"/>
      <point x="123" y="141"/>
      <point x="152" y="80"/>
      <point x="211" y="44"/>
      <point x="263" y="44" type="qcurve" smooth="yes"/>
      <point x="316" y="44"/>
      <point x="374" y="81"/>
      <point x="402" y="141"/>
      <point x="408" y="219"/>
      <point x="408" y="261" type="qcurve" smooth="yes"/>
      <point x="408" y="303"/>
      <point x="402" y="380"/>
      <point x="374" y="440"/>
      <point x="316" y="476"/>
    </contour>
  </outline>
</glyph>
<glyph name="q" format="2">
  <advance width="509"/>
  <unicode hex="0071"/>
  <outline>
    <contour>
      <point x="398" y="54" type="line"/>
      <point x="369" y="25"/>
      <point x="294" y="-10"/>
      <point x="252" y="-10" type="qcurve" smooth="yes"/>
      <point x="186" y="-10"/>
      <point x="108" y="34"/>
      <point x="66" y="108"/>
      <point x="53" y="206"/>
      <point x="53" y="261" type="qcurve" smooth="yes"/>
      <point x="53" y="316"/>
      <point x="66" y="414"/>
      <point x="108" y="487"/>
      <point x="187" y="530"/>
      <point x="253" y="530" type="qcurve" smooth="yes"/>
      <point x="272" y="530"/>
      <point x="313" y="521"/>
      <point x="352" y="505"/>
      <point x="386" y="481"/>
      <point x="398" y="466" type="qcurve"/>
      <point x="408" y="520" type="line"/>
      <point x="452" y="520" type="line"/>
      <point x="452" y="-190" type="line"/>
      <point x="398" y="-190" type="line"/>
    </contour>
    <contour>
      <point x="252" y="476" type="qcurve" smooth="yes"/>
      <point x="200" y="476"/>
      <point x="141" y="440"/>
      <point x="113" y="380"/>
      <point x="107" y="303"/>
      <point x="107" y="261" type="qcurve" smooth="yes"/>
      <point x="107" y="219"/>
      <point x="113" y="141"/>
      <point x="141" y="81"/>
      <point x="200" y="44"/>
      <point x="252" y="44" type="qcurve" smooth="yes"/>
      <point x="305" y="44"/>
      <point x="363" y="80"/>
      <point x="392" y="141"/>
      <point x="398" y="219"/>
      <point x="398" y="261" type="qcurve" smooth="yes"/>
      <point x="398" y="303"/>
      <point x="392" y="381"/>
      <point x="363" y="440"/>
      <point x="305" y="476"/>
    </contour>
  </outline>
</glyph>
<glyph name="r" format="2">
  <advance width="413"/>
  <unicode hex="0072"/>
  <outline>
    <contour>
      <point x="135" y="470" type="qcurve"/>
      <point x="163" y="503"/>
      <point x="241" y="526"/>
      <point x="283" y="526" type="qcurve" smooth="yes"/>
      <point x="310" y="526"/>
      <point x="364" y="517"/>
      <point x="389" y="504" type="qcurve"/>
      <point x="365" y="454" type="line"/>
      <point x="348" y="465"/>
      <point x="303" y="472"/>
      <point x="283" y="472" type="qcurve" smooth="yes"/>
      <point x="231" y="472"/>
      <point x="172" y="435"/>
      <point x="144" y="374"/>
      <point x="138" y="296"/>
      <point x="138" y="254" type="qcurve" smooth="yes"/>
      <point x="138" y="0" type="line"/>
      <point x="84" y="0" type="line"/>
      <point x="84" y="520" type="line"/>
      <point x="126" y="520" type="line"/>
      <point x="130" y="508"/>
      <point x="131" y="482"/>
    </contour>
  </outline>
</glyph>
<glyph name="s" format="2">
  <advance width="435"/>
  <unicode hex="0073"/>
  <outline>
    <contour>
      <point x="393" y="143" type="qcurve" smooth="yes"/>
      <point x="393" y="104"/>
      <point x="361" y="46"/>
      <point x="308" y="7"/>
      <point x="241" y="-13"/>
      <point x="206" y="-13" type="qcurve" smooth="yes"/>
      <point x="187" y="-13"/>
      <point x="140" y="-8"/>
      <point x="95" y="5"/>
      <point x="55" y="26"/>
      <point x="42" y="42" type="qcurve"/>
      <point x="83" y="77" type="line"/>
      <point x="93" y="65"/>
      <point x="124" y="51"/>
      <point x="158" y="44"/>
      <point x="193" y="41"/>
      <point x="207" y="41" type="qcurve" smooth="yes"/>
      <point x="230" y="41"/>
      <point x="277" y="52"/>
      <point x="315" y="76"/>
      <point x="340" y="114"/>
      <point x="340" y="140" type="qcurve" smooth="yes"/>
      <point x="340" y="152"/>
      <point x="336" y="177"/>
      <point x="326" y="199"/>
      <point x="310" y="216"/>
      <point x="297" y="219" type="qcurve" smooth="yes"/>
      <point x="172" y="254" type="line" smooth="yes"/>
      <point x="148" y="261"/>
      <point x="104" y="282"/>
      <point x="72" y="313"/>
      <point x="53" y="355"/>
      <point x="53" y="383" type="qcurve" smooth="yes"/>
      <point x="53" y="422"/>
      <point x="80" y="478"/>
      <point x="126" y="514"/>
      <point x="188" y="532"/>
      <point x="224" y="532" type="qcurve" smooth="yes"/>
      <point x="242" y="532"/>
      <point x="284" y="528"/>
      <point x="326" y="518"/>
      <point x="363" y="500"/>
      <point x="375" y="485" type="qcurve"/>
      <point x="334" y="450" type="line"/>
      <point x="326" y="459"/>
      <point x="297" y="470"/>
      <point x="265" y="476"/>
      <point x="233" y="478"/>
      <point x="221" y="478" type="qcurve" smooth="yes"/>
      <point x="197" y="478"/>
      <point x="156" y="468"/>
      <point x="125" y="446"/>
      <point x="107" y="409"/>
      <point x="107" y="383" type="qcurve" smooth="yes"/>
      <point x="107" y="347"/>
      <point x="154" y="314"/>
      <point x="185" y="306" type="qcurve" smooth="yes"/>
      <point x="313" y="270" type="line" smooth="yes"/>
      <point x="333" y="264"/>
      <point x="363" y="238"/>
      <point x="383" y="203"/>
      <point x="393" y="163"/>
    </contour>
  </outline>
</glyph>
<glyph name="t" format="2">
  <advance width="327"/>
  <unicode hex="0074"/>
  <outline>
    <contour>
      <point x="95" y="520" type="line"/>
      <point x="95" y="709" type="line"/>
      <point x="149" y="709" type="line"/>
      <point x="149" y="520" type="line"/>
      <point x="283" y="520" type="line"/>
      <point x="283" y="466" type="line"/>
      <point x="149" y="466" type="line"/>
      <point x="149" y="125" type="line" smooth="yes"/>
      <point x="149" y="83"/>
      <point x="197" y="48"/>
      <point x="236" y="48" type="qcurve" smooth="yes"/>
      <point x="248" y="48"/>
      <point x="271" y="50"/>
      <point x="283" y="52" type="qcurve"/>
      <point x="293" y="-1" type="line"/>
      <point x="279" y="-3"/>
      <point x="250" y="-6"/>
      <point x="236" y="-6" type="qcurve" smooth="yes"/>
      <point x="208" y="-6"/>
      <point x="157" y="10"/>
      <point x="118" y="42"/>
      <point x="95" y="88"/>
      <point x="95" y="118" type="qcurve" smooth="yes"/>
      <point x="95" y="466" type="line"/>
      <point x="52" y="466" type="line"/>
      <point x="52" y="520" type="line"/>
    </contour>
  </outline>
</glyph>
<glyph name="u" format="2">
  <advance width="509"/>
  <unicode hex="0075"/>
  <outline>
    <contour>
      <point x="126" y="520" type="line"/>
      <point x="126" y="131" type="line" smooth="yes"/>
      <point x="126" y="107"/>
      <point x="152" y="73"/>
      <point x="190" y="52"/>
      <point x="236" y="42"/>
      <point x="255" y="42" type="qcurve" smooth="yes"/>
      <point x="275" y="42"/>
      <point x="319" y="52"/>
      <point x="358" y="73"/>
      <point x="383" y="107"/>
      <point x="383" y="131" type="qcurve" smooth="yes"/>
      <point x="383" y="520" type="line"/>
      <point x="437" y="520" type="line"/>
      <point x="437" y="0" type="line"/>
      <point x="393" y="0" type="line"/>
      <point x="383" y="38" type="line"/>
      <point x="356" y="13"/>
      <point x="285" y="-10"/>
      <point x="248" y="-10" type="qcurve" smooth="yes"/>
      <point x="216" y="-10"/>
      <point x="153" y="7"/>
      <point x="103" y="42"/>
      <point x="72" y="95"/>
      <point x="72" y="131" type="qcurve" smooth="yes"/>
      <point x="72" y="520" type="line"/>
    </contour>
  </outline>
</glyph>
<glyph name="v" format="2">
  <advance width="510"/>
  <unicode hex="0076"/>
  <outline>
    <contour>
      <point x="42" y="520" type="line"/>
      <point x="99" y="520" type="line"/>
      <point x="255" y="79" type="line"/>
      <point x="411" y="520" type="line"/>
      <point x="468" y="520" type="line"/>
      <point x="280" y="0" type="line"/>
      <point x="229" y="0" type="line"/>
    </contour>
  </outline>
</glyph>
<glyph name="w" format="2">
  <advance width="722"/>
  <unicode hex="0077"/>
  <outline>
    <contour>
      <point x="42" y="520" type="line"/>
      <point x="97" y="520" type="line"/>
      <point x="215" y="95" type="line"/>
      <point x="332" y="520" type="line"/>
      <point x="389" y="520" type="line"/>
      <point x="507" y="95" type="line"/>
      <point x="624" y="520" type="line"/>
      <point x="680" y="520" type="line"/>
      <point x="532" y="0" type="line"/>
      <point x="480" y="0" type="line"/>
      <point x="361" y="432" type="line"/>
      <point x="241" y="0" type="line"/>
      <point x="189" y="0" type="line"/>
    </contour>
  </outline>
</glyph>
<glyph name="x" format="2">
  <advance width="518"/>
  <unicode hex="0078"/>
  <outline>
    <contour>
      <point x="226" y="261" type="line"/>
      <point x="42" y="521" type="line"/>
      <point x="109" y="521" type="line"/>
      <point x="259" y="298" type="line"/>
      <point x="409" y="521" type="line"/>
      <point x="475" y="521" type="line"/>
      <point x="292" y="261" type="line"/>
      <point x="476" y="0" type="line"/>
      <point x="411" y="0" type="line"/>
      <point x="259" y="224" type="line"/>
      <point x="108" y="0" type="line"/>
      <point x="42" y="0" type="line"/>
    </contour>
  </outline>
</glyph>
<glyph name="y" format="2">
  <advance width="490"/>
  <unicode hex="0079"/>
  <outline>
    <contour>
      <point x="22" y="520" type="line"/>
      <point x="79" y="520" type="line"/>
      <point x="235" y="78" type="line"/>
      <point x="391" y="520" type="line"/>
      <point x="448" y="520" type="line"/>
      <point x="192" y="-190" type="line"/>
      <point x="134" y="-190" type="line"/>
      <point x="206" y="8" type="line"/>
    </contour>
  </outline>
</glyph>
<glyph name="z" format="2">
  <advance width="450"/>
  <unicode hex="007A"/>
  <outline>
    <contour>
      <point x="393" y="458" type="line"/>
      <point x="113" y="54" type="line"/>
      <point x="398" y="54" type="line"/>
      <point x="398" y="0" type="line"/>
      <point x="52" y="0" type="line"/>
      <point x="52" y="60" type="line"/>
      <point x="333" y="466" type="line"/>
      <point x="57" y="466" type="line"/>
      <point x="57" y="520" type="line"/>
      <point x="393" y="520" type="line"/>
    </contour>
  </outline>
</glyph>
<glyph name="braceleft" format="2">
  <advance width="389"/>
  <unicode hex="007B"/>
  <outline>
    <contour>
      <point x="60" y="421" type="line"/>
      <point x="167" y="528" type="line"/>
      <point x="167" y="712" type="line"/>
      <point x="168" y="712" type="line"/>
      <point x="168" y="757"/>
      <point x="203" y="838"/>
      <point x="263" y="898"/>
      <point x="344" y="933"/>
      <point x="389" y="933" type="qcurve"/>
      <point x="389" y="885" type="line"/>
      <point x="353" y="885"/>
      <point x="290" y="858"/>
      <point x="243" y="811"/>
      <point x="216" y="748"/>
      <point x="216" y="712" type="qcurve"/>
      <point x="215" y="712" type="line"/>
      <point x="215" y="508" type="line"/>
      <point x="128" y="421" type="line"/>
      <point x="215" y="334" type="line"/>
      <point x="215" y="129" type="line"/>
      <point x="216" y="129" type="line"/>
      <point x="216" y="93"/>
      <point x="243" y="30"/>
      <point x="290" y="-17"/>
      <point x="353" y="-44"/>
      <point x="389" y="-44" type="qcurve"/>
      <point x="389" y="-92" type="line"/>
      <point x="344" y="-92"/>
      <point x="263" y="-57"/>
      <point x="203" y="3"/>
      <point x="168" y="84"/>
      <point x="168" y="129" type="qcurve"/>
      <point x="167" y="129" type="line"/>
      <point x="167" y="314" type="line"/>
    </contour>
  </outline>
</glyph>
<glyph name="bar" format="2">
  <advance width="168"/>
  <unicode hex="007C"/>
  <outline>
    <contour>
      <point x="108" y="-41" type="line"/>
      <point x="60" y="-41" type="line"/>
      <point x="60" y="885" type="line"/>
      <point x="108" y="885" type="line"/>
    </contour>
  </outline>
</glyph>
<glyph name="braceright" format="2">
  <advance width="389"/>
  <unicode hex="007D"/>
  <outline>
    <contour>
      <point x="0" y="-43" type="line"/>
      <point x="36" y="-43"/>
      <point x="99" y="-16"/>
      <point x="146" y="31"/>
      <point x="173" y="94"/>
      <point x="173" y="130" type="qcurve"/>
      <point x="174" y="130" type="line"/>
      <point x="174" y="334" type="line"/>
      <point x="261" y="421" type="line"/>
      <point x="174" y="508" type="line"/>
      <point x="174" y="713" type="line"/>
      <point x="173" y="713" type="line"/>
      <point x="173" y="749"/>
      <point x="146" y="812"/>
      <point x="99" y="859"/>
      <point x="36" y="886"/>
      <point x="0" y="886" type="qcurve"/>
      <point x="0" y="934" type="line"/>
      <point x="45" y="934"/>
      <point x="126" y="899"/>
      <point x="186" y="839"/>
      <point x="221" y="758"/>
      <point x="221" y="713" type="qcurve"/>
      <point x="222" y="713" type="line"/>
      <point x="222" y="528" type="line"/>
      <point x="329" y="421" type="line"/>
      <point x="222" y="313" type="line"/>
      <point x="222" y="130" type="line"/>
      <point x="221" y="130" type="line"/>
      <point x="221" y="84"/>
      <point x="186" y="3"/>
      <point x="126" y="-57"/>
      <point x="46" y="-92"/>
      <point x="0" y="-92" type="qcurve"/>
    </contour>
  </outline>
</glyph>
<glyph name="asciitilde" format="2">
  <advance width="533"/>
  <unicode hex="007E"/>
  <outline>
    <contour>
      <point x="166" y="351" type="qcurve" smooth="yes"/>
      <point x="194" y="351"/>
      <point x="233" y="336"/>
      <point x="263" y="315"/>
      <point x="288" y="289"/>
      <point x="315" y="268"/>
      <point x="346" y="253"/>
      <point x="367" y="253" type="qcurve" smooth="yes"/>
      <point x="409" y="253"/>
      <point x="465" y="309"/>
      <point x="465" y="351" type="qcurve"/>
      <point x="513" y="351" type="line"/>
      <point x="513" y="321"/>
      <point x="490" y="267"/>
      <point x="451" y="228"/>
      <point x="397" y="205"/>
      <point x="367" y="205" type="qcurve" smooth="yes"/>
      <point x="340" y="205"/>
      <point x="300" y="220"/>
      <point x="270" y="241"/>
      <point x="245" y="267"/>
      <point x="218" y="288"/>
      <point x="187" y="303"/>
      <point x="166" y="303" type="qcurve" smooth="yes"/>
      <point x="124" y="303"/>
      <point x="68" y="247"/>
      <point x="68" y="205" type="qcurve"/>
      <point x="20" y="205" type="line"/>
      <point x="20" y="235"/>
      <point x="43" y="289"/>
      <point x="82" y="328"/>
      <point x="136" y="351"/>
    </contour>
  </outline>
</glyph>
<glyph name="uni0080" format="2">
  <advance width="502"/>
  <unicode hex="0080"/>
  <unicode hex="20AC"/>
  <unicode hex="F700"/>
  <outline>
    <contour>
      <point x="452" y="0" type="line"/>
      <point x="398" y="0" type="line"/>
      <point x="398" y="180" type="line" smooth="yes"/>
      <point x="398" y="209"/>
      <point x="364" y="258"/>
      <point x="339" y="272" type="qcurve" smooth="yes"/>
      <point x="313" y="286"/>
      <point x="256" y="297"/>
      <point x="227" y="297" type="qcurve"/>
      <point x="227" y="351" type="line"/>
      <point x="274" y="351"/>
      <point x="363" y="327"/>
      <point x="398" y="295" type="qcurve"/>
      <point x="398" y="468" type="line" smooth="yes"/>
      <point x="398" y="502"/>
      <point x="362" y="547"/>
      <point x="308" y="574"/>
      <point x="245" y="585"/>
      <point x="218" y="585" type="qcurve" smooth="yes"/>
      <point x="202" y="585"/>
      <point x="158" y="583"/>
      <point x="114" y="575"/>
      <point x="74" y="560"/>
      <point x="62" y="548" type="qcurve"/>
      <point x="24" y="586" type="line"/>
      <point x="41" y="603"/>
      <point x="89" y="624"/>
      <point x="141" y="635"/>
      <point x="195" y="639"/>
      <point x="218" y="639" type="qcurve" smooth="yes"/>
      <point x="264" y="639"/>
      <point x="351" y="622"/>
      <point x="388" y="592" type="qcurve"/>
      <point x="394" y="603"/>
      <point x="398" y="627"/>
      <point x="398" y="639" type="qcurve"/>
      <point x="452" y="639" type="line"/>
      <point x="452" y="616"/>
      <point x="440" y="570"/>
      <point x="425" y="551" type="qcurve"/>
      <point x="437" y="533"/>
      <point x="452" y="491"/>
      <point x="452" y="468" type="qcurve" smooth="yes"/>
    </contour>
  </outline>
</glyph>
<glyph name="uni0081" format="2">
  <unicode hex="0081"/>
  <unicode hex="F701"/>
  <outline>
    <contour>
      <point x="-556" y="784" type="line"/>
      <point x="-160" y="784" type="line"/>
      <point x="-160" y="730" type="line"/>
      <point x="-556" y="730" type="line"/>
    </contour>
  </outline>
</glyph>
<glyph name="uni0082" format="2">
  <unicode hex="0082"/>
  <unicode hex="201A"/>
  <unicode hex="F702"/>
  <outline>
    <contour>
      <point x="-160" y="889" type="line"/>
      <point x="-160" y="829" type="line" smooth="yes"/>
      <point x="-160" y="808"/>
      <point x="-175" y="772"/>
      <point x="-202" y="745"/>
      <point x="-238" y="730"/>
      <point x="-259" y="730" type="qcurve" smooth="yes"/>
      <point x="-556" y="730" type="line"/>
      <point x="-556" y="784" type="line"/>
      <point x="-259" y="784" type="line" smooth="yes"/>
      <point x="-237" y="784"/>
      <point x="-218" y="806"/>
      <point x="-212" y="839"/>
      <point x="-214" y="875"/>
      <point x="-214" y="889" type="qcurve"/>
    </contour>
  </outline>
</glyph>
<glyph name="uni0083" format="2">
  <unicode hex="0083"/>
  <unicode hex="0192"/>
  <unicode hex="F703"/>
  <outline>
    <contour>
      <point x="-161" y="823" type="qcurve" smooth="yes"/>
      <point x="-161" y="805"/>
      <point x="-174" y="771"/>
      <point x="-198" y="745"/>
      <point x="-230" y="730"/>
      <point x="-249" y="730" type="qcurve" smooth="yes"/>
      <point x="-557" y="730" type="line"/>
      <point x="-557" y="784" type="line"/>
      <point x="-332" y="784" type="line"/>
      <point x="-339" y="799"/>
      <point x="-339" y="819" type="qcurve" smooth="yes"/>
      <point x="-339" y="837"/>
      <point x="-324" y="870"/>
      <point x="-298" y="895"/>
      <point x="-265" y="910"/>
      <point x="-247" y="910" type="qcurve" smooth="yes"/>
      <point x="-211" y="910"/>
      <point x="-161" y="859"/>
    </contour>
    <contour>
      <point x="-205" y="821" type="qcurve" smooth="yes"/>
      <point x="-205" y="839"/>
      <point x="-233" y="864"/>
      <point x="-250" y="864" type="qcurve" smooth="yes"/>
      <point x="-268" y="864"/>
      <point x="-293" y="838"/>
      <point x="-293" y="820" type="qcurve" smooth="yes"/>
      <point x="-293" y="800"/>
      <point x="-268" y="777"/>
      <point x="-249" y="777" type="qcurve" smooth="yes"/>
      <point x="-231" y="777"/>
      <point x="-205" y="803"/>
    </contour>
  </outline>
</glyph>
<glyph name="uni0084" format="2">
  <unicode hex="0084"/>
  <unicode hex="201E"/>
  <unicode hex="F704"/>
  <outline>
    <contour>
      <point x="-556" y="784" type="line"/>
      <point x="-370" y="784" type="line" smooth="yes"/>
      <point x="-348" y="784"/>
      <point x="-329" y="806"/>
      <point x="-323" y="839"/>
      <point x="-325" y="875"/>
      <point x="-325" y="889" type="qcurve"/>
      <point x="-273" y="889" type="line"/>
      <point x="-273" y="829" type="line" smooth="yes"/>
      <point x="-273" y="804"/>
      <point x="-283" y="784" type="qcurve"/>
      <point x="-259" y="784" type="line" smooth="yes"/>
      <point x="-237" y="784"/>
      <point x="-218" y="806"/>
      <point x="-212" y="839"/>
      <point x="-214" y="875"/>
      <point x="-214" y="889" type="qcurve"/>
      <point x="-160" y="889" type="line"/>
      <point x="-160" y="829" type="line" smooth="yes"/>
      <point x="-160" y="808"/>
      <point x="-175" y="772"/>
      <point x="-202" y="745"/>
      <point x="-238" y="730"/>
      <point x="-259" y="730" type="qcurve" smooth="yes"/>
      <point x="-556" y="730" type="line"/>
    </contour>
  </outline>
</glyph>
<glyph name="uni0085" format="2">
  <advance width="480"/>
  <unicode hex="0085"/>
  <unicode hex="2026"/>
  <outline>
    <contour>
      <point x="132" y="36" type="qcurve" smooth="yes"/>
      <point x="132" y="21"/>
      <point x="111" y="0"/>
      <point x="96" y="0" type="qcurve" smooth="yes"/>
      <point x="81" y="0"/>
      <point x="60" y="21"/>
      <point x="60" y="36" type="qcurve" smooth="yes"/>
      <point x="60" y="51"/>
      <point x="81" y="72"/>
      <point x="96" y="72" type="qcurve" smooth="yes"/>
      <point x="111" y="72"/>
      <point x="132" y="51"/>
    </contour>
    <contour>
      <point x="276" y="36" type="qcurve" smooth="yes"/>
      <point x="276" y="21"/>
      <point x="255" y="0"/>
      <point x="240" y="0" type="qcurve" smooth="yes"/>
      <point x="225" y="0"/>
      <point x="204" y="21"/>
      <point x="204" y="36" type="qcurve" smooth="yes"/>
      <point x="204" y="51"/>
      <point x="225" y="72"/>
      <point x="240" y="72" type="qcurve" smooth="yes"/>
      <point x="255" y="72"/>
      <point x="276" y="51"/>
    </contour>
    <contour>
      <point x="420" y="36" type="qcurve" smooth="yes"/>
      <point x="420" y="21"/>
      <point x="399" y="0"/>
      <point x="384" y="0" type="qcurve" smooth="yes"/>
      <point x="369" y="0"/>
      <point x="348" y="21"/>
      <point x="348" y="36" type="qcurve" smooth="yes"/>
      <point x="348" y="51"/>
      <point x="369" y="72"/>
      <point x="384" y="72" type="qcurve" smooth="yes"/>
      <point x="399" y="72"/>
      <point x="420" y="51"/>
    </contour>
  </outline>
</glyph>
<glyph name="uni0086" format="2">
  <unicode hex="0086"/>
  <unicode hex="2020"/>
  <unicode hex="F705"/>
  <outline>
    <contour>
      <point x="-214" y="891" type="line"/>
      <point x="-160" y="891" type="line"/>
      <point x="-160" y="710" type="line"/>
      <point x="-214" y="710" type="line"/>
    </contour>
  </outline>
</glyph>
<glyph name="uni0087" format="2">
  <unicode hex="0087"/>
  <unicode hex="2021"/>
  <unicode hex="F706"/>
  <outline>
    <contour>
      <point x="-40" y="756" type="qcurve"/>
      <point x="-40" y="710" type="line"/>
      <point x="-257" y="710" type="line" smooth="yes"/>
      <point x="-298" y="710"/>
      <point x="-352" y="764"/>
      <point x="-352" y="805" type="qcurve" smooth="yes"/>
      <point x="-352" y="836" type="line"/>
      <point x="-422" y="836" type="line"/>
      <point x="-422" y="882" type="line"/>
      <point x="-329" y="882" type="line" smooth="yes"/>
      <point x="-315" y="882"/>
      <point x="-306" y="866"/>
      <point x="-306" y="840"/>
      <point x="-308" y="810"/>
      <point x="-303" y="782"/>
      <point x="-286" y="761"/>
      <point x="-266" y="757" type="qcurve" smooth="yes"/>
      <point x="-254" y="755"/>
      <point x="-192" y="754"/>
      <point x="-121" y="755"/>
      <point x="-56" y="756"/>
    </contour>
  </outline>
</glyph>
<glyph name="uni0088" format="2">
  <unicode hex="0088"/>
  <unicode hex="02C6"/>
  <unicode hex="F707"/>
  <outline>
    <contour>
      <point x="-216" y="756" type="qcurve"/>
      <point x="-120" y="756" type="line"/>
      <point x="-120" y="710" type="line"/>
      <point x="-239" y="710" type="line" smooth="yes"/>
      <point x="-256" y="710"/>
      <point x="-263" y="747"/>
      <point x="-267" y="792"/>
      <point x="-281" y="832"/>
      <point x="-306" y="835" type="qcurve"/>
      <point x="-311" y="831"/>
      <point x="-326" y="813"/>
      <point x="-345" y="795"/>
      <point x="-364" y="781"/>
      <point x="-371" y="781" type="qcurve" smooth="yes"/>
      <point x="-379" y="781"/>
      <point x="-397" y="795"/>
      <point x="-415" y="814"/>
      <point x="-431" y="833"/>
      <point x="-435" y="837" type="qcurve"/>
      <point x="-448" y="835"/>
      <point x="-463" y="818"/>
      <point x="-472" y="795"/>
      <point x="-475" y="769"/>
      <point x="-475" y="758" type="qcurve" smooth="yes"/>
      <point x="-475" y="748"/>
      <point x="-473" y="727"/>
      <point x="-471" y="717" type="qcurve"/>
      <point x="-516" y="708" type="line"/>
      <point x="-518" y="720"/>
      <point x="-521" y="744"/>
      <point x="-521" y="756" type="qcurve" smooth="yes"/>
      <point x="-521" y="777"/>
      <point x="-511" y="822"/>
      <point x="-489" y="860"/>
      <point x="-455" y="885"/>
      <point x="-430" y="885" type="qcurve" smooth="yes"/>
      <point x="-421" y="885"/>
      <point x="-404" y="874"/>
      <point x="-388" y="858"/>
      <point x="-375" y="842"/>
      <point x="-370" y="837" type="qcurve"/>
      <point x="-364" y="843"/>
      <point x="-351" y="859"/>
      <point x="-336" y="873"/>
      <point x="-320" y="883"/>
      <point x="-310" y="883" type="qcurve" smooth="yes"/>
      <point x="-299" y="883"/>
      <point x="-278" y="874"/>
      <point x="-269" y="869" type="qcurve" smooth="yes"/>
      <point x="-251" y="858"/>
      <point x="-233" y="833"/>
      <point x="-224" y="805"/>
      <point x="-219" y="774"/>
    </contour>
  </outline>
</glyph>
<glyph name="uni0089" format="2">
  <unicode hex="0089"/>
  <unicode hex="2030"/>
  <unicode hex="F708"/>
  <outline>
    <contour>
      <point x="-299" y="778" type="line"/>
      <point x="-299" y="824" type="line"/>
      <point x="-232" y="824" type="line"/>
      <point x="-232" y="891" type="line"/>
      <point x="-186" y="891" type="line"/>
      <point x="-186" y="824" type="line"/>
      <point x="-118" y="824" type="line"/>
      <point x="-118" y="778" type="line"/>
      <point x="-186" y="778" type="line"/>
      <point x="-186" y="710" type="line"/>
      <point x="-232" y="710" type="line"/>
      <point x="-232" y="778" type="line"/>
    </contour>
  </outline>
</glyph>
<glyph name="uni008A" format="2">
  <unicode hex="008A"/>
  <unicode hex="0160"/>
  <unicode hex="F709"/>
  <outline>
    <contour>
      <point x="-290" y="710" type="qcurve"/>
      <point x="-344" y="710" type="line"/>
      <point x="-344" y="791" type="line" smooth="yes"/>
      <point x="-344" y="809"/>
      <point x="-331" y="843"/>
      <point x="-308" y="870"/>
      <point x="-277" y="888"/>
      <point x="-259" y="889" type="qcurve" smooth="yes"/>
      <point x="-251" y="890"/>
      <point x="-237" y="890"/>
      <point x="-229" y="890" type="qcurve" smooth="yes"/>
      <point x="-23" y="890" type="line"/>
      <point x="-23" y="836" type="line"/>
      <point x="-245" y="836" type="line" smooth="yes"/>
      <point x="-268" y="836"/>
      <point x="-288" y="807"/>
      <point x="-293" y="767"/>
      <point x="-290" y="724"/>
    </contour>
  </outline>
</glyph>
<glyph name="uni008B" format="2">
  <unicode hex="008B"/>
  <unicode hex="2039"/>
  <unicode hex="F70A"/>
  <outline>
    <contour>
      <point x="-134" y="891" type="line"/>
      <point x="-80" y="891" type="line"/>
      <point x="-80" y="710" type="line"/>
      <point x="-134" y="710" type="line"/>
    </contour>
  </outline>
</glyph>
<glyph name="uni008C" format="2">
  <unicode hex="008C"/>
  <unicode hex="0152"/>
  <unicode hex="F70B"/>
  <outline>
    <contour>
      <point x="51" y="756" type="qcurve"/>
      <point x="51" y="710" type="line"/>
      <point x="-166" y="710" type="line" smooth="yes"/>
      <point x="-207" y="710"/>
      <point x="-261" y="764"/>
      <point x="-261" y="805" type="qcurve" smooth="yes"/>
      <point x="-261" y="836" type="line"/>
      <point x="-331" y="836" type="line"/>
      <point x="-331" y="882" type="line"/>
      <point x="-238" y="882" type="line" smooth="yes"/>
      <point x="-224" y="882"/>
      <point x="-215" y="866"/>
      <point x="-215" y="840"/>
      <point x="-217" y="810"/>
      <point x="-212" y="782"/>
      <point x="-195" y="761"/>
      <point x="-175" y="757" type="qcurve" smooth="yes"/>
      <point x="-163" y="755"/>
      <point x="-101" y="754"/>
      <point x="-30" y="755"/>
      <point x="35" y="756"/>
    </contour>
  </outline>
</glyph>
<glyph name="uni008D" format="2">
  <unicode hex="008D"/>
  <unicode hex="F70C"/>
  <outline>
    <contour>
      <point x="-55" y="756" type="qcurve"/>
      <point x="41" y="756" type="line"/>
      <point x="41" y="710" type="line"/>
      <point x="-78" y="710" type="line" smooth="yes"/>
      <point x="-95" y="710"/>
      <point x="-102" y="747"/>
      <point x="-106" y="792"/>
      <point x="-120" y="832"/>
      <point x="-145" y="835" type="qcurve"/>
      <point x="-150" y="831"/>
      <point x="-165" y="813"/>
      <point x="-184" y="795"/>
      <point x="-203" y="781"/>
      <point x="-210" y="781" type="qcurve" smooth="yes"/>
      <point x="-218" y="781"/>
      <point x="-236" y="795"/>
      <point x="-254" y="814"/>
      <point x="-270" y="833"/>
      <point x="-274" y="837" type="qcurve"/>
      <point x="-287" y="835"/>
      <point x="-302" y="818"/>
      <point x="-311" y="795"/>
      <point x="-314" y="769"/>
      <point x="-314" y="758" type="qcurve" smooth="yes"/>
      <point x="-314" y="748"/>
      <point x="-312" y="727"/>
      <point x="-310" y="717" type="qcurve"/>
      <point x="-355" y="708" type="line"/>
      <point x="-357" y="720"/>
      <point x="-360" y="744"/>
      <point x="-360" y="756" type="qcurve" smooth="yes"/>
      <point x="-360" y="777"/>
      <point x="-350" y="822"/>
      <point x="-328" y="860"/>
      <point x="-294" y="885"/>
      <point x="-269" y="885" type="qcurve" smooth="yes"/>
      <point x="-260" y="885"/>
      <point x="-243" y="874"/>
      <point x="-227" y="858"/>
      <point x="-214" y="842"/>
      <point x="-209" y="837" type="qcurve"/>
      <point x="-203" y="843"/>
      <point x="-190" y="859"/>
      <point x="-175" y="873"/>
      <point x="-159" y="883"/>
      <point x="-149" y="883" type="qcurve" smooth="yes"/>
      <point x="-138" y="883"/>
      <point x="-117" y="874"/>
      <point x="-108" y="869" type="qcurve" smooth="yes"/>
      <point x="-90" y="858"/>
      <point x="-72" y="833"/>
      <point x="-63" y="805"/>
      <point x="-58" y="774"/>
    </contour>
  </outline>
</glyph>
<glyph name="uni008E" format="2">
  <unicode hex="008E"/>
  <unicode hex="017D"/>
  <unicode hex="F70D"/>
  <outline>
    <contour>
      <point x="-193" y="778" type="line"/>
      <point x="-193" y="824" type="line"/>
      <point x="-126" y="824" type="line"/>
      <point x="-126" y="891" type="line"/>
      <point x="-80" y="891" type="line"/>
      <point x="-80" y="824" type="line"/>
      <point x="-12" y="824" type="line"/>
      <point x="-12" y="778" type="line"/>
      <point x="-80" y="778" type="line"/>
      <point x="-80" y="710" type="line"/>
      <point x="-126" y="710" type="line"/>
      <point x="-126" y="778" type="line"/>
    </contour>
  </outline>
</glyph>
<glyph name="uni008F" format="2">
  <unicode hex="008F"/>
  <unicode hex="F70E"/>
  <outline>
    <contour>
      <point x="-267" y="710" type="qcurve"/>
      <point x="-321" y="710" type="line"/>
      <point x="-321" y="791" type="line" smooth="yes"/>
      <point x="-321" y="809"/>
      <point x="-308" y="843"/>
      <point x="-285" y="870"/>
      <point x="-254" y="888"/>
      <point x="-236" y="889" type="qcurve" smooth="yes"/>
      <point x="-228" y="890"/>
      <point x="-214" y="890"/>
      <point x="-206" y="890" type="qcurve" smooth="yes"/>
      <point x="-40" y="890" type="line"/>
      <point x="-40" y="836" type="line"/>
      <point x="-222" y="836" type="line" smooth="yes"/>
      <point x="-245" y="836"/>
      <point x="-265" y="807"/>
      <point x="-270" y="767"/>
      <point x="-267" y="724"/>
    </contour>
  </outline>
</glyph>
<glyph name="uni0090" format="2">
  <advance width="898"/>
  <unicode hex="0090"/>
  <unicode hex="F70F"/>
  <outline>
    <contour>
      <point x="818" y="162" type="line" smooth="yes"/>
      <point x="818" y="121"/>
      <point x="785" y="57"/>
      <point x="730" y="13"/>
      <point x="659" y="-10"/>
      <point x="621" y="-10" type="qcurve" smooth="yes"/>
      <point x="583" y="-10"/>
      <point x="511" y="13"/>
      <point x="456" y="57"/>
      <point x="422" y="121"/>
      <point x="422" y="162" type="qcurve" smooth="yes"/>
      <point x="422" y="428" type="line" smooth="yes"/>
      <point x="422" y="459"/>
      <point x="395" y="503"/>
      <point x="352" y="532"/>
      <point x="298" y="546"/>
      <point x="271" y="546" type="qcurve" smooth="yes"/>
      <point x="261" y="546"/>
      <point x="216" y="542"/>
      <point x="169" y="532"/>
      <point x="134" y="513"/>
      <point x="134" y="499" type="qcurve" smooth="yes"/>
      <point x="134" y="99" type="line" smooth="yes"/>
      <point x="134" y="84"/>
      <point x="147" y="65"/>
      <point x="167" y="54"/>
      <point x="192" y="51"/>
      <point x="205" y="51" type="qcurve" smooth="yes"/>
      <point x="219" y="51"/>
      <point x="246" y="54"/>
      <point x="260" y="54" type="qcurve"/>
      <point x="260" y="0" type="line"/>
      <point x="179" y="0" type="line" smooth="yes"/>
      <point x="137" y="0"/>
      <point x="80" y="57"/>
      <point x="80" y="99" type="qcurve" smooth="yes"/>
      <point x="80" y="500" type="line" smooth="yes"/>
      <point x="80" y="530"/>
      <point x="122" y="569"/>
      <point x="182" y="591"/>
      <point x="247" y="600"/>
      <point x="269" y="600" type="qcurve" smooth="yes"/>
      <point x="308" y="600"/>
      <point x="383" y="579"/>
      <point x="441" y="537"/>
      <point x="476" y="472"/>
      <point x="476" y="428" type="qcurve" smooth="yes"/>
      <point x="476" y="162" type="line" smooth="yes"/>
      <point x="476" y="132"/>
      <point x="501" y="88"/>
      <point x="542" y="59"/>
      <point x="593" y="44"/>
      <point x="620" y="44" type="qcurve" smooth="yes"/>
      <point x="647" y="44"/>
      <point x="698" y="59"/>
      <point x="739" y="88"/>
      <point x="764" y="132"/>
      <point x="764" y="162" type="qcurve" smooth="yes"/>
      <point x="764" y="590" type="line"/>
      <point x="818" y="590" type="line"/>
    </contour>
  </outline>
</glyph>
<glyph name="uni0091" format="2">
  <advance width="192"/>
  <unicode hex="0091"/>
  <unicode hex="2018"/>
  <outline>
    <contour>
      <point x="104" y="485" type="line"/>
      <point x="77" y="513"/>
      <point x="57" y="579"/>
      <point x="57" y="617" type="qcurve" smooth="yes"/>
      <point x="57" y="640"/>
      <point x="64" y="687"/>
      <point x="67" y="710" type="qcurve"/>
      <point x="120" y="704" type="line"/>
      <point x="118" y="682"/>
      <point x="111" y="638"/>
      <point x="111" y="616" type="qcurve" smooth="yes"/>
      <point x="111" y="590"/>
      <point x="123" y="543"/>
      <point x="143" y="523" type="qcurve"/>
    </contour>
  </outline>
</glyph>
<glyph name="uni0092" format="2">
  <advance width="192"/>
  <unicode hex="0092"/>
  <unicode hex="2019"/>
  <outline>
    <contour>
      <point x="95" y="710" type="line"/>
      <point x="122" y="682"/>
      <point x="142" y="616"/>
      <point x="142" y="578" type="qcurve" smooth="yes"/>
      <point x="142" y="555"/>
      <point x="135" y="508"/>
      <point x="132" y="485" type="qcurve"/>
      <point x="79" y="491" type="line"/>
      <point x="81" y="513"/>
      <point x="88" y="557"/>
      <point x="88" y="579" type="qcurve" smooth="yes"/>
      <point x="88" y="605"/>
      <point x="76" y="652"/>
      <point x="56" y="672" type="qcurve"/>
    </contour>
  </outline>
</glyph>
<glyph name="uni0093" format="2">
  <advance width="412"/>
  <unicode hex="0093"/>
  <unicode hex="201C"/>
  <outline>
    <contour>
      <point x="136" y="485" type="line"/>
      <point x="109" y="513"/>
      <point x="89" y="579"/>
      <point x="89" y="617" type="qcurve" smooth="yes"/>
      <point x="89" y="640"/>
      <point x="96" y="687"/>
      <point x="99" y="710" type="qcurve"/>
      <point x="152" y="704" type="line"/>
      <point x="150" y="682"/>
      <point x="143" y="638"/>
      <point x="143" y="616" type="qcurve" smooth="yes"/>
      <point x="143" y="590"/>
      <point x="155" y="543"/>
      <point x="175" y="523" type="qcurve"/>
    </contour>
    <contour>
      <point x="297" y="485" type="line"/>
      <point x="270" y="513"/>
      <point x="250" y="579"/>
      <point x="250" y="617" type="qcurve" smooth="yes"/>
      <point x="250" y="640"/>
      <point x="257" y="687"/>
      <point x="260" y="710" type="qcurve"/>
      <point x="313" y="704" type="line"/>
      <point x="311" y="682"/>
      <point x="304" y="638"/>
      <point x="304" y="616" type="qcurve" smooth="yes"/>
      <point x="304" y="590"/>
      <point x="316" y="543"/>
      <point x="336" y="523" type="qcurve"/>
    </contour>
  </outline>
</glyph>
<glyph name="uni0094" format="2">
  <advance width="383"/>
  <unicode hex="0094"/>
  <unicode hex="201D"/>
  <outline>
    <contour>
      <point x="103" y="710" type="line"/>
      <point x="130" y="682"/>
      <point x="150" y="616"/>
      <point x="150" y="578" type="qcurve" smooth="yes"/>
      <point x="150" y="555"/>
      <point x="143" y="508"/>
      <point x="140" y="485" type="qcurve"/>
      <point x="87" y="491" type="line"/>
      <point x="89" y="513"/>
      <point x="96" y="557"/>
      <point x="96" y="579" type="qcurve" smooth="yes"/>
      <point x="96" y="605"/>
      <point x="84" y="652"/>
      <point x="64" y="672" type="qcurve"/>
    </contour>
    <contour>
      <point x="263" y="710" type="line"/>
      <point x="290" y="682"/>
      <point x="310" y="616"/>
      <point x="310" y="578" type="qcurve" smooth="yes"/>
      <point x="310" y="555"/>
      <point x="303" y="508"/>
      <point x="300" y="485" type="qcurve"/>
      <point x="247" y="491" type="line"/>
      <point x="249" y="513"/>
      <point x="256" y="557"/>
      <point x="256" y="579" type="qcurve" smooth="yes"/>
      <point x="256" y="605"/>
      <point x="244" y="652"/>
      <point x="224" y="672" type="qcurve"/>
    </contour>
  </outline>
</glyph>
<glyph name="uni0095" format="2">
  <advance width="343"/>
  <unicode hex="0095"/>
  <unicode hex="2022"/>
  <outline>
    <contour>
      <point x="171" y="65" type="qcurve" smooth="yes"/>
      <point x="146" y="65"/>
      <point x="100" y="85"/>
      <point x="66" y="119"/>
      <point x="46" y="165"/>
      <point x="46" y="190" type="qcurve" smooth="yes"/>
      <point x="46" y="215"/>
      <point x="66" y="260"/>
      <point x="101" y="295"/>
      <point x="146" y="315"/>
      <point x="171" y="315" type="qcurve" smooth="yes"/>
      <point x="197" y="315"/>
      <point x="242" y="295"/>
      <point x="276" y="261"/>
      <point x="296" y="216"/>
      <point x="296" y="190" type="qcurve" smooth="yes"/>
      <point x="296" y="165"/>
      <point x="276" y="120"/>
      <point x="241" y="85"/>
      <point x="196" y="65"/>
    </contour>
  </outline>
</glyph>
<glyph name="uni0096" format="2">
  <advance width="461"/>
  <unicode hex="0096"/>
  <unicode hex="2013"/>
  <outline>
    <contour>
      <point x="401" y="233" type="line"/>
      <point x="60" y="233" type="line"/>
      <point x="60" y="282" type="line"/>
      <point x="401" y="282" type="line"/>
    </contour>
  </outline>
</glyph>
<glyph name="uni0097" format="2">
  <advance width="441"/>
  <unicode hex="0097"/>
  <unicode hex="2014"/>
  <outline>
    <contour>
      <point x="441" y="233" type="line"/>
      <point x="0" y="233" type="line"/>
      <point x="0" y="282" type="line"/>
      <point x="441" y="282" type="line"/>
    </contour>
  </outline>
</glyph>
<glyph name="uni0098" format="2">
  <unicode hex="0098"/>
  <unicode hex="02DC"/>
  <unicode hex="F710"/>
  <outline>
    <contour>
      <point x="-40" y="764" type="line"/>
      <point x="-40" y="710" type="line"/>
      <point x="-262" y="710" type="line" smooth="yes"/>
      <point x="-283" y="710"/>
      <point x="-319" y="725"/>
      <point x="-346" y="752"/>
      <point x="-361" y="788"/>
      <point x="-361" y="809" type="qcurve" smooth="yes"/>
      <point x="-361" y="890" type="line"/>
      <point x="-307" y="890" type="line"/>
      <point x="-307" y="809" type="line" smooth="yes"/>
      <point x="-307" y="789"/>
      <point x="-282" y="764"/>
      <point x="-262" y="764" type="qcurve" smooth="yes"/>
    </contour>
  </outline>
</glyph>
<glyph name="uni0099" format="2">
  <unicode hex="0099"/>
  <unicode hex="2122"/>
  <unicode hex="F711"/>
  <outline>
    <contour>
      <point x="-40" y="773" type="qcurve" smooth="yes"/>
      <point x="-40" y="754"/>
      <point x="-55" y="721"/>
      <point x="-81" y="697"/>
      <point x="-115" y="683"/>
      <point x="-133" y="683" type="qcurve" smooth="yes"/>
      <point x="-171" y="683"/>
      <point x="-222" y="738"/>
      <point x="-222" y="775" type="qcurve" smooth="yes"/>
      <point x="-222" y="812"/>
      <point x="-169" y="864"/>
      <point x="-132" y="864" type="qcurve" smooth="yes"/>
      <point x="-113" y="864"/>
      <point x="-79" y="850"/>
      <point x="-54" y="825"/>
      <point x="-40" y="792"/>
    </contour>
    <contour>
      <point x="-85" y="775" type="qcurve" smooth="yes"/>
      <point x="-85" y="793"/>
      <point x="-116" y="817"/>
      <point x="-133" y="817" type="qcurve" smooth="yes"/>
      <point x="-152" y="817"/>
      <point x="-177" y="793"/>
      <point x="-177" y="773" type="qcurve" smooth="yes"/>
      <point x="-177" y="755"/>
      <point x="-146" y="730"/>
      <point x="-129" y="730" type="qcurve" smooth="yes"/>
      <point x="-109" y="730"/>
      <point x="-85" y="756"/>
    </contour>
  </outline>
</glyph>
<glyph name="uni009A" format="2">
  <unicode hex="009A"/>
  <unicode hex="0161"/>
  <unicode hex="F712"/>
  <outline>
    <contour>
      <point x="-218" y="756" type="line"/>
      <point x="-158" y="756" type="line"/>
      <point x="-158" y="710" type="line"/>
      <point x="-228" y="710" type="line" smooth="yes"/>
      <point x="-235" y="710"/>
      <point x="-257" y="727"/>
      <point x="-280" y="750"/>
      <point x="-299" y="772"/>
      <point x="-304" y="777" type="qcurve"/>
      <point x="-366" y="714" type="line" smooth="yes"/>
      <point x="-373" y="707"/>
      <point x="-386" y="707" type="qcurve" smooth="yes"/>
      <point x="-438" y="707"/>
      <point x="-509" y="769"/>
      <point x="-509" y="823" type="qcurve" smooth="yes"/>
      <point x="-509" y="862"/>
      <point x="-468" y="914"/>
      <point x="-407" y="945"/>
      <point x="-335" y="957"/>
      <point x="-304" y="957" type="qcurve" smooth="yes"/>
      <point x="-290" y="957"/>
      <point x="-265" y="951"/>
      <point x="-251" y="951" type="qcurve" smooth="yes"/>
      <point x="-208" y="951"/>
      <point x="-173" y="978" type="qcurve"/>
      <point x="-144" y="942" type="line"/>
      <point x="-167" y="924"/>
      <point x="-223" y="906"/>
      <point x="-252" y="906" type="qcurve" smooth="yes"/>
      <point x="-268" y="906"/>
      <point x="-299" y="909"/>
      <point x="-315" y="909" type="qcurve" smooth="yes"/>
      <point x="-335" y="909"/>
      <point x="-386" y="902"/>
      <point x="-431" y="884"/>
      <point x="-462" y="851"/>
      <point x="-462" y="824" type="qcurve" smooth="yes"/>
      <point x="-462" y="792"/>
      <point x="-422" y="756"/>
      <point x="-392" y="754" type="qcurve"/>
      <point x="-386" y="760"/>
      <point x="-363" y="785"/>
      <point x="-337" y="812"/>
      <point x="-313" y="832"/>
      <point x="-305" y="832" type="qcurve" smooth="yes"/>
      <point x="-294" y="832"/>
      <point x="-288" y="826" type="qcurve" smooth="yes"/>
    </contour>
  </outline>
</glyph>
<glyph name="uni009B" format="2">
  <unicode hex="009B"/>
  <unicode hex="203A"/>
  <unicode hex="F713"/>
  <outline>
    <contour>
      <point x="-214" y="1120" type="line"/>
      <point x="-160" y="1120" type="line"/>
      <point x="-160" y="939" type="line"/>
      <point x="-214" y="939" type="line"/>
    </contour>
  </outline>
</glyph>
<glyph name="uni009C" format="2">
  <unicode hex="009C"/>
  <unicode hex="0153"/>
  <unicode hex="F714"/>
  <outline>
    <contour>
      <point x="-40" y="985" type="qcurve"/>
      <point x="-40" y="939" type="line"/>
      <point x="-257" y="939" type="line" smooth="yes"/>
      <point x="-298" y="939"/>
      <point x="-352" y="993"/>
      <point x="-352" y="1034" type="qcurve" smooth="yes"/>
      <point x="-352" y="1065" type="line"/>
      <point x="-422" y="1065" type="line"/>
      <point x="-422" y="1111" type="line"/>
      <point x="-329" y="1111" type="line" smooth="yes"/>
      <point x="-315" y="1111"/>
      <point x="-306" y="1095"/>
      <point x="-306" y="1069"/>
      <point x="-308" y="1039"/>
      <point x="-303" y="1011"/>
      <point x="-286" y="990"/>
      <point x="-266" y="986" type="qcurve" smooth="yes"/>
      <point x="-254" y="984"/>
      <point x="-192" y="983"/>
      <point x="-121" y="984"/>
      <point x="-56" y="985"/>
    </contour>
  </outline>
</glyph>
<glyph name="uni009D" format="2">
  <unicode hex="009D"/>
  <unicode hex="F715"/>
  <outline>
    <contour>
      <point x="-216" y="985" type="qcurve"/>
      <point x="-120" y="985" type="line"/>
      <point x="-120" y="939" type="line"/>
      <point x="-239" y="939" type="line" smooth="yes"/>
      <point x="-256" y="939"/>
      <point x="-263" y="976"/>
      <point x="-267" y="1021"/>
      <point x="-281" y="1061"/>
      <point x="-306" y="1064" type="qcurve"/>
      <point x="-311" y="1060"/>
      <point x="-326" y="1042"/>
      <point x="-345" y="1024"/>
      <point x="-364" y="1010"/>
      <point x="-371" y="1010" type="qcurve" smooth="yes"/>
      <point x="-379" y="1010"/>
      <point x="-397" y="1024"/>
      <point x="-415" y="1043"/>
      <point x="-431" y="1062"/>
      <point x="-435" y="1066" type="qcurve"/>
      <point x="-448" y="1064"/>
      <point x="-463" y="1047"/>
      <point x="-472" y="1024"/>
      <point x="-475" y="998"/>
      <point x="-475" y="987" type="qcurve" smooth="yes"/>
      <point x="-475" y="977"/>
      <point x="-473" y="956"/>
      <point x="-471" y="946" type="qcurve"/>
      <point x="-516" y="937" type="line"/>
      <point x="-518" y="949"/>
      <point x="-521" y="973"/>
      <point x="-521" y="985" type="qcurve" smooth="yes"/>
      <point x="-521" y="1006"/>
      <point x="-511" y="1051"/>
      <point x="-489" y="1089"/>
      <point x="-455" y="1114"/>
      <point x="-430" y="1114" type="qcurve" smooth="yes"/>
      <point x="-421" y="1114"/>
      <point x="-404" y="1103"/>
      <point x="-388" y="1087"/>
      <point x="-375" y="1071"/>
      <point x="-370" y="1066" type="qcurve"/>
      <point x="-364" y="1072"/>
      <point x="-351" y="1088"/>
      <point x="-336" y="1102"/>
      <point x="-320" y="1112"/>
      <point x="-310" y="1112" type="qcurve" smooth="yes"/>
      <point x="-299" y="1112"/>
      <point x="-278" y="1103"/>
      <point x="-269" y="1098" type="qcurve" smooth="yes"/>
      <point x="-251" y="1087"/>
      <point x="-233" y="1062"/>
      <point x="-224" y="1034"/>
      <point x="-219" y="1003"/>
    </contour>
  </outline>
</glyph>
<glyph name="uni009E" format="2">
  <unicode hex="009E"/>
  <unicode hex="017E"/>
  <unicode hex="F716"/>
  <outline>
    <contour>
      <point x="-299" y="1007" type="line"/>
      <point x="-299" y="1053" type="line"/>
      <point x="-232" y="1053" type="line"/>
      <point x="-232" y="1120" type="line"/>
      <point x="-186" y="1120" type="line"/>
      <point x="-186" y="1053" type="line"/>
      <point x="-118" y="1053" type="line"/>
      <point x="-118" y="1007" type="line"/>
      <point x="-186" y="1007" type="line"/>
      <point x="-186" y="939" type="line"/>
      <point x="-232" y="939" type="line"/>
      <point x="-232" y="1007" type="line"/>
    </contour>
  </outline>
</glyph>
<glyph name="uni009F" format="2">
  <unicode hex="009F"/>
  <unicode hex="0178"/>
  <unicode hex="F717"/>
  <outline>
    <contour>
      <point x="-256" y="939" type="qcurve"/>
      <point x="-310" y="939" type="line"/>
      <point x="-310" y="1020" type="line" smooth="yes"/>
      <point x="-310" y="1038"/>
      <point x="-297" y="1072"/>
      <point x="-274" y="1099"/>
      <point x="-243" y="1117"/>
      <point x="-225" y="1118" type="qcurve" smooth="yes"/>
      <point x="-217" y="1119"/>
      <point x="-203" y="1119"/>
      <point x="-195" y="1119" type="qcurve" smooth="yes"/>
      <point x="11" y="1119" type="line"/>
      <point x="11" y="1065" type="line"/>
      <point x="-211" y="1065" type="line" smooth="yes"/>
      <point x="-234" y="1065"/>
      <point x="-254" y="1036"/>
      <point x="-259" y="996"/>
      <point x="-256" y="953"/>
    </contour>
  </outline>
</glyph>
<glyph name="exclamdown" format="2">
  <advance width="600"/>
  <unicode hex="00A1"/>
  <unicode hex="0E01"/>
  <outline>
    <contour>
      <point x="80" y="0" type="line"/>
      <point x="80" y="502" type="line" smooth="yes"/>
      <point x="80" y="534"/>
      <point x="130" y="572"/>
      <point x="198" y="593"/>
      <point x="271" y="600"/>
      <point x="293" y="600" type="qcurve" smooth="yes"/>
      <point x="332" y="600"/>
      <point x="416" y="583"/>
      <point x="485" y="542"/>
      <point x="530" y="477"/>
      <point x="530" y="429" type="qcurve" smooth="yes"/>
      <point x="530" y="0" type="line"/>
      <point x="476" y="0" type="line"/>
      <point x="476" y="429" type="line" smooth="yes"/>
      <point x="476" y="467"/>
      <point x="435" y="512"/>
      <point x="374" y="538"/>
      <point x="305" y="546"/>
      <point x="276" y="546" type="qcurve" smooth="yes"/>
      <point x="266" y="546"/>
      <point x="219" y="543"/>
      <point x="171" y="533"/>
      <point x="134" y="515"/>
      <point x="134" y="499" type="qcurve" smooth="yes"/>
      <point x="134" y="0" type="line"/>
    </contour>
  </outline>
</glyph>
<glyph name="cent" format="2">
  <advance width="546"/>
  <unicode hex="00A2"/>
  <unicode hex="0E02"/>
  <outline>
    <contour>
      <point x="51" y="590" type="line"/>
      <point x="151" y="590" type="line" smooth="yes"/>
      <point x="194" y="590"/>
      <point x="250" y="533"/>
      <point x="250" y="491" type="qcurve" smooth="yes"/>
      <point x="250" y="456"/>
      <point x="224" y="399"/>
      <point x="187" y="347"/>
      <point x="148" y="296"/>
      <point x="136" y="266" type="qcurve" smooth="yes"/>
      <point x="124" y="239"/>
      <point x="124" y="191"/>
      <point x="124" y="162" type="qcurve" smooth="yes"/>
      <point x="124" y="133"/>
      <point x="150" y="89"/>
      <point x="192" y="59"/>
      <point x="244" y="44"/>
      <point x="270" y="44" type="qcurve" smooth="yes"/>
      <point x="297" y="44"/>
      <point x="348" y="59"/>
      <point x="388" y="88"/>
      <point x="412" y="132"/>
      <point x="412" y="162" type="qcurve" smooth="yes"/>
      <point x="412" y="590" type="line"/>
      <point x="466" y="590" type="line"/>
      <point x="466" y="162" type="line" smooth="yes"/>
      <point x="466" y="122"/>
      <point x="433" y="58"/>
      <point x="377" y="13"/>
      <point x="307" y="-10"/>
      <point x="269" y="-10" type="qcurve" smooth="yes"/>
      <point x="242" y="-10"/>
      <point x="188" y="2"/>
      <point x="140" y="26"/>
      <point x="100" y="63"/>
      <point x="87" y="88" type="qcurve" smooth="yes"/>
      <point x="71" y="118"/>
      <point x="70" y="179"/>
      <point x="70" y="212" type="qcurve" smooth="yes"/>
      <point x="70" y="259"/>
      <point x="109" y="332"/>
      <point x="157" y="397"/>
      <point x="196" y="457"/>
      <point x="196" y="491" type="qcurve" smooth="yes"/>
      <point x="196" y="511"/>
      <point x="171" y="536"/>
      <point x="151" y="536" type="qcurve" smooth="yes"/>
      <point x="51" y="536" type="line"/>
    </contour>
  </outline>
</glyph>
<glyph name="sterling" format="2">
  <advance width="570"/>
  <unicode hex="00A3"/>
  <unicode hex="0E03"/>
  <outline>
    <contour>
      <point x="293" y="44" type="qcurve" smooth="yes"/>
      <point x="320" y="44"/>
      <point x="371" y="59"/>
      <point x="411" y="88"/>
      <point x="435" y="132"/>
      <point x="435" y="162" type="qcurve" smooth="yes"/>
      <point x="435" y="590" type="line"/>
      <point x="489" y="590" type="line"/>
      <point x="489" y="162" type="line" smooth="yes"/>
      <point x="489" y="121"/>
      <point x="456" y="57"/>
      <point x="400" y="13"/>
      <point x="329" y="-10"/>
      <point x="291" y="-10" type="qcurve" smooth="yes"/>
      <point x="231" y="-10"/>
      <point x="131" y="42"/>
      <point x="108" y="100" type="qcurve" smooth="yes"/>
      <point x="96" y="129"/>
      <point x="93" y="182"/>
      <point x="93" y="212" type="qcurve" smooth="yes"/>
      <point x="93" y="257"/>
      <point x="132" y="330"/>
      <point x="179" y="396"/>
      <point x="218" y="459"/>
      <point x="218" y="494" type="qcurve" smooth="yes"/>
      <point x="218" y="508"/>
      <point x="208" y="531"/>
      <point x="193" y="535" type="qcurve"/>
      <point x="120" y="462" type="line"/>
      <point x="20" y="562" type="line"/>
      <point x="58" y="600" type="line"/>
      <point x="120" y="538" type="line"/>
      <point x="172" y="590" type="line"/>
      <point x="217" y="590"/>
      <point x="272" y="538"/>
      <point x="272" y="492" type="qcurve" smooth="yes"/>
      <point x="272" y="461"/>
      <point x="250" y="407"/>
      <point x="218" y="357"/>
      <point x="182" y="309"/>
      <point x="167" y="284" type="qcurve" smooth="yes"/>
      <point x="150" y="258"/>
      <point x="147" y="212"/>
      <point x="147" y="182" type="qcurve" smooth="yes"/>
      <point x="147" y="113"/>
      <point x="226" y="44"/>
    </contour>
  </outline>
</glyph>
<glyph name="currency" format="2">
  <advance width="610"/>
  <unicode hex="00A4"/>
  <unicode hex="0E04"/>
  <outline>
    <contour>
      <point x="80" y="0" type="line"/>
      <point x="80" y="428" type="line" smooth="yes"/>
      <point x="80" y="472"/>
      <point x="121" y="537"/>
      <point x="186" y="579"/>
      <point x="265" y="600"/>
      <point x="303" y="600" type="qcurve" smooth="yes"/>
      <point x="344" y="600"/>
      <point x="426" y="578"/>
      <point x="490" y="533"/>
      <point x="530" y="465"/>
      <point x="530" y="418" type="qcurve" smooth="yes"/>
      <point x="530" y="0" type="line"/>
      <point x="476" y="0" type="line"/>
      <point x="476" y="428" type="line" smooth="yes"/>
      <point x="476" y="460"/>
      <point x="443" y="505"/>
      <point x="392" y="533"/>
      <point x="332" y="546"/>
      <point x="306" y="546" type="qcurve" smooth="yes"/>
      <point x="276" y="546"/>
      <point x="214" y="532"/>
      <point x="165" y="501"/>
      <point x="134" y="452"/>
      <point x="134" y="416" type="qcurve" smooth="yes"/>
      <point x="134" y="262" type="line"/>
      <point x="168" y="300"/>
      <point x="255" y="328"/>
      <point x="305" y="328" type="qcurve"/>
      <point x="305" y="274" type="line"/>
      <point x="232" y="274"/>
      <point x="160" y="233"/>
      <point x="133" y="160"/>
      <point x="134" y="60"/>
      <point x="134" y="0" type="qcurve"/>
    </contour>
  </outline>
</glyph>
<glyph name="yen" format="2">
  <advance width="610"/>
  <unicode hex="00A5"/>
  <unicode hex="0E05"/>
  <outline>
    <contour>
      <point x="80" y="444" type="line" smooth="yes"/>
      <point x="80" y="474"/>
      <point x="99" y="522"/>
      <point x="132" y="560"/>
      <point x="177" y="589"/>
      <point x="202" y="600" type="qcurve"/>
      <point x="305" y="506" type="line"/>
      <point x="408" y="600" type="line"/>
      <point x="459" y="578"/>
      <point x="517" y="518"/>
      <point x="528" y="462" type="qcurve" smooth="yes"/>
      <point x="530" y="454"/>
      <point x="530" y="450" type="qcurve" smooth="yes"/>
      <point x="530" y="0" type="line"/>
      <point x="476" y="0" type="line"/>
      <point x="476" y="443" type="line" smooth="yes"/>
      <point x="476" y="472"/>
      <point x="441" y="521"/>
      <point x="417" y="535" type="qcurve"/>
      <point x="305" y="442" type="line"/>
      <point x="193" y="535" type="line"/>
      <point x="170" y="521"/>
      <point x="134" y="470"/>
      <point x="134" y="442" type="qcurve" smooth="yes"/>
      <point x="134" y="262" type="line"/>
      <point x="168" y="300"/>
      <point x="255" y="328"/>
      <point x="305" y="328" type="qcurve"/>
      <point x="305" y="274" type="line"/>
      <point x="232" y="274"/>
      <point x="160" y="233"/>
      <point x="133" y="160"/>
      <point x="134" y="60"/>
      <point x="134" y="0" type="qcurve"/>
      <point x="80" y="0" type="line"/>
    </contour>
  </outline>
</glyph>
<glyph name="brokenbar" format="2">
  <advance width="623"/>
  <unicode hex="00A6"/>
  <unicode hex="0E06"/>
  <outline>
    <contour>
      <point x="543" y="590" type="line"/>
      <point x="543" y="162" type="line" smooth="yes"/>
      <point x="543" y="121"/>
      <point x="509" y="57"/>
      <point x="454" y="14"/>
      <point x="383" y="-9"/>
      <point x="345" y="-9" type="qcurve" smooth="yes"/>
      <point x="284" y="-9"/>
      <point x="181" y="43"/>
      <point x="147" y="94" type="qcurve"/>
      <point x="137" y="0" type="line"/>
      <point x="93" y="0" type="line"/>
      <point x="93" y="222" type="line" smooth="yes"/>
      <point x="93" y="266"/>
      <point x="132" y="334"/>
      <point x="180" y="396"/>
      <point x="219" y="456"/>
      <point x="219" y="491" type="qcurve" smooth="yes"/>
      <point x="219" y="505"/>
      <point x="207" y="531"/>
      <point x="193" y="535" type="qcurve"/>
      <point x="120" y="472" type="line"/>
      <point x="20" y="562" type="line"/>
      <point x="58" y="600" type="line"/>
      <point x="120" y="538" type="line"/>
      <point x="172" y="590" type="line"/>
      <point x="218" y="590"/>
      <point x="273" y="536"/>
      <point x="273" y="490" type="qcurve" smooth="yes"/>
      <point x="273" y="447"/>
      <point x="234" y="377"/>
      <point x="186" y="315"/>
      <point x="147" y="255"/>
      <point x="147" y="223" type="qcurve" smooth="yes"/>
      <point x="147" y="183"/>
      <point x="181" y="118"/>
      <point x="237" y="71"/>
      <point x="309" y="45"/>
      <point x="346" y="45" type="qcurve" smooth="yes"/>
      <point x="373" y="45"/>
      <point x="424" y="59"/>
      <point x="464" y="88"/>
      <point x="489" y="132"/>
      <point x="489" y="162" type="qcurve" smooth="yes"/>
      <point x="489" y="590" type="line"/>
    </contour>
  </outline>
</glyph>
<glyph name="section" format="2">
  <advance width="542"/>
  <unicode hex="00A7"/>
  <unicode hex="0E07"/>
  <outline>
    <contour>
      <point x="462" y="162" type="line" smooth="yes"/>
      <point x="462" y="135"/>
      <point x="444" y="84"/>
      <point x="412" y="42"/>
      <point x="369" y="10"/>
      <point x="343" y="1" type="qcurve" smooth="yes"/>
      <point x="322" y="-6"/>
      <point x="284" y="-9"/>
      <point x="262" y="-9" type="qcurve" smooth="yes"/>
      <point x="253" y="-9"/>
      <point x="245" y="-1" type="qcurve" smooth="yes"/>
      <point x="20" y="224" type="line"/>
      <point x="58" y="262" type="line"/>
      <point x="275" y="45" type="line"/>
      <point x="301" y="47"/>
      <point x="348" y="62"/>
      <point x="386" y="91"/>
      <point x="408" y="133"/>
      <point x="408" y="162" type="qcurve" smooth="yes"/>
      <point x="408" y="491" type="line" smooth="yes"/>
      <point x="408" y="511"/>
      <point x="383" y="536"/>
      <point x="363" y="536" type="qcurve" smooth="yes"/>
      <point x="282" y="536" type="line"/>
      <point x="282" y="590" type="line"/>
      <point x="363" y="590" type="line" smooth="yes"/>
      <point x="405" y="590"/>
      <point x="462" y="533"/>
      <point x="462" y="491" type="qcurve" smooth="yes"/>
    </contour>
  </outline>
</glyph>
<glyph name="dieresis" format="2">
  <advance width="528"/>
  <unicode hex="00A8"/>
  <unicode hex="0E08"/>
  <outline>
    <contour>
      <point x="20" y="547" type="line"/>
      <point x="37" y="564"/>
      <point x="86" y="585"/>
      <point x="140" y="596"/>
      <point x="194" y="600"/>
      <point x="217" y="600" type="qcurve" smooth="yes"/>
      <point x="256" y="600"/>
      <point x="337" y="580"/>
      <point x="405" y="539"/>
      <point x="448" y="474"/>
      <point x="448" y="429" type="qcurve" smooth="yes"/>
      <point x="448" y="0" type="line"/>
      <point x="394" y="0" type="line"/>
      <point x="394" y="157" type="line" smooth="yes"/>
      <point x="394" y="189"/>
      <point x="362" y="234"/>
      <point x="335" y="249" type="qcurve" smooth="yes"/>
      <point x="310" y="262"/>
      <point x="251" y="274"/>
      <point x="223" y="274" type="qcurve"/>
      <point x="223" y="328" type="line"/>
      <point x="273" y="328"/>
      <point x="360" y="300"/>
      <point x="394" y="262" type="qcurve"/>
      <point x="394" y="429" type="line" smooth="yes"/>
      <point x="394" y="463"/>
      <point x="359" y="508"/>
      <point x="305" y="535"/>
      <point x="243" y="546"/>
      <point x="216" y="546" type="qcurve" smooth="yes"/>
      <point x="200" y="546"/>
      <point x="155" y="543"/>
      <point x="110" y="536"/>
      <point x="70" y="521"/>
      <point x="58" y="509" type="qcurve"/>
    </contour>
  </outline>
</glyph>
<glyph name="copyright" format="2">
  <advance width="815"/>
  <unicode hex="00A9"/>
  <unicode hex="012A"/>
  <outline>
    <contour>
      <point x="794" y="389" type="qcurve" smooth="yes"/>
      <point x="794" y="308"/>
      <point x="734" y="164"/>
      <point x="629" y="57"/>
      <point x="487" y="-5"/>
      <point x="405" y="-5" type="qcurve" smooth="yes"/>
      <point x="321" y="-5"/>
      <point x="178" y="57"/>
      <point x="73" y="164"/>
      <point x="14" y="309"/>
      <point x="14" y="393" type="qcurve" smooth="yes"/>
      <point x="14" y="471"/>
      <point x="77" y="610"/>
      <point x="183" y="715"/>
      <point x="323" y="776"/>
      <point x="401" y="776" type="qcurve" smooth="yes"/>
      <point x="481" y="776"/>
      <point x="624" y="716"/>
      <point x="731" y="611"/>
      <point x="794" y="470"/>
    </contour>
    <contour>
      <point x="740" y="381" type="qcurve" smooth="yes"/>
      <point x="740" y="451"/>
      <point x="689" y="575"/>
      <point x="599" y="668"/>
      <point x="478" y="722"/>
      <point x="407" y="722" type="qcurve" smooth="yes"/>
      <point x="335" y="722"/>
      <point x="211" y="669"/>
      <point x="119" y="576"/>
      <point x="67" y="452"/>
      <point x="67" y="380" type="qcurve" smooth="yes"/>
      <point x="67" y="312"/>
      <point x="121" y="191"/>
      <point x="214" y="101"/>
      <point x="336" y="48"/>
      <point x="403" y="48" type="qcurve" smooth="yes"/>
      <point x="472" y="48"/>
      <point x="594" y="100"/>
      <point x="686" y="190"/>
      <point x="740" y="312"/>
    </contour>
    <contour>
      <point x="286" y="437" type="qcurve" smooth="yes"/>
      <point x="286" y="338" type="line" smooth="yes"/>
      <point x="286" y="314"/>
      <point x="311" y="281"/>
      <point x="349" y="260"/>
      <point x="394" y="251"/>
      <point x="413" y="251" type="qcurve" smooth="yes"/>
      <point x="444" y="251"/>
      <point x="507" y="268"/>
      <point x="527" y="294" type="qcurve"/>
      <point x="570" y="263" type="line"/>
      <point x="545" y="228"/>
      <point x="462" y="197"/>
      <point x="420" y="197" type="qcurve" smooth="yes"/>
      <point x="388" y="197"/>
      <point x="321" y="213"/>
      <point x="267" y="247"/>
      <point x="232" y="300"/>
      <point x="232" y="338" type="qcurve" smooth="yes"/>
      <point x="232" y="432" type="line" smooth="yes"/>
      <point x="232" y="471"/>
      <point x="268" y="524"/>
      <point x="323" y="558"/>
      <point x="391" y="573"/>
      <point x="424" y="573" type="qcurve" smooth="yes"/>
      <point x="466" y="573"/>
      <point x="545" y="542"/>
      <point x="571" y="507" type="qcurve"/>
      <point x="527" y="476" type="line"/>
      <point x="507" y="502"/>
      <point x="445" y="519"/>
      <point x="414" y="519" type="qcurve" smooth="yes"/>
      <point x="393" y="519"/>
      <point x="354" y="513"/>
      <point x="320" y="496"/>
      <point x="295" y="468"/>
      <point x="288" y="446" type="qcurve" smooth="yes"/>
      <point x="286" y="440"/>
    </contour>
  </outline>
</glyph>
<glyph name="ordfeminine" format="2">
  <advance width="548"/>
  <unicode hex="00AA"/>
  <unicode hex="0E0A"/>
  <outline>
    <contour>
      <point x="50" y="590" type="line"/>
      <point x="151" y="590" type="line" smooth="yes"/>
      <point x="194" y="590"/>
      <point x="250" y="533"/>
      <point x="250" y="490" type="qcurve" smooth="yes"/>
      <point x="250" y="457"/>
      <point x="223" y="400"/>
      <point x="187" y="347"/>
      <point x="148" y="295"/>
      <point x="136" y="266" type="qcurve" smooth="yes"/>
      <point x="125" y="238"/>
      <point x="124" y="192"/>
      <point x="124" y="162" type="qcurve" smooth="yes"/>
      <point x="124" y="133"/>
      <point x="150" y="89"/>
      <point x="192" y="59"/>
      <point x="244" y="44"/>
      <point x="270" y="44" type="qcurve" smooth="yes"/>
      <point x="297" y="44"/>
      <point x="348" y="59"/>
      <point x="388" y="88"/>
      <point x="412" y="132"/>
      <point x="412" y="162" type="qcurve" smooth="yes"/>
      <point x="412" y="320" type="line" smooth="yes"/>
      <point x="412" y="342"/>
      <point x="398" y="384"/>
      <point x="384" y="400" type="qcurve" smooth="yes"/>
      <point x="304" y="491" type="line"/>
      <point x="456" y="655" type="line"/>
      <point x="496" y="619" type="line"/>
      <point x="376" y="491" type="line"/>
      <point x="395" y="470"/>
      <point x="428" y="434"/>
      <point x="452" y="396"/>
      <point x="466" y="351"/>
      <point x="466" y="321" type="qcurve" smooth="yes"/>
      <point x="466" y="162" type="line" smooth="yes"/>
      <point x="466" y="122"/>
      <point x="433" y="58"/>
      <point x="378" y="13"/>
      <point x="307" y="-10"/>
      <point x="269" y="-10" type="qcurve" smooth="yes"/>
      <point x="242" y="-10"/>
      <point x="188" y="2"/>
      <point x="140" y="27"/>
      <point x="100" y="64"/>
      <point x="87" y="89" type="qcurve" smooth="yes"/>
      <point x="71" y="118"/>
      <point x="70" y="180"/>
      <point x="70" y="212" type="qcurve" smooth="yes"/>
      <point x="70" y="260"/>
      <point x="109" y="333"/>
      <point x="157" y="397"/>
      <point x="196" y="457"/>
      <point x="196" y="491" type="qcurve" smooth="yes"/>
      <point x="196" y="511"/>
      <point x="171" y="536"/>
      <point x="151" y="536" type="qcurve" smooth="yes"/>
      <point x="50" y="536" type="line"/>
    </contour>
  </outline>
</glyph>
<glyph name="guillemotleft" format="2">
  <advance width="551"/>
  <unicode hex="00AB"/>
  <unicode hex="0E0B"/>
  <outline>
    <contour>
      <point x="415" y="320" type="line" smooth="yes"/>
      <point x="415" y="342"/>
      <point x="401" y="384"/>
      <point x="387" y="400" type="qcurve" smooth="yes"/>
      <point x="307" y="491" type="line"/>
      <point x="459" y="655" type="line"/>
      <point x="499" y="619" type="line"/>
      <point x="379" y="491" type="line"/>
      <point x="398" y="470"/>
      <point x="431" y="434"/>
      <point x="455" y="396"/>
      <point x="469" y="351"/>
      <point x="469" y="321" type="qcurve" smooth="yes"/>
      <point x="469" y="162" type="line" smooth="yes"/>
      <point x="469" y="121"/>
      <point x="436" y="57"/>
      <point x="381" y="13"/>
      <point x="310" y="-10"/>
      <point x="272" y="-10" type="qcurve" smooth="yes"/>
      <point x="216" y="-10"/>
      <point x="117" y="38"/>
      <point x="90" y="89" type="qcurve" smooth="yes"/>
      <point x="74" y="119"/>
      <point x="73" y="179"/>
      <point x="73" y="212" type="qcurve" smooth="yes"/>
      <point x="73" y="259"/>
      <point x="112" y="332"/>
      <point x="160" y="396"/>
      <point x="199" y="457"/>
      <point x="199" y="491" type="qcurve" smooth="yes"/>
      <point x="199" y="505"/>
      <point x="187" y="531"/>
      <point x="173" y="535" type="qcurve"/>
      <point x="100" y="472" type="line"/>
      <point x="0" y="562" type="line"/>
      <point x="38" y="600" type="line"/>
      <point x="100" y="535" type="line"/>
      <point x="152" y="590" type="line"/>
      <point x="198" y="590"/>
      <point x="253" y="536"/>
      <point x="253" y="490" type="qcurve" smooth="yes"/>
      <point x="253" y="460"/>
      <point x="231" y="406"/>
      <point x="198" y="356"/>
      <point x="161" y="308"/>
      <point x="147" y="284" type="qcurve" smooth="yes"/>
      <point x="128" y="253"/>
      <point x="127" y="197"/>
      <point x="127" y="162" type="qcurve" smooth="yes"/>
      <point x="127" y="133"/>
      <point x="153" y="89"/>
      <point x="195" y="59"/>
      <point x="247" y="44"/>
      <point x="273" y="44" type="qcurve" smooth="yes"/>
      <point x="300" y="44"/>
      <point x="351" y="59"/>
      <point x="391" y="88"/>
      <point x="415" y="132"/>
      <point x="415" y="162" type="qcurve" smooth="yes"/>
    </contour>
  </outline>
</glyph>
<glyph name="logicalnot" format="2">
  <advance width="898"/>
  <unicode hex="00AC"/>
  <unicode hex="0E0C"/>
  <outline>
    <contour>
      <point x="268" y="600" type="qcurve" smooth="yes"/>
      <point x="308" y="600"/>
      <point x="383" y="579"/>
      <point x="441" y="537"/>
      <point x="476" y="472"/>
      <point x="476" y="428" type="qcurve" smooth="yes"/>
      <point x="476" y="251" type="line" smooth="yes"/>
      <point x="476" y="212"/>
      <point x="497" y="138"/>
      <point x="539" y="80"/>
      <point x="603" y="44"/>
      <point x="646" y="44" type="qcurve" smooth="yes"/>
      <point x="700" y="44"/>
      <point x="764" y="107"/>
      <point x="764" y="161" type="qcurve" smooth="yes"/>
      <point x="764" y="590" type="line"/>
      <point x="818" y="590" type="line"/>
      <point x="818" y="161" type="line" smooth="yes"/>
      <point x="818" y="124"/>
      <point x="792" y="62"/>
      <point x="746" y="16"/>
      <point x="684" y="-10"/>
      <point x="647" y="-10" type="qcurve" smooth="yes"/>
      <point x="593" y="-10"/>
      <point x="504" y="37"/>
      <point x="476" y="84" type="qcurve"/>
      <point x="466" y="0" type="line"/>
      <point x="422" y="0" type="line"/>
      <point x="422" y="428" type="line" smooth="yes"/>
      <point x="422" y="459"/>
      <point x="395" y="503"/>
      <point x="352" y="532"/>
      <point x="298" y="546"/>
      <point x="271" y="546" type="qcurve" smooth="yes"/>
      <point x="261" y="546"/>
      <point x="215" y="542"/>
      <point x="169" y="532"/>
      <point x="134" y="514"/>
      <point x="134" y="499" type="qcurve" smooth="yes"/>
      <point x="134" y="99" type="line" smooth="yes"/>
      <point x="134" y="76"/>
      <point x="162" y="56"/>
      <point x="202" y="51"/>
      <point x="245" y="54"/>
      <point x="260" y="54" type="qcurve"/>
      <point x="260" y="0" type="line"/>
      <point x="179" y="0" type="line" smooth="yes"/>
      <point x="137" y="0"/>
      <point x="80" y="57"/>
      <point x="80" y="99" type="qcurve" smooth="yes"/>
      <point x="80" y="500" type="line" smooth="yes"/>
      <point x="80" y="530"/>
      <point x="122" y="568"/>
      <point x="182" y="591"/>
      <point x="246" y="600"/>
    </contour>
  </outline>
</glyph>
<glyph name="registered" format="2">
  <advance width="815"/>
  <unicode hex="00AE"/>
  <unicode hex="012B"/>
  <outline>
    <contour>
      <point x="405" y="782" type="qcurve" smooth="yes"/>
      <point x="486" y="782"/>
      <point x="628" y="721"/>
      <point x="735" y="614"/>
      <point x="796" y="472"/>
      <point x="796" y="391" type="qcurve" smooth="yes"/>
      <point x="796" y="310"/>
      <point x="734" y="168"/>
      <point x="628" y="62"/>
      <point x="486" y="0"/>
      <point x="405" y="0" type="qcurve" smooth="yes"/>
      <point x="324" y="0"/>
      <point x="182" y="62"/>
      <point x="76" y="168"/>
      <point x="14" y="310"/>
      <point x="14" y="391" type="qcurve" smooth="yes"/>
      <point x="14" y="472"/>
      <point x="75" y="614"/>
      <point x="182" y="721"/>
      <point x="324" y="782"/>
    </contour>
    <contour>
      <point x="68" y="391" type="qcurve" smooth="yes"/>
      <point x="68" y="321"/>
      <point x="121" y="198"/>
      <point x="212" y="107"/>
      <point x="335" y="54"/>
      <point x="405" y="54" type="qcurve" smooth="yes"/>
      <point x="475" y="54"/>
      <point x="598" y="107"/>
      <point x="689" y="199"/>
      <point x="742" y="321"/>
      <point x="742" y="391" type="qcurve" smooth="yes"/>
      <point x="742" y="460"/>
      <point x="689" y="583"/>
      <point x="597" y="675"/>
      <point x="474" y="728"/>
      <point x="405" y="728" type="qcurve" smooth="yes"/>
      <point x="335" y="728"/>
      <point x="213" y="675"/>
      <point x="121" y="584"/>
      <point x="68" y="461"/>
    </contour>
    <contour>
      <point x="461" y="576" type="line" smooth="yes"/>
      <point x="484" y="576"/>
      <point x="520" y="559"/>
      <point x="545" y="530"/>
      <point x="559" y="491"/>
      <point x="559" y="470" type="qcurve" smooth="yes"/>
      <point x="559" y="442"/>
      <point x="537" y="395"/>
      <point x="514" y="380" type="qcurve"/>
      <point x="584" y="220" type="line"/>
      <point x="525" y="220" type="line"/>
      <point x="462" y="364" type="line"/>
      <point x="332" y="364" type="line"/>
      <point x="332" y="220" type="line"/>
      <point x="278" y="220" type="line"/>
      <point x="278" y="576" type="line"/>
    </contour>
    <contour>
      <point x="332" y="418" type="line"/>
      <point x="463" y="418" type="line" smooth="yes"/>
      <point x="484" y="418"/>
      <point x="506" y="451"/>
      <point x="506" y="470" type="qcurve" smooth="yes"/>
      <point x="506" y="490"/>
      <point x="483" y="522"/>
      <point x="462" y="522" type="qcurve" smooth="yes"/>
      <point x="332" y="522" type="line"/>
    </contour>
  </outline>
</glyph>
<glyph name="macron" format="2">
  <advance width="615"/>
  <unicode hex="00AF"/>
  <unicode hex="0E0F"/>
  <outline>
    <contour>
      <point x="308" y="599" type="qcurve" smooth="yes"/>
      <point x="347" y="599"/>
      <point x="427" y="579"/>
      <point x="493" y="538"/>
      <point x="535" y="473"/>
      <point x="535" y="428" type="qcurve" smooth="yes"/>
      <point x="535" y="-29" type="line" smooth="yes"/>
      <point x="535" y="-56"/>
      <point x="515" y="-104"/>
      <point x="481" y="-144"/>
      <point x="437" y="-175"/>
      <point x="413" y="-185" type="qcurve"/>
      <point x="310" y="-81" type="line"/>
      <point x="213" y="-180" type="line"/>
      <point x="85" y="-180" type="line"/>
      <point x="85" y="-126" type="line"/>
      <point x="191" y="-126" type="line"/>
      <point x="310" y="-17" type="line"/>
      <point x="422" y="-120" type="line"/>
      <point x="446" y="-106"/>
      <point x="481" y="-57"/>
      <point x="481" y="-28" type="qcurve" smooth="yes"/>
      <point x="481" y="428" type="line" smooth="yes"/>
      <point x="481" y="463"/>
      <point x="444" y="508"/>
      <point x="389" y="534"/>
      <point x="324" y="545"/>
      <point x="297" y="545" type="qcurve" smooth="yes"/>
      <point x="287" y="545"/>
      <point x="235" y="541"/>
      <point x="181" y="530"/>
      <point x="139" y="512"/>
      <point x="139" y="498" type="qcurve" smooth="yes"/>
      <point x="139" y="80" type="line" smooth="yes"/>
      <point x="139" y="55"/>
      <point x="121" y="24"/>
      <point x="91" y="6"/>
      <point x="52" y="0"/>
      <point x="31" y="0" type="qcurve"/>
      <point x="31" y="54" type="line"/>
      <point x="36" y="54"/>
      <point x="47" y="53"/>
      <point x="52" y="53" type="qcurve" smooth="yes"/>
      <point x="66" y="53"/>
      <point x="85" y="64"/>
      <point x="85" y="80" type="qcurve" smooth="yes"/>
      <point x="85" y="501" type="line" smooth="yes"/>
      <point x="85" y="533"/>
      <point x="138" y="571"/>
      <point x="210" y="592"/>
      <point x="286" y="599"/>
    </contour>
  </outline>
</glyph>
<glyph name="degree" format="2">
  <advance width="531"/>
  <unicode hex="00B0"/>
  <unicode hex="0E10"/>
  <outline>
    <contour>
      <point x="219" y="600" type="qcurve" smooth="yes"/>
      <point x="264" y="600"/>
      <point x="349" y="581"/>
      <point x="384" y="552" type="qcurve"/>
      <point x="390" y="563"/>
      <point x="394" y="587"/>
      <point x="394" y="599" type="qcurve"/>
      <point x="448" y="599" type="line"/>
      <point x="448" y="576"/>
      <point x="436" y="530"/>
      <point x="421" y="511" type="qcurve"/>
      <point x="433" y="493"/>
      <point x="448" y="451"/>
      <point x="448" y="428" type="qcurve" smooth="yes"/>
      <point x="448" y="0" type="line"/>
      <point x="394" y="0" type="line"/>
      <point x="394" y="157" type="line" smooth="yes"/>
      <point x="394" y="189"/>
      <point x="361" y="234"/>
      <point x="310" y="262"/>
      <point x="250" y="274"/>
      <point x="223" y="274" type="qcurve"/>
      <point x="223" y="328" type="line"/>
      <point x="270" y="328"/>
      <point x="359" y="304"/>
      <point x="394" y="272" type="qcurve"/>
      <point x="394" y="428" type="line" smooth="yes"/>
      <point x="394" y="463"/>
      <point x="359" y="508"/>
      <point x="306" y="535"/>
      <point x="244" y="546"/>
      <point x="216" y="546" type="qcurve" smooth="yes"/>
      <point x="200" y="546"/>
      <point x="155" y="543"/>
      <point x="110" y="535"/>
      <point x="70" y="520"/>
      <point x="58" y="508" type="qcurve"/>
      <point x="20" y="546" type="line"/>
      <point x="37" y="563"/>
      <point x="86" y="584"/>
      <point x="141" y="596"/>
      <point x="196" y="600"/>
    </contour>
    <contour>
      <point x="138" y="-126" type="line"/>
      <point x="256" y="-17" type="line"/>
      <point x="369" y="-121" type="line"/>
      <point x="379" y="-115"/>
      <point x="398" y="-100"/>
      <point x="406" y="-91" type="qcurve"/>
      <point x="448" y="-125" type="line"/>
      <point x="431" y="-147"/>
      <point x="384" y="-174"/>
      <point x="359" y="-185" type="qcurve"/>
      <point x="256" y="-81" type="line"/>
      <point x="159" y="-180" type="line"/>
      <point x="85" y="-180" type="line"/>
      <point x="85" y="-126" type="line"/>
    </contour>
  </outline>
</glyph>
<glyph name="plusminus" format="2">
  <advance width="680"/>
  <unicode hex="00B1"/>
  <unicode hex="0E11"/>
  <outline>
    <contour>
      <point x="20" y="562" type="line"/>
      <point x="58" y="600" type="line"/>
      <point x="120" y="538" type="line"/>
      <point x="172" y="590" type="line"/>
      <point x="218" y="590"/>
      <point x="260" y="551"/>
      <point x="268" y="506" type="qcurve"/>
      <point x="293" y="548"/>
      <point x="358" y="600"/>
      <point x="409" y="600" type="qcurve" smooth="yes"/>
      <point x="445" y="600"/>
      <point x="514" y="575"/>
      <point x="567" y="529"/>
      <point x="600" y="466"/>
      <point x="600" y="428" type="qcurve" smooth="yes"/>
      <point x="600" y="0" type="line"/>
      <point x="546" y="0" type="line"/>
      <point x="546" y="407" type="line" smooth="yes"/>
      <point x="546" y="470"/>
      <point x="473" y="546"/>
      <point x="409" y="546" type="qcurve" smooth="yes"/>
      <point x="378" y="546"/>
      <point x="336" y="515"/>
      <point x="321" y="489" type="qcurve" smooth="yes"/>
      <point x="298" y="447"/>
      <point x="247" y="370"/>
      <point x="224" y="328" type="qcurve"/>
      <point x="210" y="300"/>
      <point x="207" y="272" type="qcurve" smooth="yes"/>
      <point x="200" y="204"/>
      <point x="204" y="67"/>
      <point x="204" y="0" type="qcurve"/>
      <point x="150" y="0" type="line"/>
      <point x="150" y="212" type="line" smooth="yes"/>
      <point x="150" y="247"/>
      <point x="160" y="319"/>
      <point x="175" y="351" type="qcurve" smooth="yes"/>
      <point x="189" y="381"/>
      <point x="221" y="441"/>
      <point x="221" y="476" type="qcurve" smooth="yes"/>
      <point x="221" y="493"/>
      <point x="211" y="529"/>
      <point x="193" y="535" type="qcurve"/>
      <point x="120" y="472" type="line"/>
    </contour>
  </outline>
</glyph>
<glyph name="twosuperior" format="2">
  <advance width="898"/>
  <unicode hex="00B2"/>
  <unicode hex="0E12"/>
  <outline>
    <contour>
      <point x="80" y="444" type="line" smooth="yes"/>
      <point x="80" y="472"/>
      <point x="100" y="521"/>
      <point x="133" y="560"/>
      <point x="177" y="590"/>
      <point x="202" y="600" type="qcurve"/>
      <point x="278" y="532" type="line"/>
      <point x="354" y="600" type="line"/>
      <point x="379" y="590"/>
      <point x="423" y="560"/>
      <point x="456" y="521"/>
      <point x="476" y="472"/>
      <point x="476" y="444" type="qcurve" smooth="yes"/>
      <point x="476" y="252" type="line" smooth="yes"/>
      <point x="476" y="213"/>
      <point x="497" y="139"/>
      <point x="539" y="80"/>
      <point x="603" y="44"/>
      <point x="646" y="44" type="qcurve" smooth="yes"/>
      <point x="700" y="44"/>
      <point x="764" y="108"/>
      <point x="764" y="162" type="qcurve" smooth="yes"/>
      <point x="764" y="590" type="line"/>
      <point x="818" y="590" type="line"/>
      <point x="818" y="162" type="line" smooth="yes"/>
      <point x="818" y="125"/>
      <point x="792" y="62"/>
      <point x="745" y="16"/>
      <point x="682" y="-10"/>
      <point x="645" y="-10" type="qcurve" smooth="yes"/>
      <point x="592" y="-10"/>
      <point x="503" y="40"/>
      <point x="476" y="85" type="qcurve"/>
      <point x="466" y="0" type="line"/>
      <point x="422" y="0" type="line"/>
      <point x="422" y="443" type="line" smooth="yes"/>
      <point x="422" y="472"/>
      <point x="387" y="522"/>
      <point x="363" y="536" type="qcurve"/>
      <point x="278" y="460" type="line"/>
      <point x="193" y="536" type="line"/>
      <point x="169" y="522"/>
      <point x="134" y="472"/>
      <point x="134" y="443" type="qcurve" smooth="yes"/>
      <point x="134" y="144" type="line" smooth="yes"/>
      <point x="134" y="125"/>
      <point x="144" y="89"/>
      <point x="165" y="61"/>
      <point x="195" y="44"/>
      <point x="216" y="44" type="qcurve" smooth="yes"/>
      <point x="241" y="44"/>
      <point x="287" y="65"/>
      <point x="304" y="82" type="qcurve"/>
      <point x="342" y="44" type="line"/>
      <point x="317" y="19"/>
      <point x="251" y="-10"/>
      <point x="216" y="-10" type="qcurve" smooth="yes"/>
      <point x="183" y="-10"/>
      <point x="132" y="15"/>
      <point x="98" y="57"/>
      <point x="80" y="113"/>
      <point x="80" y="144" type="qcurve" smooth="yes"/>
    </contour>
  </outline>
</glyph>
<glyph name="threesuperior" format="2">
  <advance width="897"/>
  <unicode hex="00B3"/>
  <unicode hex="0E13"/>
  <outline>
    <contour>
      <point x="80" y="500" type="line" smooth="yes"/>
      <point x="80" y="530"/>
      <point x="122" y="568"/>
      <point x="181" y="591"/>
      <point x="246" y="600"/>
      <point x="268" y="600" type="qcurve" smooth="yes"/>
      <point x="308" y="600"/>
      <point x="383" y="579"/>
      <point x="441" y="537"/>
      <point x="476" y="472"/>
      <point x="476" y="428" type="qcurve" smooth="yes"/>
      <point x="476" y="162" type="line" smooth="yes"/>
      <point x="476" y="108"/>
      <point x="540" y="44"/>
      <point x="594" y="44" type="qcurve" smooth="yes"/>
      <point x="638" y="44"/>
      <point x="702" y="79"/>
      <point x="743" y="138"/>
      <point x="763" y="213"/>
      <point x="763" y="252" type="qcurve" smooth="yes"/>
      <point x="763" y="590" type="line"/>
      <point x="817" y="590" type="line"/>
      <point x="817" y="1" type="line"/>
      <point x="773" y="1" type="line"/>
      <point x="763" y="84" type="line"/>
      <point x="736" y="41"/>
      <point x="648" y="-10"/>
      <point x="597" y="-10" type="qcurve" smooth="yes"/>
      <point x="560" y="-10"/>
      <point x="496" y="16"/>
      <point x="449" y="61"/>
      <point x="422" y="125"/>
      <point x="422" y="162" type="qcurve" smooth="yes"/>
      <point x="422" y="428" type="line" smooth="yes"/>
      <point x="422" y="459"/>
      <point x="395" y="504"/>
      <point x="352" y="532"/>
      <point x="298" y="546"/>
      <point x="271" y="546" type="qcurve" smooth="yes"/>
      <point x="261" y="546"/>
      <point x="216" y="542"/>
      <point x="169" y="532"/>
      <point x="134" y="514"/>
      <point x="134" y="499" type="qcurve" smooth="yes"/>
      <point x="134" y="99" type="line" smooth="yes"/>
      <point x="134" y="83"/>
      <point x="148" y="65"/>
      <point x="169" y="55"/>
      <point x="195" y="52"/>
      <point x="208" y="52" type="qcurve" smooth="yes"/>
      <point x="221" y="52"/>
      <point x="246" y="54"/>
      <point x="260" y="54" type="qcurve"/>
      <point x="260" y="0" type="line"/>
      <point x="179" y="0" type="line" smooth="yes"/>
      <point x="137" y="0"/>
      <point x="80" y="57"/>
      <point x="80" y="99" type="qcurve" smooth="yes"/>
    </contour>
  </outline>
</glyph>
<glyph name="acute" format="2">
  <advance width="610"/>
  <unicode hex="00B4"/>
  <unicode hex="0E14"/>
  <outline>
    <contour>
      <point x="530" y="429" type="qcurve" smooth="yes"/>
      <point x="530" y="0" type="line"/>
      <point x="476" y="0" type="line"/>
      <point x="476" y="429" type="line" smooth="yes"/>
      <point x="476" y="462"/>
      <point x="443" y="506"/>
      <point x="392" y="534"/>
      <point x="332" y="546"/>
      <point x="305" y="546" type="qcurve" smooth="yes"/>
      <point x="229" y="546"/>
      <point x="145" y="486"/>
      <point x="133" y="408" type="qcurve" smooth="yes"/>
      <point x="128" y="374"/>
      <point x="123" y="307"/>
      <point x="123" y="273" type="qcurve" smooth="yes"/>
      <point x="123" y="256"/>
      <point x="123" y="209"/>
      <point x="127" y="158"/>
      <point x="137" y="108"/>
      <point x="157" y="68"/>
      <point x="191" y="44"/>
      <point x="216" y="44" type="qcurve" smooth="yes"/>
      <point x="241" y="44"/>
      <point x="287" y="65"/>
      <point x="304" y="82" type="qcurve"/>
      <point x="342" y="44" type="line"/>
      <point x="317" y="19"/>
      <point x="250" y="-10"/>
      <point x="215" y="-10" type="qcurve" smooth="yes"/>
      <point x="160" y="-10"/>
      <point x="101" y="46"/>
      <point x="74" y="130"/>
      <point x="69" y="226"/>
      <point x="69" y="266" type="qcurve" smooth="yes"/>
      <point x="69" y="333"/>
      <point x="81" y="454"/>
      <point x="128" y="546"/>
      <point x="223" y="600"/>
      <point x="305" y="600" type="qcurve" smooth="yes"/>
      <point x="343" y="600"/>
      <point x="423" y="580"/>
      <point x="488" y="538"/>
      <point x="530" y="473"/>
    </contour>
  </outline>
</glyph>
<glyph name="uni00B5" format="2">
  <advance width="610"/>
  <unicode hex="00B5"/>
  <unicode hex="0E15"/>
  <outline>
    <contour>
      <point x="202" y="600" type="qcurve"/>
      <point x="305" y="506" type="line"/>
      <point x="408" y="600" type="line"/>
      <point x="432" y="590"/>
      <point x="477" y="560"/>
      <point x="510" y="521"/>
      <point x="530" y="473"/>
      <point x="530" y="445" type="qcurve" smooth="yes"/>
      <point x="530" y="0" type="line"/>
      <point x="476" y="0" type="line"/>
      <point x="476" y="443" type="line" smooth="yes"/>
      <point x="476" y="472"/>
      <point x="441" y="521"/>
      <point x="417" y="535" type="qcurve"/>
      <point x="305" y="442" type="line"/>
      <point x="193" y="535" type="line"/>
      <point x="162" y="517"/>
      <point x="131" y="448"/>
      <point x="119" y="368"/>
      <point x="119" y="287"/>
      <point x="119" y="256" type="qcurve" smooth="yes"/>
      <point x="119" y="232"/>
      <point x="125" y="161"/>
      <point x="144" y="93"/>
      <point x="182" y="45"/>
      <point x="215" y="45" type="qcurve" smooth="yes"/>
      <point x="240" y="45"/>
      <point x="287" y="65"/>
      <point x="304" y="82" type="qcurve"/>
      <point x="342" y="44" type="line"/>
      <point x="317" y="19"/>
      <point x="251" y="-9"/>
      <point x="216" y="-9" type="qcurve" smooth="yes"/>
      <point x="179" y="-9"/>
      <point x="127" y="19"/>
      <point x="94" y="65"/>
      <point x="75" y="125"/>
      <point x="67" y="189"/>
      <point x="65" y="253"/>
      <point x="65" y="280" type="qcurve" smooth="yes"/>
      <point x="65" y="327"/>
      <point x="70" y="423"/>
      <point x="96" y="509"/>
      <point x="151" y="579"/>
    </contour>
  </outline>
</glyph>
<glyph name="paragraph" format="2">
  <advance width="610"/>
  <unicode hex="00B6"/>
  <unicode hex="0E16"/>
  <outline>
    <contour>
      <point x="80" y="99" type="qcurve" smooth="yes"/>
      <point x="80" y="502" type="line" smooth="yes"/>
      <point x="80" y="534"/>
      <point x="132" y="573"/>
      <point x="204" y="594"/>
      <point x="279" y="600"/>
      <point x="302" y="600" type="qcurve" smooth="yes"/>
      <point x="340" y="600"/>
      <point x="421" y="580"/>
      <point x="487" y="538"/>
      <point x="530" y="474"/>
      <point x="530" y="429" type="qcurve" smooth="yes"/>
      <point x="530" y="0" type="line"/>
      <point x="476" y="0" type="line"/>
      <point x="476" y="429" type="line" smooth="yes"/>
      <point x="476" y="463"/>
      <point x="441" y="508"/>
      <point x="387" y="535"/>
      <point x="324" y="546"/>
      <point x="297" y="546" type="qcurve" smooth="yes"/>
      <point x="287" y="546"/>
      <point x="233" y="542"/>
      <point x="177" y="532"/>
      <point x="134" y="514"/>
      <point x="134" y="499" type="qcurve" smooth="yes"/>
      <point x="134" y="99" type="line" smooth="yes"/>
      <point x="134" y="79"/>
      <point x="159" y="54"/>
      <point x="179" y="54" type="qcurve" smooth="yes"/>
      <point x="280" y="54" type="line"/>
      <point x="280" y="0" type="line"/>
      <point x="179" y="0" type="line" smooth="yes"/>
      <point x="137" y="0"/>
      <point x="80" y="57"/>
    </contour>
  </outline>
</glyph>
<glyph name="periodcentered" format="2">
  <advance width="610"/>
  <unicode hex="00B7"/>
  <unicode hex="0E17"/>
  <unicode hex="2219"/>
  <outline>
    <contour>
      <point x="80" y="0" type="line"/>
      <point x="80" y="590" type="line"/>
      <point x="124" y="590" type="line"/>
      <point x="134" y="496" type="line"/>
      <point x="167" y="547"/>
      <point x="271" y="600"/>
      <point x="331" y="600" type="qcurve" smooth="yes"/>
      <point x="369" y="600"/>
      <point x="441" y="577"/>
      <point x="496" y="533"/>
      <point x="530" y="469"/>
      <point x="530" y="428" type="qcurve" smooth="yes"/>
      <point x="530" y="0" type="line"/>
      <point x="476" y="0" type="line"/>
      <point x="476" y="428" type="line" smooth="yes"/>
      <point x="476" y="457"/>
      <point x="450" y="501"/>
      <point x="409" y="531"/>
      <point x="357" y="546"/>
      <point x="331" y="546" type="qcurve" smooth="yes"/>
      <point x="287" y="546"/>
      <point x="214" y="513"/>
      <point x="162" y="457"/>
      <point x="134" y="381"/>
      <point x="134" y="338" type="qcurve" smooth="yes"/>
      <point x="134" y="0" type="line"/>
    </contour>
  </outline>
</glyph>
<glyph name="cedilla" format="2">
  <advance width="552"/>
  <unicode hex="00B8"/>
  <unicode hex="0E18"/>
  <outline>
    <contour>
      <point x="446" y="185" type="line" smooth="yes"/>
      <point x="446" y="215"/>
      <point x="411" y="257"/>
      <point x="382" y="262" type="qcurve" smooth="yes"/>
      <point x="348" y="268"/>
      <point x="272" y="274"/>
      <point x="196" y="286"/>
      <point x="126" y="309"/>
      <point x="99" y="332" type="qcurve" smooth="yes"/>
      <point x="49" y="374"/>
      <point x="49" y="436" type="qcurve" smooth="yes"/>
      <point x="49" y="480"/>
      <point x="91" y="543"/>
      <point x="156" y="582"/>
      <point x="236" y="600"/>
      <point x="273" y="600" type="qcurve" smooth="yes"/>
      <point x="296" y="600"/>
      <point x="352" y="596"/>
      <point x="408" y="584"/>
      <point x="459" y="563"/>
      <point x="476" y="546" type="qcurve"/>
      <point x="438" y="508" type="line"/>
      <point x="426" y="520"/>
      <point x="384" y="535"/>
      <point x="337" y="543"/>
      <point x="291" y="546"/>
      <point x="274" y="546" type="qcurve" smooth="yes"/>
      <point x="249" y="546"/>
      <point x="189" y="536"/>
      <point x="137" y="511"/>
      <point x="103" y="469"/>
      <point x="103" y="437" type="qcurve" smooth="yes"/>
      <point x="103" y="414"/>
      <point x="124" y="379"/>
      <point x="158" y="354"/>
      <point x="199" y="340"/>
      <point x="219" y="337" type="qcurve" smooth="yes"/>
      <point x="396" y="314" type="line" smooth="yes"/>
      <point x="420" y="311"/>
      <point x="458" y="287"/>
      <point x="485" y="252"/>
      <point x="500" y="208"/>
      <point x="500" y="185" type="qcurve" smooth="yes"/>
      <point x="500" y="99" type="line" smooth="yes"/>
      <point x="500" y="57"/>
      <point x="443" y="0"/>
      <point x="401" y="0" type="qcurve" smooth="yes"/>
      <point x="158" y="0" type="line" smooth="yes"/>
      <point x="116" y="0"/>
      <point x="59" y="57"/>
      <point x="59" y="99" type="qcurve" smooth="yes"/>
      <point x="59" y="241" type="line"/>
      <point x="113" y="241" type="line"/>
      <point x="113" y="99" type="line" smooth="yes"/>
      <point x="113" y="79"/>
      <point x="138" y="54"/>
      <point x="158" y="54" type="qcurve" smooth="yes"/>
      <point x="401" y="54" type="line" smooth="yes"/>
      <point x="421" y="54"/>
      <point x="446" y="79"/>
      <point x="446" y="99" type="qcurve" smooth="yes"/>
    </contour>
  </outline>
</glyph>
<glyph name="onesuperior" format="2">
  <advance width="610"/>
  <unicode hex="00B9"/>
  <unicode hex="0E19"/>
  <outline>
    <contour>
      <point x="134" y="590" type="line"/>
      <point x="134" y="161" type="line" smooth="yes"/>
      <point x="134" y="132"/>
      <point x="159" y="88"/>
      <point x="200" y="59"/>
      <point x="251" y="44"/>
      <point x="277" y="44" type="qcurve" smooth="yes"/>
      <point x="322" y="44"/>
      <point x="395" y="76"/>
      <point x="448" y="132"/>
      <point x="476" y="208"/>
      <point x="476" y="252" type="qcurve" smooth="yes"/>
      <point x="476" y="590" type="line"/>
      <point x="530" y="590" type="line"/>
      <point x="530" y="0" type="line"/>
      <point x="486" y="0" type="line"/>
      <point x="476" y="93" type="line"/>
      <point x="443" y="42"/>
      <point x="338" y="-10"/>
      <point x="278" y="-10" type="qcurve" smooth="yes"/>
      <point x="240" y="-10"/>
      <point x="169" y="13"/>
      <point x="113" y="56"/>
      <point x="80" y="120"/>
      <point x="80" y="161" type="qcurve" smooth="yes"/>
      <point x="80" y="590" type="line"/>
    </contour>
  </outline>
</glyph>
<glyph name="guillemotright" format="2">
  <advance width="610"/>
  <unicode hex="00BB"/>
  <unicode hex="0E1B"/>
  <outline>
    <contour>
      <point x="530" y="162" type="line" smooth="yes"/>
      <point x="530" y="118"/>
      <point x="489" y="53"/>
      <point x="425" y="11"/>
      <point x="346" y="-9"/>
      <point x="307" y="-9" type="qcurve" smooth="yes"/>
      <point x="268" y="-9"/>
      <point x="188" y="11"/>
      <point x="122" y="52"/>
      <point x="80" y="117"/>
      <point x="80" y="162" type="qcurve" smooth="yes"/>
      <point x="80" y="590" type="line"/>
      <point x="134" y="590" type="line"/>
      <point x="134" y="162" type="line" smooth="yes"/>
      <point x="134" y="129"/>
      <point x="167" y="85"/>
      <point x="218" y="57"/>
      <point x="278" y="45"/>
      <point x="305" y="45" type="qcurve" smooth="yes"/>
      <point x="332" y="45"/>
      <point x="392" y="57"/>
      <point x="443" y="85"/>
      <point x="476" y="130"/>
      <point x="476" y="162" type="qcurve" smooth="yes"/>
      <point x="476" y="783" type="line"/>
      <point x="530" y="783" type="line"/>
    </contour>
  </outline>
</glyph>
<glyph name="onequarter" format="2">
  <advance width="610"/>
  <unicode hex="00BC"/>
  <unicode hex="0E1C"/>
  <outline>
    <contour>
      <point x="179" y="590" type="qcurve" smooth="yes"/>
      <point x="260" y="590" type="line"/>
      <point x="260" y="536" type="line"/>
      <point x="249" y="536"/>
      <point x="229" y="537"/>
      <point x="218" y="537" type="qcurve" smooth="yes"/>
      <point x="206" y="537"/>
      <point x="177" y="535"/>
      <point x="151" y="526"/>
      <point x="134" y="507"/>
      <point x="134" y="491" type="qcurve" smooth="yes"/>
      <point x="134" y="148" type="line" smooth="yes"/>
      <point x="134" y="119"/>
      <point x="169" y="70"/>
      <point x="193" y="56" type="qcurve"/>
      <point x="305" y="159" type="line"/>
      <point x="417" y="56" type="line"/>
      <point x="441" y="70"/>
      <point x="476" y="119"/>
      <point x="476" y="148" type="qcurve" smooth="yes"/>
      <point x="476" y="590" type="line"/>
      <point x="530" y="590" type="line"/>
      <point x="530" y="147" type="line" smooth="yes"/>
      <point x="530" y="118"/>
      <point x="510" y="70"/>
      <point x="477" y="32"/>
      <point x="433" y="2"/>
      <point x="408" y="-9" type="qcurve"/>
      <point x="305" y="95" type="line"/>
      <point x="202" y="-9" type="line"/>
      <point x="177" y="2"/>
      <point x="133" y="32"/>
      <point x="100" y="70"/>
      <point x="80" y="118"/>
      <point x="80" y="147" type="qcurve" smooth="yes"/>
      <point x="80" y="491" type="line" smooth="yes"/>
      <point x="80" y="533"/>
      <point x="137" y="590"/>
    </contour>
  </outline>
</glyph>
<glyph name="threequarters" format="2">
  <advance width="664"/>
  <unicode hex="00BE"/>
  <unicode hex="0E1E"/>
  <outline>
    <contour>
      <point x="80" y="590" type="line"/>
      <point x="134" y="590" type="line"/>
      <point x="134" y="100" type="line" smooth="yes"/>
      <point x="134" y="84"/>
      <point x="152" y="62"/>
      <point x="179" y="49"/>
      <point x="209" y="44"/>
      <point x="222" y="44" type="qcurve" smooth="yes"/>
      <point x="235" y="44"/>
      <point x="264" y="50"/>
      <point x="289" y="63"/>
      <point x="306" y="85"/>
      <point x="306" y="100" type="qcurve" smooth="yes"/>
      <point x="306" y="356" type="line"/>
      <point x="358" y="356" type="line"/>
      <point x="358" y="100" type="line" smooth="yes"/>
      <point x="358" y="84"/>
      <point x="376" y="62"/>
      <point x="403" y="49"/>
      <point x="434" y="44"/>
      <point x="447" y="44" type="qcurve" smooth="yes"/>
      <point x="459" y="44"/>
      <point x="488" y="50"/>
      <point x="513" y="63"/>
      <point x="530" y="85"/>
      <point x="530" y="100" type="qcurve" smooth="yes"/>
      <point x="530" y="590" type="line"/>
      <point x="584" y="590" type="line"/>
      <point x="584" y="100" type="line" smooth="yes"/>
      <point x="584" y="72"/>
      <point x="558" y="30"/>
      <point x="517" y="3"/>
      <point x="466" y="-10"/>
      <point x="441" y="-10" type="qcurve" smooth="yes"/>
      <point x="411" y="-10"/>
      <point x="352" y="10"/>
      <point x="332" y="33" type="qcurve"/>
      <point x="312" y="9"/>
      <point x="252" y="-10"/>
      <point x="222" y="-10" type="qcurve" smooth="yes"/>
      <point x="197" y="-10"/>
      <point x="147" y="3"/>
      <point x="106" y="30"/>
      <point x="80" y="72"/>
      <point x="80" y="100" type="qcurve" smooth="yes"/>
    </contour>
  </outline>
</glyph>
<glyph name="Agrave" format="2">
  <advance width="615"/>
  <unicode hex="00C0"/>
  <unicode hex="0E20"/>
  <outline>
    <contour>
      <point x="311" y="600" type="qcurve" smooth="yes"/>
      <point x="349" y="600"/>
      <point x="429" y="580"/>
      <point x="494" y="538"/>
      <point x="535" y="474"/>
      <point x="535" y="429" type="qcurve" smooth="yes"/>
      <point x="535" y="0" type="line"/>
      <point x="481" y="0" type="line"/>
      <point x="481" y="429" type="line" smooth="yes"/>
      <point x="481" y="464"/>
      <point x="444" y="509"/>
      <point x="389" y="535"/>
      <point x="324" y="546"/>
      <point x="297" y="546" type="qcurve" smooth="yes"/>
      <point x="287" y="546"/>
      <point x="235" y="542"/>
      <point x="181" y="531"/>
      <point x="139" y="513"/>
      <point x="139" y="499" type="qcurve" smooth="yes"/>
      <point x="139" y="80" type="line" smooth="yes"/>
      <point x="139" y="47"/>
      <point x="96" y="0"/>
      <point x="62" y="0" type="qcurve" smooth="yes"/>
      <point x="40" y="0" type="line"/>
      <point x="40" y="54" type="line"/>
      <point x="48" y="54"/>
      <point x="64" y="54"/>
      <point x="77" y="58"/>
      <point x="85" y="69"/>
      <point x="85" y="80" type="qcurve" smooth="yes"/>
      <point x="85" y="502" type="line" smooth="yes"/>
      <point x="85" y="534"/>
      <point x="139" y="573"/>
      <point x="213" y="594"/>
      <point x="289" y="600"/>
    </contour>
  </outline>
</glyph>
